<svg xmlns="http://www.w3.org/2000/svg" width="48.92" height="48.92" viewBox="0 0 45.862882 45.862881"><g transform="translate(-590.943 -474.695)"><circle cx="613.874" cy="497.626" r="20.135" fill="#6b85dd" stroke="#4266d5" stroke-width="5.593"/><path d="M613.872 480.273c-9.58 0-17.346 7.766-17.346 17.348 0 7.664 4.97 14.166 11.864 16.46.868.16 1.184-.376 1.184-.836 0-.411-.015-1.503-.023-2.95-4.826 1.048-5.844-2.326-5.844-2.326-.789-2.003-1.926-2.537-1.926-2.537-1.575-1.076.119-1.055.119-1.055 1.741.123 2.657 1.788 2.657 1.788 1.547 2.65 4.06 1.885 5.049 1.442.158-1.121.605-1.886 1.101-2.32-3.852-.437-7.902-1.926-7.902-8.574 0-1.893.676-3.441 1.786-4.654-.179-.44-.774-2.203.17-4.592 0 0 1.456-.466 4.77 1.779a16.615 16.615 0 0 1 4.343-.584c1.473.007 2.958.2 4.343.584 3.312-2.245 4.766-1.779 4.766-1.779.947 2.39.351 4.153.173 4.592 1.111 1.213 1.783 2.761 1.783 4.654 0 6.665-4.056 8.131-7.92 8.56.622.536 1.177 1.595 1.177 3.214 0 2.318-.021 4.19-.021 4.758 0 .464.312 1.004 1.192.835 6.889-2.3 11.855-8.797 11.855-16.46 0-9.58-7.768-17.347-17.35-17.347" fill="#252525" fill-rule="evenodd"/></g></svg>