<svg xmlns="http://www.w3.org/2000/svg" width="48.92" height="48.92" viewBox="0 0 45.862882 45.862881"><g transform="translate(-549.273 -384.608)"><circle cx="572.204" cy="407.54" r="20.135" fill="#6bab5b" stroke="#3b972e" stroke-width="5.593"/><path d="M572.202 390.186c-9.58 0-17.346 7.767-17.346 17.349 0 7.664 4.97 14.166 11.864 16.46.868.16 1.184-.376 1.184-.836 0-.412-.015-1.503-.023-2.95-4.826 1.048-5.844-2.326-5.844-2.326-.789-2.003-1.926-2.537-1.926-2.537-1.575-1.077.119-1.055.119-1.055 1.741.123 2.657 1.788 2.657 1.788 1.547 2.65 4.06 1.885 5.049 1.442.158-1.122.605-1.886 1.101-2.32-3.852-.438-7.902-1.926-7.902-8.574 0-1.893.676-3.442 1.786-4.655-.179-.439-.774-2.202.17-4.59 0 0 1.456-.467 4.77 1.778a16.615 16.615 0 0 1 4.343-.584c1.473.006 2.958.2 4.343.584 3.312-2.245 4.766-1.779 4.766-1.779.947 2.389.351 4.152.172 4.591 1.112 1.213 1.784 2.762 1.784 4.655 0 6.665-4.056 8.131-7.92 8.56.622.536 1.177 1.595 1.177 3.213 0 2.319-.021 4.19-.021 4.759 0 .464.312 1.004 1.192.834 6.889-2.299 11.854-8.796 11.854-16.458 0-9.582-7.767-17.349-17.349-17.349" fill="#252525" fill-rule="evenodd"/></g></svg>