<svg xmlns="http://www.w3.org/2000/svg" width="48.92" height="48.92" viewBox="0 0 45.862882 45.862881"><g transform="translate(-603.72 -380.855)"><circle cx="626.651" cy="403.786" r="20.135" fill="#aa7dc0" stroke="#945bb0" stroke-width="5.593"/><path d="M626.649 386.433c-9.58 0-17.346 7.766-17.346 17.348 0 7.664 4.97 14.166 11.863 16.46.868.16 1.185-.376 1.185-.836 0-.411-.015-1.503-.024-2.95-4.825 1.048-5.843-2.326-5.843-2.326-.79-2.003-1.927-2.537-1.927-2.537-1.575-1.076.12-1.055.12-1.055 1.74.123 2.657 1.788 2.657 1.788 1.547 2.65 4.06 1.885 5.049 1.442.157-1.122.605-1.886 1.1-2.32-3.851-.437-7.901-1.926-7.901-8.574 0-1.893.676-3.442 1.786-4.655-.18-.438-.774-2.202.17-4.59 0 0 1.456-.467 4.77 1.778a16.615 16.615 0 0 1 4.343-.584c1.473.007 2.957.2 4.343.584 3.312-2.245 4.766-1.779 4.766-1.779.946 2.39.351 4.153.172 4.591 1.112 1.213 1.784 2.762 1.784 4.655 0 6.665-4.056 8.131-7.921 8.56.623.536 1.178 1.595 1.178 3.214 0 2.318-.022 4.19-.022 4.758 0 .464.312 1.004 1.193.835 6.888-2.3 11.854-8.797 11.854-16.46 0-9.58-7.768-17.347-17.35-17.347" fill="#252525" fill-rule="evenodd"/></g></svg>