<svg xmlns="http://www.w3.org/2000/svg" width="48.951" height="48.951" viewBox="0 0 45.892 45.892"><g transform="translate(-300 -427.9)"><circle r="20.148" cy="450.845" cx="322.946" fill="#6bab5b" stroke="#3b972e" stroke-width="5.597"/><path d="M327.66 440.97c.72-.544 1.554-.965 2.459-1.07-.125.54-.639.824-1.086 1.07.676-.2 1.334-.495 2.046-.543.19-.007.461 0 .529.222.101.275-.177.489-.388.603-.777.401-1.675.46-2.465.83 1.624-.152 3.245.477 4.476 1.517 1.47 1.21 2.442 2.961 2.796 4.824 1.3.349 2.704.096 3.923-.422-.613 1.389-2.174 2.023-3.6 2.146 1.185.447 2.49.524 3.742.39-.994 1.1-2.53 1.53-3.975 1.496-.6 2.455-2.029 4.656-3.882 6.354-3.606 3.265-8.601 4.83-13.428 4.519-4.64-.283-9.205-2.57-11.946-6.365.24.14.441.334.67.489 2.122 1.535 4.947 2.023 7.47 1.338 1.53-.395 2.92-1.252 4.03-2.37-.71.048-1.498-.078-2.013-.614-.321-.305-.453-.809-.26-1.218.233-.517.752-.811 1.243-1.043-1.61.23-3.364-.52-4.106-2.009.543-.648 1.413-.857 2.22-.92-.94-.274-1.905-.609-2.617-1.31a3.491 3.491 0 0 1-1.045-2.035c.665-.124 1.333-.275 2.015-.247-1.546-.804-2.96-2.337-2.836-4.189 2.932 1.07 5.817 2.289 8.571 3.762.964.53 1.765 1.295 2.553 2.051.763-1.982 1.582-3.971 2.823-5.71.665-.914 1.45-1.765 2.415-2.368-.038.3-.192.561-.333.821z" fill="#252525"/></g></svg>