<?xml version="1.0" encoding="UTF-8" standalone="no"?>
<!DOCTYPE svg PUBLIC "-//W3C//DTD SVG 1.1//EN"
 "http://www.w3.org/Graphics/SVG/1.1/DTD/svg11.dtd">
<!-- Generated by graphviz version 2.38.0 (20140413.2041)
 -->
<!-- Title: fastqparser Pages: 1 -->
<svg width="6665pt" height="1954pt"
 viewBox="0.00 0.00 6664.61 1954.00" xmlns="http://www.w3.org/2000/svg" xmlns:xlink="http://www.w3.org/1999/xlink">
<g id="graph0" class="graph" transform="scale(1 1) rotate(0) translate(4 1950)">
<title>fastqparser</title>
<polygon fill="white" stroke="none" points="-4,4 -4,-1950 6660.61,-1950 6660.61,4 -4,4"/>
<!-- ENTRY -->
<g id="node1" class="node"><title>ENTRY</title>
<ellipse fill="black" stroke="black" cx="1.8" cy="-1594" rx="1.8" ry="1.8"/>
</g>
<!-- 25 -->
<g id="node6" class="node"><title>25</title>
<ellipse fill="none" stroke="black" cx="95.0932" cy="-1575" rx="23.5" ry="23.5"/>
<ellipse fill="none" stroke="black" cx="95.0932" cy="-1575" rx="27.5" ry="27.5"/>
<text text-anchor="middle" x="95.0932" y="-1570.8" font-family="Times,serif" font-size="14.00">25</text>
</g>
<!-- ENTRY&#45;&gt;25 -->
<g id="edge142" class="edge"><title>ENTRY&#45;&gt;25</title>
<path fill="none" stroke="black" d="M3.82527,-1593.79C9.22734,-1592.66 34.9965,-1587.3 57.6261,-1582.59"/>
<polygon fill="black" stroke="black" points="58.641,-1585.95 67.718,-1580.49 57.2146,-1579.1 58.641,-1585.95"/>
<text text-anchor="middle" x="35.5966" y="-1592.8" font-family="Times,serif" font-size="14.00">IN</text>
</g>
<!-- en_25 -->
<g id="node2" class="node"><title>en_25</title>
<ellipse fill="black" stroke="black" cx="1.8" cy="-1557" rx="1.8" ry="1.8"/>
</g>
<!-- en_25&#45;&gt;25 -->
<g id="edge143" class="edge"><title>en_25&#45;&gt;25</title>
<path fill="none" stroke="black" d="M3.97331,-1556.88C9.30138,-1556.36 31.7301,-1554.51 49.5932,-1558 53.0249,-1558.67 56.537,-1559.58 60.0092,-1560.64"/>
<polygon fill="black" stroke="black" points="58.9948,-1563.99 69.5894,-1563.92 61.261,-1557.37 58.9948,-1563.99"/>
<text text-anchor="middle" x="35.5966" y="-1560.8" font-family="Times,serif" font-size="14.00">main</text>
</g>
<!-- eof_26 -->
<g id="node3" class="node"><title>eof_26</title>
<ellipse fill="black" stroke="black" cx="3229.71" cy="-1432" rx="1.8" ry="1.8"/>
</g>
<!-- eof_27 -->
<g id="node4" class="node"><title>eof_27</title>
<ellipse fill="black" stroke="black" cx="5089.74" cy="-1643" rx="1.8" ry="1.8"/>
</g>
<!-- eof_28 -->
<g id="node5" class="node"><title>eof_28</title>
<ellipse fill="black" stroke="black" cx="5633.21" cy="-1117" rx="1.8" ry="1.8"/>
</g>
<!-- 25&#45;&gt;25 -->
<g id="edge109" class="edge"><title>25&#45;&gt;25</title>
<path fill="none" stroke="black" d="M92.3771,-1602.54C92.3187,-1612.44 93.224,-1620.5 95.0932,-1620.5 96.2614,-1620.5 97.0531,-1617.35 97.4684,-1612.57"/>
<polygon fill="black" stroke="black" points="100.967,-1612.66 97.8093,-1602.54 93.9715,-1612.42 100.967,-1612.66"/>
<text text-anchor="middle" x="95.0932" y="-1623.3" font-family="Times,serif" font-size="14.00">&#39;\t&#39;</text>
</g>
<!-- 25&#45;&gt;25 -->
<g id="edge110" class="edge"><title>25&#45;&gt;25</title>
<path fill="none" stroke="black" d="M90.1605,-1602.08C88.7194,-1620.48 90.3637,-1638.5 95.0932,-1638.5 98.9359,-1638.5 100.742,-1626.61 100.511,-1612.28"/>
<polygon fill="black" stroke="black" points="103.997,-1611.91 100.026,-1602.08 97.0053,-1612.24 103.997,-1611.91"/>
<text text-anchor="middle" x="95.0932" y="-1641.3" font-family="Times,serif" font-size="14.00">&#39;\n&#39; / count_line</text>
</g>
<!-- 25&#45;&gt;25 -->
<g id="edge111" class="edge"><title>25&#45;&gt;25</title>
<path fill="none" stroke="black" d="M88.5543,-1602.13C85.0547,-1628.13 87.2343,-1656.5 95.0932,-1656.5 101.939,-1656.5 104.475,-1634.97 102.702,-1612.24"/>
<polygon fill="black" stroke="black" points="106.166,-1611.71 101.632,-1602.13 99.2049,-1612.45 106.166,-1611.71"/>
<text text-anchor="middle" x="95.0932" y="-1659.3" font-family="Times,serif" font-size="14.00">&#39;\v&#39;..&#39;\r&#39;</text>
</g>
<!-- 25&#45;&gt;25 -->
<g id="edge112" class="edge"><title>25&#45;&gt;25</title>
<path fill="none" stroke="black" d="M87.4706,-1601.49C81.3375,-1634.82 83.8783,-1674.5 95.0932,-1674.5 105.213,-1674.5 108.27,-1642.19 104.264,-1611.4"/>
<polygon fill="black" stroke="black" points="107.719,-1610.83 102.716,-1601.49 100.803,-1611.91 107.719,-1610.83"/>
<text text-anchor="middle" x="95.0932" y="-1677.3" font-family="Times,serif" font-size="14.00">SP</text>
</g>
<!-- 1 -->
<g id="node10" class="node"><title>1</title>
<ellipse fill="none" stroke="black" cx="253.672" cy="-1575" rx="23.5" ry="23.5"/>
<text text-anchor="middle" x="253.672" y="-1570.8" font-family="Times,serif" font-size="14.00">1</text>
</g>
<!-- 25&#45;&gt;1 -->
<g id="edge113" class="edge"><title>25&#45;&gt;1</title>
<path fill="none" stroke="black" d="M122.655,-1575C149.542,-1575 191.162,-1575 220.041,-1575"/>
<polygon fill="black" stroke="black" points="220.053,-1578.5 230.053,-1575 220.053,-1571.5 220.053,-1578.5"/>
<text text-anchor="middle" x="176.383" y="-1577.8" font-family="Times,serif" font-size="14.00">&#39;@&#39;(qlen_eq)</text>
</g>
<!-- 26 -->
<g id="node7" class="node"><title>26</title>
<ellipse fill="none" stroke="black" cx="2786.48" cy="-1362" rx="23.5" ry="23.5"/>
<ellipse fill="none" stroke="black" cx="2786.48" cy="-1362" rx="27.5" ry="27.5"/>
<text text-anchor="middle" x="2786.48" y="-1357.8" font-family="Times,serif" font-size="14.00">26</text>
</g>
<!-- 26&#45;&gt;eof_26 -->
<g id="edge144" class="edge"><title>26&#45;&gt;eof_26</title>
<path fill="none" stroke="black" d="M2806.09,-1381.92C2813.47,-1388.54 2822.47,-1395.19 2831.98,-1399 2901.98,-1427.02 3095.64,-1413.05 3170.51,-1422 3187.11,-1423.99 3206.19,-1427.5 3217.84,-1429.79"/>
<polygon fill="black" stroke="black" points="3217.4,-1433.27 3227.89,-1431.83 3218.79,-1426.41 3217.4,-1433.27"/>
<text text-anchor="middle" x="3001.25" y="-1424.8" font-family="Times,serif" font-size="14.00">EOF / finish_match</text>
</g>
<!-- 26&#45;&gt;26 -->
<g id="edge114" class="edge"><title>26&#45;&gt;26</title>
<path fill="none" stroke="black" d="M2770.56,-1384.94C2768.11,-1396.81 2773.42,-1407.5 2786.48,-1407.5 2795.67,-1407.5 2801.02,-1402.21 2802.53,-1394.95"/>
<polygon fill="black" stroke="black" points="2806.03,-1394.9 2802.4,-1384.94 2799.03,-1394.99 2806.03,-1394.9"/>
<text text-anchor="middle" x="2786.48" y="-1410.3" font-family="Times,serif" font-size="14.00">&#39;\n&#39; / count_line</text>
</g>
<!-- 26&#45;&gt;1 -->
<g id="edge118" class="edge"><title>26&#45;&gt;1</title>
<path fill="none" stroke="black" d="M2758.84,-1362C2725.21,-1362 2665.6,-1362 2614.56,-1362 954.953,-1362 954.953,-1362 954.953,-1362 864.179,-1362 828.397,-1390.54 751.694,-1342 738.555,-1333.68 747.225,-1319.66 733.694,-1312 695.956,-1290.63 677.564,-1299.24 636.118,-1312 480.83,-1359.82 333.111,-1495.92 277.701,-1551.21"/>
<polygon fill="black" stroke="black" points="275.067,-1548.9 270.504,-1558.46 280.034,-1553.83 275.067,-1548.9"/>
<text text-anchor="middle" x="1397.02" y="-1364.8" font-family="Times,serif" font-size="14.00">&#39;@&#39;(!qlen_lt, qlen_eq) / finish_match</text>
</g>
<!-- 13 -->
<g id="node25" class="node"><title>13</title>
<ellipse fill="none" stroke="black" cx="6275.84" cy="-949" rx="23.5" ry="23.5"/>
<text text-anchor="middle" x="6275.84" y="-944.8" font-family="Times,serif" font-size="14.00">13</text>
</g>
<!-- 26&#45;&gt;13 -->
<g id="edge115" class="edge"><title>26&#45;&gt;13</title>
<path fill="none" stroke="black" d="M2793.46,-1335.2C2799.53,-1314.66 2811.11,-1287.46 2831.98,-1273 2886.79,-1235.02 5152.99,-1027.79 5219.42,-1022 5622.09,-986.919 6112.38,-958.207 6242.09,-950.838"/>
<polygon fill="black" stroke="black" points="6242.38,-954.327 6252.17,-950.267 6241.99,-947.338 6242.38,-954.327"/>
<text text-anchor="middle" x="4751.33" y="-1075.8" font-family="Times,serif" font-size="14.00">&#39;\r&#39;</text>
</g>
<!-- 14 -->
<g id="node26" class="node"><title>14</title>
<ellipse fill="none" stroke="black" cx="6053.26" cy="-1403" rx="23.5" ry="23.5"/>
<text text-anchor="middle" x="6053.26" y="-1398.8" font-family="Times,serif" font-size="14.00">14</text>
</g>
<!-- 26&#45;&gt;14 -->
<g id="edge116" class="edge"><title>26&#45;&gt;14</title>
<path fill="none" stroke="black" d="M2813.19,-1369.78C2819.3,-1371.4 2825.83,-1372.93 2831.98,-1374 2840.17,-1375.43 5211.11,-1568.6 5219.42,-1569 5344.56,-1574.99 5376,-1572.11 5501.28,-1573 5612.64,-1573.79 5913.27,-1639.75 6002.41,-1573 6024.29,-1556.61 6039.82,-1481.03 6047.27,-1436.35"/>
<polygon fill="black" stroke="black" points="6050.76,-1436.67 6048.9,-1426.24 6043.85,-1435.56 6050.76,-1436.67"/>
<text text-anchor="middle" x="4520.34" y="-1525.8" font-family="Times,serif" font-size="14.00">&#39;!&#39;..&#39;?&#39;(qlen_lt) / anchor, inc_qual_count</text>
</g>
<!-- 26&#45;&gt;14 -->
<g id="edge117" class="edge"><title>26&#45;&gt;14</title>
<path fill="none" stroke="black" d="M2814.43,-1362.75C2877,-1364.56 3036.95,-1369.56 3170.51,-1377 3829.76,-1413.7 3994.44,-1427.2 4652.27,-1484 4904.67,-1505.79 4966.4,-1528.32 5219.42,-1541 5336.55,-1546.87 5366.01,-1541.68 5483.28,-1541 5598.65,-1540.33 5907.89,-1601.15 6002.41,-1535 6034.06,-1512.85 6045.63,-1467.91 6049.85,-1436.66"/>
<polygon fill="black" stroke="black" points="6053.34,-1436.97 6051.02,-1426.64 6046.39,-1436.16 6053.34,-1436.97"/>
<text text-anchor="middle" x="4520.34" y="-1486.8" font-family="Times,serif" font-size="14.00">&#39;@&#39;(qlen_lt, !qlen_eq) / anchor, inc_qual_count</text>
</g>
<!-- 26&#45;&gt;14 -->
<g id="edge120" class="edge"><title>26&#45;&gt;14</title>
<path fill="none" stroke="black" d="M2814.3,-1360.6C2820.13,-1360.35 2826.26,-1360.13 2831.98,-1360 2982.4,-1356.62 3020.05,-1359.5 3170.51,-1360 3703.81,-1361.78 3837.46,-1348.62 4370.41,-1368 4632.88,-1377.55 4698,-1389.65 4960.06,-1407 5067.33,-1414.1 5095.93,-1402.28 5201.42,-1423 5209.7,-1424.63 5211.14,-1427.38 5219.42,-1429 5342.62,-1453.05 5375.82,-1443 5501.28,-1447 5723.89,-1454.1 5793.52,-1522.27 6002.41,-1445 6012.44,-1441.29 6021.86,-1434.6 6029.75,-1427.63"/>
<polygon fill="black" stroke="black" points="6032.24,-1430.08 6037.1,-1420.67 6027.43,-1425 6032.24,-1430.08"/>
<text text-anchor="middle" x="4520.34" y="-1386.8" font-family="Times,serif" font-size="14.00">&#39;A&#39;..&#39;~&#39;(qlen_lt) / anchor, inc_qual_count</text>
</g>
<!-- 15 -->
<g id="node27" class="node"><title>15</title>
<ellipse fill="none" stroke="black" cx="3229.71" cy="-1602" rx="23.5" ry="23.5"/>
<text text-anchor="middle" x="3229.71" y="-1597.8" font-family="Times,serif" font-size="14.00">15</text>
</g>
<!-- 26&#45;&gt;15 -->
<g id="edge119" class="edge"><title>26&#45;&gt;15</title>
<path fill="none" stroke="black" d="M2790,-1389.45C2794.95,-1436.7 2807.63,-1530.33 2831.98,-1551 2860.73,-1575.39 3134.06,-1564.38 3170.51,-1574 3180.57,-1576.66 3190.98,-1581.06 3200.17,-1585.61"/>
<polygon fill="black" stroke="black" points="3198.74,-1588.81 3209.23,-1590.32 3201.97,-1582.6 3198.74,-1588.81"/>
<text text-anchor="middle" x="3001.25" y="-1576.8" font-family="Times,serif" font-size="14.00">&#39;@&#39;(qlen_lt, qlen_eq) / anchor, inc_qual_count, finish_match</text>
</g>
<!-- 27 -->
<g id="node8" class="node"><title>27</title>
<ellipse fill="none" stroke="black" cx="4751.33" cy="-1611" rx="23.5" ry="23.5"/>
<ellipse fill="none" stroke="black" cx="4751.33" cy="-1611" rx="27.5" ry="27.5"/>
<text text-anchor="middle" x="4751.33" y="-1606.8" font-family="Times,serif" font-size="14.00">27</text>
</g>
<!-- 27&#45;&gt;eof_27 -->
<g id="edge145" class="edge"><title>27&#45;&gt;eof_27</title>
<path fill="none" stroke="black" d="M4778.95,-1614.16C4798.66,-1616.46 4826.19,-1619.58 4850.39,-1622 4937.85,-1630.76 5043.57,-1639.38 5077.61,-1642.11"/>
<polygon fill="black" stroke="black" points="5077.64,-1645.63 5087.89,-1642.93 5078.19,-1638.65 5077.64,-1645.63"/>
<text text-anchor="middle" x="4905.23" y="-1634.8" font-family="Times,serif" font-size="14.00">EOF / finish_match</text>
</g>
<!-- 28 -->
<g id="node9" class="node"><title>28</title>
<ellipse fill="none" stroke="black" cx="5089.74" cy="-1155" rx="23.5" ry="23.5"/>
<ellipse fill="none" stroke="black" cx="5089.74" cy="-1155" rx="27.5" ry="27.5"/>
<text text-anchor="middle" x="5089.74" y="-1150.8" font-family="Times,serif" font-size="14.00">28</text>
</g>
<!-- 27&#45;&gt;28 -->
<g id="edge121" class="edge"><title>27&#45;&gt;28</title>
<path fill="none" stroke="black" d="M4764.38,-1586.58C4781.12,-1553.99 4813.52,-1495.36 4850.39,-1452 4892.17,-1402.88 4917.93,-1405.82 4960.06,-1357 5006.92,-1302.72 5049.04,-1229.9 5071.54,-1188.15"/>
<polygon fill="black" stroke="black" points="5074.68,-1189.71 5076.31,-1179.24 5068.51,-1186.41 5074.68,-1189.71"/>
<text text-anchor="middle" x="4905.23" y="-1454.8" font-family="Times,serif" font-size="14.00">&#39;\n&#39; / count_line</text>
</g>
<!-- 27&#45;&gt;1 -->
<g id="edge125" class="edge"><title>27&#45;&gt;1</title>
<path fill="none" stroke="black" d="M4725.77,-1622.16C4706.18,-1630.71 4677.89,-1642.32 4652.27,-1650 4621.18,-1659.32 3540.38,-1883.01 3508.17,-1887 2760.19,-1979.61 2566.58,-1929 1812.89,-1929 433.248,-1929 433.248,-1929 433.248,-1929 290.537,-1929 261.855,-1696.83 256.107,-1608.53"/>
<polygon fill="black" stroke="black" points="259.598,-1608.28 255.514,-1598.5 252.611,-1608.69 259.598,-1608.28"/>
<text text-anchor="middle" x="1973.66" y="-1934.8" font-family="Times,serif" font-size="14.00">&#39;@&#39;(!qlen_lt, qlen_eq) / finish_match</text>
</g>
<!-- 20 -->
<g id="node18" class="node"><title>20</title>
<ellipse fill="none" stroke="black" cx="6053.26" cy="-184" rx="23.5" ry="23.5"/>
<text text-anchor="middle" x="6053.26" y="-179.8" font-family="Times,serif" font-size="14.00">20</text>
</g>
<!-- 27&#45;&gt;20 -->
<g id="edge127" class="edge"><title>27&#45;&gt;20</title>
<path fill="none" stroke="black" d="M4757.59,-1584.18C4774.76,-1503.16 4836.46,-1257.96 4978.06,-1118 5057.91,-1039.07 5131.38,-1087.75 5201.42,-1000 5220.66,-975.901 5195.75,-952.763 5219.42,-933 5264.58,-895.286 5440.12,-950.991 5483.28,-911 5520.26,-876.733 5470.07,-838.593 5501.28,-799 5579.94,-699.222 5682.59,-785.583 5765.14,-689 5787.13,-663.27 5770.01,-646.197 5783.14,-615 5852.74,-449.647 5981.59,-275.011 6031.64,-210.194"/>
<polygon fill="black" stroke="black" points="6034.52,-212.184 6037.89,-202.138 6028.99,-207.893 6034.52,-212.184"/>
<text text-anchor="middle" x="5351.35" y="-935.8" font-family="Times,serif" font-size="14.00">&#39;A&#39;..&#39;z&#39;(!qlen_lt) / anchor</text>
</g>
<!-- 27&#45;&gt;14 -->
<g id="edge123" class="edge"><title>27&#45;&gt;14</title>
<path fill="none" stroke="black" d="M4770.3,-1631C4788.41,-1649.55 4818.23,-1675.9 4850.39,-1687 4910.89,-1707.88 5953.48,-1728.25 6002.41,-1687 6040.01,-1655.3 6049.26,-1504.96 6051.53,-1436.77"/>
<polygon fill="black" stroke="black" points="6055.03,-1436.66 6051.83,-1426.56 6048.03,-1436.45 6055.03,-1436.66"/>
<text text-anchor="middle" x="5351.35" y="-1713.8" font-family="Times,serif" font-size="14.00">&#39;!&#39;..&#39;?&#39;(qlen_lt) / anchor, inc_qual_count</text>
</g>
<!-- 27&#45;&gt;14 -->
<g id="edge124" class="edge"><title>27&#45;&gt;14</title>
<path fill="none" stroke="black" d="M4776.18,-1623.21C4795.61,-1632.47 4824.03,-1644.52 4850.39,-1650 4905.98,-1661.55 4921.3,-1653.11 4978.06,-1654 5302.68,-1659.08 5989.11,-1659.95 6002.41,-1649 6034.63,-1622.49 6046.54,-1497.98 6050.5,-1436.93"/>
<polygon fill="black" stroke="black" points="6054.01,-1436.85 6051.12,-1426.65 6047.02,-1436.42 6054.01,-1436.85"/>
<text text-anchor="middle" x="5351.35" y="-1660.8" font-family="Times,serif" font-size="14.00">&#39;@&#39;(qlen_lt, !qlen_eq) / anchor, inc_qual_count</text>
</g>
<!-- 27&#45;&gt;14 -->
<g id="edge129" class="edge"><title>27&#45;&gt;14</title>
<path fill="none" stroke="black" d="M4779.02,-1611.93C4955.81,-1617.96 5952.73,-1650.18 6002.41,-1611 6029.54,-1589.6 6043.57,-1489.4 6049.21,-1436.27"/>
<polygon fill="black" stroke="black" points="6052.69,-1436.62 6050.22,-1426.31 6045.73,-1435.91 6052.69,-1436.62"/>
<text text-anchor="middle" x="5351.35" y="-1632.8" font-family="Times,serif" font-size="14.00">&#39;{&#39;..&#39;~&#39;(qlen_lt) / anchor, inc_qual_count</text>
</g>
<!-- 27&#45;&gt;15 -->
<g id="edge126" class="edge"><title>27&#45;&gt;15</title>
<path fill="none" stroke="black" d="M4723.67,-1607.79C4661.76,-1600.51 4503.38,-1582.94 4370.41,-1577 3932.46,-1557.44 3399.15,-1590.45 3263.36,-1599.69"/>
<polygon fill="black" stroke="black" points="3262.95,-1596.21 3253.21,-1600.39 3263.43,-1603.2 3262.95,-1596.21"/>
<text text-anchor="middle" x="3844.61" y="-1581.8" font-family="Times,serif" font-size="14.00">&#39;@&#39;(qlen_lt, qlen_eq) / anchor, inc_qual_count, finish_match</text>
</g>
<!-- 17 -->
<g id="node30" class="node"><title>17</title>
<ellipse fill="none" stroke="black" cx="6053.26" cy="-1097" rx="23.5" ry="23.5"/>
<text text-anchor="middle" x="6053.26" y="-1092.8" font-family="Times,serif" font-size="14.00">17</text>
</g>
<!-- 27&#45;&gt;17 -->
<g id="edge122" class="edge"><title>27&#45;&gt;17</title>
<path fill="none" stroke="black" d="M4779.07,-1610.47C4925.13,-1607 5624.94,-1582.71 5765.14,-1434 5813.32,-1382.9 5741.63,-1333.66 5783.14,-1277 5846.23,-1190.89 5922.33,-1249.58 6002.41,-1179 6018.19,-1165.09 6030.52,-1144.97 6038.98,-1128.13"/>
<polygon fill="black" stroke="black" points="6042.35,-1129.2 6043.5,-1118.67 6036.03,-1126.18 6042.35,-1129.2"/>
<text text-anchor="middle" x="5351.35" y="-1585.8" font-family="Times,serif" font-size="14.00">&#39;\r&#39;</text>
</g>
<!-- 21 -->
<g id="node33" class="node"><title>21</title>
<ellipse fill="none" stroke="black" cx="5633.21" cy="-1311" rx="23.5" ry="23.5"/>
<text text-anchor="middle" x="5633.21" y="-1306.8" font-family="Times,serif" font-size="14.00">21</text>
</g>
<!-- 27&#45;&gt;21 -->
<g id="edge128" class="edge"><title>27&#45;&gt;21</title>
<path fill="none" stroke="black" d="M4769.7,-1590.22C4787.81,-1569.88 4818.03,-1539.48 4850.39,-1522 5106.05,-1383.9 5203.99,-1438.2 5483.28,-1358 5524.25,-1346.23 5571.08,-1331.19 5601.11,-1321.34"/>
<polygon fill="black" stroke="black" points="5602.21,-1324.66 5610.61,-1318.21 5600.02,-1318.01 5602.21,-1324.66"/>
<text text-anchor="middle" x="5089.74" y="-1465.8" font-family="Times,serif" font-size="14.00">&#39;A&#39;..&#39;z&#39;(qlen_lt) / anchor, inc_qual_count</text>
</g>
<!-- 28&#45;&gt;eof_28 -->
<g id="edge146" class="edge"><title>28&#45;&gt;eof_28</title>
<path fill="none" stroke="black" d="M5116.62,-1147.85C5142.43,-1141.08 5183.33,-1131.32 5219.42,-1127 5377.76,-1108.03 5572.62,-1114.48 5620.96,-1116.49"/>
<polygon fill="black" stroke="black" points="5621.03,-1120 5631.17,-1116.95 5621.34,-1113.01 5621.03,-1120"/>
<text text-anchor="middle" x="5351.35" y="-1129.8" font-family="Times,serif" font-size="14.00">EOF / finish_match</text>
</g>
<!-- 28&#45;&gt;28 -->
<g id="edge130" class="edge"><title>28&#45;&gt;28</title>
<path fill="none" stroke="black" d="M5064.98,-1167.58C5046.27,-1182.72 5054.52,-1200.5 5089.74,-1200.5 5119.18,-1200.5 5129.78,-1188.07 5121.54,-1175.15"/>
<polygon fill="black" stroke="black" points="5123.87,-1172.53 5114.51,-1167.58 5118.74,-1177.29 5123.87,-1172.53"/>
<text text-anchor="middle" x="5089.74" y="-1203.3" font-family="Times,serif" font-size="14.00">&#39;\n&#39; / count_line</text>
</g>
<!-- 28&#45;&gt;1 -->
<g id="edge137" class="edge"><title>28&#45;&gt;1</title>
<path fill="none" stroke="black" d="M5062.44,-1151.39C4971.8,-1138.88 4677.5,-1097.83 4670.27,-1091 4642.2,-1064.48 4682.23,-1030.36 4652.27,-1006 4542.19,-916.507 4155.74,-1004.22 4013.88,-1004 3863.42,-1003.76 3825.8,-1002.39 3675.35,-1004 3300.45,-1008 3206.54,-1005.77 2831.98,-1022 2641.36,-1030.26 2594.09,-1039.26 2403.59,-1050 1822.65,-1082.75 1677.73,-1112 1095.86,-1112 433.248,-1112 433.248,-1112 433.248,-1112 341.106,-1112 278.269,-1435.25 260.096,-1541.56"/>
<polygon fill="black" stroke="black" points="256.593,-1541.28 258.382,-1551.72 263.496,-1542.44 256.593,-1541.28"/>
<text text-anchor="middle" x="2197" y="-1072.8" font-family="Times,serif" font-size="14.00">&#39;@&#39;(!qlen_lt, qlen_eq) / finish_match</text>
</g>
<!-- 28&#45;&gt;20 -->
<g id="edge139" class="edge"><title>28&#45;&gt;20</title>
<path fill="none" stroke="black" d="M5108.66,-1134.69C5137.63,-1102.26 5194.07,-1040.92 5219.42,-1026 5324.5,-964.179 5370.32,-996.872 5483.28,-951 5615.15,-897.449 5672.61,-907.142 5765.14,-799 5780.77,-780.736 5766.51,-765.353 5783.14,-748 5855.8,-672.192 5940.07,-744.504 6002.41,-660 6016.91,-640.352 6017.91,-465.287 6020.41,-441 6028.7,-360.586 6041.05,-266.348 6047.68,-217.376"/>
<polygon fill="black" stroke="black" points="6051.16,-217.731 6049.04,-207.351 6044.22,-216.789 6051.16,-217.731"/>
<text text-anchor="middle" x="5633.21" y="-945.8" font-family="Times,serif" font-size="14.00">&#39;A&#39;..&#39;z&#39;(!qlen_lt) / anchor</text>
</g>
<!-- 8 -->
<g id="node19" class="node"><title>8</title>
<ellipse fill="none" stroke="black" cx="1973.66" cy="-624" rx="23.5" ry="23.5"/>
<text text-anchor="middle" x="1973.66" y="-619.8" font-family="Times,serif" font-size="14.00">8</text>
</g>
<!-- 28&#45;&gt;8 -->
<g id="edge133" class="edge"><title>28&#45;&gt;8</title>
<path fill="none" stroke="black" d="M5062.19,-1153.53C4942.64,-1146.88 4442.28,-1118.79 4031.88,-1092 3693.54,-1069.91 3609.7,-1051.27 3270.9,-1038 3151.59,-1033.33 3121.65,-1036 3002.25,-1036 2359.63,-1036 2359.63,-1036 2359.63,-1036 2224.18,-1036 2185.9,-985.815 2094.33,-886 2031.58,-817.599 1996.91,-710.642 1982.59,-657.006"/>
<polygon fill="black" stroke="black" points="1985.9,-655.815 1979.99,-647.016 1979.12,-657.575 1985.9,-655.815"/>
<text text-anchor="middle" x="3229.71" y="-1040.8" font-family="Times,serif" font-size="14.00">&#39;+&#39;(!qlen_lt)</text>
</g>
<!-- 28&#45;&gt;14 -->
<g id="edge132" class="edge"><title>28&#45;&gt;14</title>
<path fill="none" stroke="black" d="M5113.37,-1169.66C5138.25,-1184.95 5179.96,-1208.17 5219.42,-1219 5303.55,-1242.08 5932.13,-1225.32 6002.41,-1277 6031.61,-1298.47 6043.72,-1339.74 6048.73,-1369.2"/>
<polygon fill="black" stroke="black" points="6045.33,-1370.09 6050.28,-1379.46 6052.25,-1369.05 6045.33,-1370.09"/>
<text text-anchor="middle" x="5633.21" y="-1245.8" font-family="Times,serif" font-size="14.00">&#39;!&#39;..&#39;*&#39;(qlen_lt) / anchor, inc_qual_count</text>
</g>
<!-- 28&#45;&gt;14 -->
<g id="edge135" class="edge"><title>28&#45;&gt;14</title>
<path fill="none" stroke="black" d="M5117.34,-1158.06C5143.35,-1161.01 5184.09,-1165.52 5219.42,-1169 5306.37,-1177.55 5934.84,-1185.62 6002.41,-1241 6040.32,-1272.07 6050,-1331.28 6052.14,-1368.87"/>
<polygon fill="black" stroke="black" points="6048.66,-1369.47 6052.57,-1379.32 6055.65,-1369.18 6048.66,-1369.47"/>
<text text-anchor="middle" x="5633.21" y="-1199.8" font-family="Times,serif" font-size="14.00">&#39;,&#39;..&#39;?&#39;(qlen_lt) / anchor, inc_qual_count</text>
</g>
<!-- 28&#45;&gt;14 -->
<g id="edge136" class="edge"><title>28&#45;&gt;14</title>
<path fill="none" stroke="black" d="M5117.25,-1154.23C5260.18,-1150.34 5935.15,-1135.29 6002.41,-1196 6027.83,-1218.94 6042.56,-1317.06 6048.76,-1369.55"/>
<polygon fill="black" stroke="black" points="6045.31,-1370.18 6049.92,-1379.71 6052.27,-1369.38 6045.31,-1370.18"/>
<text text-anchor="middle" x="5633.21" y="-1159.8" font-family="Times,serif" font-size="14.00">&#39;@&#39;(qlen_lt, !qlen_eq) / anchor, inc_qual_count</text>
</g>
<!-- 28&#45;&gt;14 -->
<g id="edge141" class="edge"><title>28&#45;&gt;14</title>
<path fill="none" stroke="black" d="M5098.61,-1181.2C5113.73,-1226.38 5151.5,-1317.93 5219.42,-1358 5357.84,-1439.67 5882.44,-1413.54 6019.39,-1405.15"/>
<polygon fill="black" stroke="black" points="6019.89,-1408.63 6029.65,-1404.51 6019.45,-1401.64 6019.89,-1408.63"/>
<text text-anchor="middle" x="5633.21" y="-1418.8" font-family="Times,serif" font-size="14.00">&#39;{&#39;..&#39;~&#39;(qlen_lt) / anchor, inc_qual_count</text>
</g>
<!-- 28&#45;&gt;15 -->
<g id="edge138" class="edge"><title>28&#45;&gt;15</title>
<path fill="none" stroke="black" d="M5064.17,-1166.03C4998.58,-1195.07 4813.39,-1274.46 4652.27,-1319 4537.38,-1350.76 4505.54,-1344.9 4388.41,-1367 3899.12,-1459.34 3769.83,-1453 3288.9,-1582 3279.91,-1584.41 3270.29,-1587.5 3261.51,-1590.53"/>
<polygon fill="black" stroke="black" points="3260.31,-1587.24 3252.05,-1593.88 3262.64,-1593.84 3260.31,-1587.24"/>
<text text-anchor="middle" x="4201.14" y="-1431.8" font-family="Times,serif" font-size="14.00">&#39;@&#39;(qlen_lt, qlen_eq) / anchor, inc_qual_count, finish_match</text>
</g>
<!-- 28&#45;&gt;17 -->
<g id="edge131" class="edge"><title>28&#45;&gt;17</title>
<path fill="none" stroke="black" d="M5115.32,-1144.14C5140.81,-1133.42 5182.08,-1117.57 5219.42,-1110 5465.1,-1060.17 5532.46,-1091.44 5783.14,-1091 5880.59,-1090.83 5905.13,-1085.17 6002.41,-1091 6008.07,-1091.34 6014.06,-1091.89 6019.86,-1092.53"/>
<polygon fill="black" stroke="black" points="6019.63,-1096.03 6029.98,-1093.74 6020.46,-1089.08 6019.63,-1096.03"/>
<text text-anchor="middle" x="5633.21" y="-1093.8" font-family="Times,serif" font-size="14.00">&#39;\r&#39;</text>
</g>
<!-- 18 -->
<g id="node31" class="node"><title>18</title>
<ellipse fill="none" stroke="black" cx="5633.21" cy="-657" rx="23.5" ry="23.5"/>
<text text-anchor="middle" x="5633.21" y="-652.8" font-family="Times,serif" font-size="14.00">18</text>
</g>
<!-- 28&#45;&gt;18 -->
<g id="edge134" class="edge"><title>28&#45;&gt;18</title>
<path fill="none" stroke="black" d="M5109.4,-1135.25C5134.56,-1107.42 5178.82,-1053.98 5201.42,-1000 5219.37,-957.135 5189.69,-932.72 5219.42,-897 5299.45,-800.845 5377.2,-865.302 5483.28,-799 5535.01,-766.671 5583.98,-714.299 5610.87,-683.002"/>
<polygon fill="black" stroke="black" points="5613.73,-685.035 5617.53,-675.145 5608.4,-680.507 5613.73,-685.035"/>
<text text-anchor="middle" x="5351.35" y="-899.8" font-family="Times,serif" font-size="14.00">&#39;+&#39;(qlen_lt) / anchor, inc_qual_count</text>
</g>
<!-- 28&#45;&gt;21 -->
<g id="edge140" class="edge"><title>28&#45;&gt;21</title>
<path fill="none" stroke="black" d="M5103.19,-1179.24C5122.61,-1214.07 5163.75,-1276.98 5219.42,-1303 5349.39,-1363.75 5528.47,-1334.4 5600.41,-1318.7"/>
<polygon fill="black" stroke="black" points="5601.24,-1322.1 5610.23,-1316.49 5599.7,-1315.27 5601.24,-1322.1"/>
<text text-anchor="middle" x="5351.35" y="-1342.8" font-family="Times,serif" font-size="14.00">&#39;A&#39;..&#39;z&#39;(qlen_lt) / anchor, inc_qual_count</text>
</g>
<!-- 2 -->
<g id="node11" class="node"><title>2</title>
<ellipse fill="none" stroke="black" cx="434.248" cy="-1612" rx="23.5" ry="23.5"/>
<text text-anchor="middle" x="434.248" y="-1607.8" font-family="Times,serif" font-size="14.00">2</text>
</g>
<!-- 1&#45;&gt;2 -->
<g id="edge1" class="edge"><title>1&#45;&gt;2</title>
<path fill="none" stroke="black" d="M275.188,-1564.53C281.441,-1561.86 288.444,-1559.35 295.172,-1558 337.686,-1549.44 353.96,-1538.61 392.748,-1558 403.261,-1563.26 411.753,-1572.68 418.194,-1582.2"/>
<polygon fill="black" stroke="black" points="415.303,-1584.19 423.531,-1590.86 421.261,-1580.51 415.303,-1584.19"/>
<text text-anchor="middle" x="343.96" y="-1560.8" font-family="Times,serif" font-size="14.00">&#45;128..&#39;\b&#39; / anchor</text>
</g>
<!-- 1&#45;&gt;2 -->
<g id="edge2" class="edge"><title>1&#45;&gt;2</title>
<path fill="none" stroke="black" d="M269.944,-1592.09C276.915,-1598.66 285.721,-1605.44 295.172,-1609 329.396,-1621.88 371.85,-1620.48 400.579,-1617.24"/>
<polygon fill="black" stroke="black" points="401.392,-1620.67 410.873,-1615.94 400.512,-1613.72 401.392,-1620.67"/>
<text text-anchor="middle" x="343.96" y="-1622.8" font-family="Times,serif" font-size="14.00">14..31 / anchor</text>
</g>
<!-- 1&#45;&gt;2 -->
<g id="edge3" class="edge"><title>1&#45;&gt;2</title>
<path fill="none" stroke="black" d="M277.179,-1575.13C304.937,-1575.85 353.288,-1578.93 392.748,-1591 396.642,-1592.19 400.605,-1593.75 404.452,-1595.48"/>
<polygon fill="black" stroke="black" points="403.156,-1598.75 413.673,-1600.03 406.253,-1592.47 403.156,-1598.75"/>
<text text-anchor="middle" x="343.96" y="-1593.8" font-family="Times,serif" font-size="14.00">&#39;!&#39;..127 / anchor</text>
</g>
<!-- 2&#45;&gt;2 -->
<g id="edge4" class="edge"><title>2&#45;&gt;2</title>
<path fill="none" stroke="black" d="M429.308,-1635.05C428.904,-1644.99 430.551,-1653.5 434.248,-1653.5 436.56,-1653.5 438.07,-1650.17 438.778,-1645.25"/>
<polygon fill="black" stroke="black" points="442.284,-1645.18 439.189,-1635.05 435.29,-1644.9 442.284,-1645.18"/>
<text text-anchor="middle" x="434.248" y="-1656.3" font-family="Times,serif" font-size="14.00">&#45;128..&#39;\b&#39;</text>
</g>
<!-- 2&#45;&gt;2 -->
<g id="edge9" class="edge"><title>2&#45;&gt;2</title>
<path fill="none" stroke="black" d="M425.774,-1633.97C422.153,-1652.32 424.978,-1671.5 434.248,-1671.5 441.781,-1671.5 445.058,-1658.84 444.08,-1644.25"/>
<polygon fill="black" stroke="black" points="447.502,-1643.43 442.723,-1633.97 440.562,-1644.34 447.502,-1643.43"/>
<text text-anchor="middle" x="434.248" y="-1674.3" font-family="Times,serif" font-size="14.00">14..31</text>
</g>
<!-- 2&#45;&gt;2 -->
<g id="edge11" class="edge"><title>2&#45;&gt;2</title>
<path fill="none" stroke="black" d="M423.607,-1633.03C415.311,-1658.9 418.858,-1689.5 434.248,-1689.5 447.715,-1689.5 452.114,-1666.08 447.446,-1642.88"/>
<polygon fill="black" stroke="black" points="450.788,-1641.83 444.89,-1633.03 444.012,-1643.59 450.788,-1641.83"/>
<text text-anchor="middle" x="434.248" y="-1692.3" font-family="Times,serif" font-size="14.00">&#39;!&#39;..127</text>
</g>
<!-- 3 -->
<g id="node12" class="node"><title>3</title>
<ellipse fill="none" stroke="black" cx="594.618" cy="-1439" rx="23.5" ry="23.5"/>
<text text-anchor="middle" x="594.618" y="-1434.8" font-family="Times,serif" font-size="14.00">3</text>
</g>
<!-- 2&#45;&gt;3 -->
<g id="edge5" class="edge"><title>2&#45;&gt;3</title>
<path fill="none" stroke="black" d="M438.362,-1588.74C442.768,-1564.03 452.988,-1525.14 475.748,-1500 501.333,-1471.75 519.496,-1480.96 553.118,-1463 557.119,-1460.86 561.289,-1458.52 565.366,-1456.17"/>
<polygon fill="black" stroke="black" points="567.194,-1459.16 574.043,-1451.07 563.648,-1453.12 567.194,-1459.16"/>
<text text-anchor="middle" x="514.433" y="-1502.8" font-family="Times,serif" font-size="14.00">&#39;\t&#39; / identifier</text>
</g>
<!-- 2&#45;&gt;3 -->
<g id="edge7" class="edge"><title>2&#45;&gt;3</title>
<path fill="none" stroke="black" d="M437.512,-1588.68C442.063,-1547.19 453.809,-1463.18 475.748,-1445 499.324,-1425.47 535.531,-1426.69 561.595,-1431.1"/>
<polygon fill="black" stroke="black" points="561.248,-1434.59 571.73,-1433.05 562.574,-1427.72 561.248,-1434.59"/>
<text text-anchor="middle" x="514.433" y="-1447.8" font-family="Times,serif" font-size="14.00">&#39;\v&#39; / identifier</text>
</g>
<!-- 2&#45;&gt;3 -->
<g id="edge10" class="edge"><title>2&#45;&gt;3</title>
<path fill="none" stroke="black" d="M447.506,-1592.34C454.821,-1581.64 464.803,-1568.65 475.748,-1559 505.588,-1532.69 525.438,-1542.57 553.118,-1514 565.196,-1501.53 574.709,-1484.74 581.472,-1470.21"/>
<polygon fill="black" stroke="black" points="584.677,-1471.62 585.518,-1461.05 578.274,-1468.79 584.677,-1471.62"/>
<text text-anchor="middle" x="514.433" y="-1561.8" font-family="Times,serif" font-size="14.00">SP / identifier</text>
</g>
<!-- 5 -->
<g id="node13" class="node"><title>5</title>
<ellipse fill="none" stroke="black" cx="1397.02" cy="-509" rx="23.5" ry="23.5"/>
<text text-anchor="middle" x="1397.02" y="-504.8" font-family="Times,serif" font-size="14.00">5</text>
</g>
<!-- 2&#45;&gt;5 -->
<g id="edge6" class="edge"><title>2&#45;&gt;5</title>
<path fill="none" stroke="black" d="M437.016,-1588.51C440.478,-1552.01 450.193,-1480.16 475.748,-1425 524.97,-1318.77 543.526,-1287.66 636.118,-1216 680.24,-1181.85 700.199,-1188.48 751.694,-1167 823.037,-1137.25 838.406,-1122.67 912.606,-1101 1025.25,-1068.11 1076.37,-1121.41 1172.43,-1054 1348.72,-930.296 1386.27,-641.346 1394.05,-542.702"/>
<polygon fill="black" stroke="black" points="1397.54,-542.924 1394.79,-532.694 1390.56,-542.41 1397.54,-542.924"/>
<text text-anchor="middle" x="823.15" y="-1169.8" font-family="Times,serif" font-size="14.00">&#39;\n&#39; / identifier, count_line</text>
</g>
<!-- 24 -->
<g id="node14" class="node"><title>24</title>
<ellipse fill="none" stroke="black" cx="1094.86" cy="-1022" rx="23.5" ry="23.5"/>
<text text-anchor="middle" x="1094.86" y="-1017.8" font-family="Times,serif" font-size="14.00">24</text>
</g>
<!-- 2&#45;&gt;24 -->
<g id="edge8" class="edge"><title>2&#45;&gt;24</title>
<path fill="none" stroke="black" d="M436.136,-1588.46C439.407,-1507.11 451.848,-1241.26 475.748,-1212 627.346,-1026.42 955.848,-1018.22 1060.87,-1020.62"/>
<polygon fill="black" stroke="black" points="1061.07,-1024.13 1071.16,-1020.91 1061.26,-1017.13 1061.07,-1024.13"/>
<text text-anchor="middle" x="684.906" y="-1095.8" font-family="Times,serif" font-size="14.00">&#39;\r&#39; / identifier</text>
</g>
<!-- 3&#45;&gt;3 -->
<g id="edge13" class="edge"><title>3&#45;&gt;3</title>
<path fill="none" stroke="black" d="M589.677,-1462.05C589.273,-1471.99 590.92,-1480.5 594.618,-1480.5 596.929,-1480.5 598.439,-1477.17 599.147,-1472.25"/>
<polygon fill="black" stroke="black" points="602.653,-1472.18 599.558,-1462.05 595.659,-1471.9 602.653,-1472.18"/>
<text text-anchor="middle" x="594.618" y="-1483.3" font-family="Times,serif" font-size="14.00">&#39;\t&#39;</text>
</g>
<!-- 3&#45;&gt;3 -->
<g id="edge14" class="edge"><title>3&#45;&gt;3</title>
<path fill="none" stroke="black" d="M586.143,-1460.97C582.522,-1479.32 585.347,-1498.5 594.618,-1498.5 602.15,-1498.5 605.427,-1485.84 604.449,-1471.25"/>
<polygon fill="black" stroke="black" points="607.871,-1470.43 603.092,-1460.97 600.931,-1471.34 607.871,-1470.43"/>
<text text-anchor="middle" x="594.618" y="-1501.3" font-family="Times,serif" font-size="14.00">&#39;\v&#39;</text>
</g>
<!-- 3&#45;&gt;3 -->
<g id="edge16" class="edge"><title>3&#45;&gt;3</title>
<path fill="none" stroke="black" d="M583.976,-1460.03C575.68,-1485.9 579.227,-1516.5 594.618,-1516.5 608.084,-1516.5 612.483,-1493.08 607.815,-1469.88"/>
<polygon fill="black" stroke="black" points="611.157,-1468.83 605.259,-1460.03 604.381,-1470.59 611.157,-1468.83"/>
<text text-anchor="middle" x="594.618" y="-1519.3" font-family="Times,serif" font-size="14.00">SP</text>
</g>
<!-- 4 -->
<g id="node15" class="node"><title>4</title>
<ellipse fill="none" stroke="black" cx="823.15" cy="-1214" rx="23.5" ry="23.5"/>
<text text-anchor="middle" x="823.15" y="-1209.8" font-family="Times,serif" font-size="14.00">4</text>
</g>
<!-- 3&#45;&gt;4 -->
<g id="edge12" class="edge"><title>3&#45;&gt;4</title>
<path fill="none" stroke="black" d="M605.155,-1417.85C612.422,-1403.02 623.336,-1383.21 636.118,-1368 661.585,-1337.69 750.698,-1268.31 795.709,-1233.98"/>
<polygon fill="black" stroke="black" points="797.993,-1236.64 803.833,-1227.8 793.755,-1231.07 797.993,-1236.64"/>
<text text-anchor="middle" x="684.906" y="-1370.8" font-family="Times,serif" font-size="14.00">&#45;128..&#39;\b&#39; / anchor</text>
</g>
<!-- 3&#45;&gt;4 -->
<g id="edge15" class="edge"><title>3&#45;&gt;4</title>
<path fill="none" stroke="black" d="M598.143,-1415.65C603.157,-1373.55 615.682,-1287.33 636.118,-1266 676.459,-1223.9 747.813,-1215 789.446,-1213.62"/>
<polygon fill="black" stroke="black" points="789.676,-1217.12 799.603,-1213.42 789.534,-1210.12 789.676,-1217.12"/>
<text text-anchor="middle" x="684.906" y="-1268.8" font-family="Times,serif" font-size="14.00">14..31 / anchor</text>
</g>
<!-- 3&#45;&gt;4 -->
<g id="edge17" class="edge"><title>3&#45;&gt;4</title>
<path fill="none" stroke="black" d="M613.901,-1425.18C620.634,-1420.54 628.483,-1415.62 636.118,-1412 677.106,-1392.55 698.766,-1410.96 733.694,-1382 776.604,-1346.42 801.422,-1284.54 813.325,-1246.63"/>
<polygon fill="black" stroke="black" points="816.809,-1247.2 816.345,-1236.62 810.107,-1245.18 816.809,-1247.2"/>
<text text-anchor="middle" x="684.906" y="-1414.8" font-family="Times,serif" font-size="14.00">&#39;!&#39;..127 / anchor</text>
</g>
<!-- 6 -->
<g id="node16" class="node"><title>6</title>
<ellipse fill="none" stroke="black" cx="1687.2" cy="-203" rx="23.5" ry="23.5"/>
<text text-anchor="middle" x="1687.2" y="-198.8" font-family="Times,serif" font-size="14.00">6</text>
</g>
<!-- 5&#45;&gt;6 -->
<g id="edge23" class="edge"><title>5&#45;&gt;6</title>
<path fill="none" stroke="black" d="M1413.92,-492.112C1462.14,-440.911 1606.84,-287.266 1663.29,-227.325"/>
<polygon fill="black" stroke="black" points="1666.04,-229.515 1670.35,-219.836 1660.94,-224.716 1666.04,-229.515"/>
<text text-anchor="middle" x="1560.65" y="-377.8" font-family="Times,serif" font-size="14.00">&#39;\n&#39; / count_line</text>
</g>
<!-- 7 -->
<g id="node17" class="node"><title>7</title>
<ellipse fill="none" stroke="black" cx="6275.84" cy="-89" rx="23.5" ry="23.5"/>
<text text-anchor="middle" x="6275.84" y="-84.8" font-family="Times,serif" font-size="14.00">7</text>
</g>
<!-- 5&#45;&gt;7 -->
<g id="edge24" class="edge"><title>5&#45;&gt;7</title>
<path fill="none" stroke="black" d="M1397.47,-485.463C1397.06,-413.354 1405.5,-192.772 1517.69,-67 1571.34,-6.8556 1605.61,-0 1686.2,-0 1686.2,-0 1686.2,-0 6054.26,-0 6128.55,-0 6207.35,-43.9487 6247.65,-70.0794"/>
<polygon fill="black" stroke="black" points="6245.84,-73.0789 6256.11,-75.6758 6249.7,-67.2402 6245.84,-73.0789"/>
<text text-anchor="middle" x="3398.54" y="-2.8" font-family="Times,serif" font-size="14.00">&#39;\r&#39;</text>
</g>
<!-- 5&#45;&gt;20 -->
<g id="edge25" class="edge"><title>5&#45;&gt;20</title>
<path fill="none" stroke="black" d="M1400.93,-485.722C1414.08,-391.834 1476.72,-46 1686.2,-46 1686.2,-46 1686.2,-46 3592.76,-46 4144,-46 4282.03,-55.0311 4832.39,-86 5304.8,-112.582 5878.44,-167.078 6019.68,-180.806"/>
<polygon fill="black" stroke="black" points="6019.54,-184.308 6029.83,-181.795 6020.22,-177.341 6019.54,-184.308"/>
<text text-anchor="middle" x="3229.71" y="-48.8" font-family="Times,serif" font-size="14.00">&#39;A&#39;..&#39;z&#39; / anchor</text>
</g>
<!-- 24&#45;&gt;5 -->
<g id="edge108" class="edge"><title>24&#45;&gt;5</title>
<path fill="none" stroke="black" d="M1107.63,-1001.89C1154.05,-922.55 1324.61,-631.051 1379.14,-537.855"/>
<polygon fill="black" stroke="black" points="1382.31,-539.37 1384.34,-528.971 1376.26,-535.835 1382.31,-539.37"/>
<text text-anchor="middle" x="1233.39" y="-859.8" font-family="Times,serif" font-size="14.00">&#39;\n&#39; / count_line</text>
</g>
<!-- 4&#45;&gt;5 -->
<g id="edge19" class="edge"><title>4&#45;&gt;5</title>
<path fill="none" stroke="black" d="M846.852,-1214.37C920.961,-1214.28 1157.83,-1203.37 1276.35,-1073 1348.51,-993.615 1383.73,-651.724 1393.28,-542.608"/>
<polygon fill="black" stroke="black" points="1396.78,-542.763 1394.15,-532.5 1389.81,-542.163 1396.78,-542.763"/>
<text text-anchor="middle" x="1094.86" y="-1200.8" font-family="Times,serif" font-size="14.00">&#39;\n&#39; / description, count_line</text>
</g>
<!-- 4&#45;&gt;24 -->
<g id="edge21" class="edge"><title>4&#45;&gt;24</title>
<path fill="none" stroke="black" d="M845.451,-1206.08C860.502,-1199.69 880.436,-1189.54 894.606,-1176 905.85,-1165.26 901.943,-1157.32 912.606,-1146 936.883,-1120.23 1021.32,-1066.6 1065.86,-1039.09"/>
<polygon fill="black" stroke="black" points="1067.78,-1042.01 1074.47,-1033.79 1064.11,-1036.05 1067.78,-1042.01"/>
<text text-anchor="middle" x="955.953" y="-1148.8" font-family="Times,serif" font-size="14.00">&#39;\r&#39; / description</text>
</g>
<!-- 4&#45;&gt;4 -->
<g id="edge18" class="edge"><title>4&#45;&gt;4</title>
<path fill="none" stroke="black" d="M815.063,-1236.2C814.181,-1246.5 816.876,-1255.5 823.15,-1255.5 827.169,-1255.5 829.719,-1251.81 830.802,-1246.44"/>
<polygon fill="black" stroke="black" points="834.309,-1246.34 831.237,-1236.2 827.315,-1246.04 834.309,-1246.34"/>
<text text-anchor="middle" x="823.15" y="-1258.3" font-family="Times,serif" font-size="14.00">&#45;128..&#39;\t&#39;</text>
</g>
<!-- 4&#45;&gt;4 -->
<g id="edge20" class="edge"><title>4&#45;&gt;4</title>
<path fill="none" stroke="black" d="M809.922,-1233.81C802.842,-1252.78 807.251,-1273.5 823.15,-1273.5 836.316,-1273.5 841.602,-1259.29 839.01,-1243.63"/>
<polygon fill="black" stroke="black" points="842.347,-1242.56 836.378,-1233.81 835.585,-1244.37 842.347,-1242.56"/>
<text text-anchor="middle" x="823.15" y="-1276.3" font-family="Times,serif" font-size="14.00">&#39;\v&#39;..&#39;\f&#39;</text>
</g>
<!-- 4&#45;&gt;4 -->
<g id="edge22" class="edge"><title>4&#45;&gt;4</title>
<path fill="none" stroke="black" d="M807.356,-1231.9C791.46,-1258.37 796.724,-1291.5 823.15,-1291.5 846.582,-1291.5 853.376,-1265.45 843.531,-1241.1"/>
<polygon fill="black" stroke="black" points="846.54,-1239.29 838.943,-1231.9 840.277,-1242.41 846.54,-1239.29"/>
<text text-anchor="middle" x="823.15" y="-1294.3" font-family="Times,serif" font-size="14.00">14..127</text>
</g>
<!-- 6&#45;&gt;6 -->
<g id="edge26" class="edge"><title>6&#45;&gt;6</title>
<path fill="none" stroke="black" d="M1668.09,-217.461C1658.79,-230.516 1665.16,-244.5 1687.2,-244.5 1703.9,-244.5 1711.61,-236.469 1710.31,-226.898"/>
<polygon fill="black" stroke="black" points="1713.44,-225.304 1706.31,-217.461 1706.99,-228.034 1713.44,-225.304"/>
<text text-anchor="middle" x="1687.2" y="-247.3" font-family="Times,serif" font-size="14.00">&#39;\n&#39; / count_line</text>
</g>
<!-- 6&#45;&gt;7 -->
<g id="edge27" class="edge"><title>6&#45;&gt;7</title>
<path fill="none" stroke="black" d="M1709.63,-195.15C1756.6,-178.675 1872.4,-142 1972.66,-142 1972.66,-142 1972.66,-142 3399.54,-142 4569.85,-142 6007.64,-97.5648 6241.9,-90.0679"/>
<polygon fill="black" stroke="black" points="6242.25,-93.5583 6252.13,-89.7391 6242.03,-86.5619 6242.25,-93.5583"/>
<text text-anchor="middle" x="3591.76" y="-144.8" font-family="Times,serif" font-size="14.00">&#39;\r&#39;</text>
</g>
<!-- 6&#45;&gt;20 -->
<g id="edge29" class="edge"><title>6&#45;&gt;20</title>
<path fill="none" stroke="black" d="M1710.66,-200.477C1758.68,-195.309 1874.9,-184 1972.66,-184 1972.66,-184 1972.66,-184 5634.21,-184 5777.8,-184 5949.13,-184 6019.57,-184"/>
<polygon fill="black" stroke="black" points="6019.6,-187.5 6029.6,-184 6019.6,-180.5 6019.6,-187.5"/>
<text text-anchor="middle" x="3398.54" y="-186.8" font-family="Times,serif" font-size="14.00">&#39;A&#39;..&#39;z&#39; / anchor</text>
</g>
<!-- 6&#45;&gt;8 -->
<g id="edge28" class="edge"><title>6&#45;&gt;8</title>
<path fill="none" stroke="black" d="M1701.16,-222.183C1746.79,-289.715 1900.13,-516.656 1953.86,-596.183"/>
<polygon fill="black" stroke="black" points="1951.12,-598.377 1959.62,-604.704 1956.92,-594.458 1951.12,-598.377"/>
<text text-anchor="middle" x="1811.89" y="-441.8" font-family="Times,serif" font-size="14.00">&#39;+&#39;</text>
</g>
<!-- 7&#45;&gt;6 -->
<g id="edge30" class="edge"><title>7&#45;&gt;6</title>
<path fill="none" stroke="black" d="M6252.15,-87.6815C6246.34,-87.3988 6240.11,-87.1424 6234.34,-87 6176.48,-85.5721 6161.99,-86.9424 6104.1,-87 4987.95,-88.1111 4708.92,-92 3592.76,-92 1972.66,-92 1972.66,-92 1972.66,-92 1872.1,-92 1764.38,-152.946 1715.33,-184.518"/>
<polygon fill="black" stroke="black" points="1713.32,-181.648 1706.86,-190.05 1717.15,-187.507 1713.32,-181.648"/>
<text text-anchor="middle" x="3591.76" y="-94.8" font-family="Times,serif" font-size="14.00">&#39;\n&#39; / count_line</text>
</g>
<!-- 20&#45;&gt;6 -->
<g id="edge97" class="edge"><title>20&#45;&gt;6</title>
<path fill="none" stroke="black" d="M6030.65,-191.132C6021.96,-193.717 6011.8,-196.393 6002.41,-198 5840.77,-225.655 5798.2,-222 5634.21,-222 1972.66,-222 1972.66,-222 1972.66,-222 1881.2,-222 1773.58,-212.102 1720.77,-206.594"/>
<polygon fill="black" stroke="black" points="1720.97,-203.096 1710.66,-205.523 1720.24,-210.057 1720.97,-203.096"/>
<text text-anchor="middle" x="3398.54" y="-224.8" font-family="Times,serif" font-size="14.00">&#39;\n&#39; / letters, count_line</text>
</g>
<!-- 20&#45;&gt;7 -->
<g id="edge98" class="edge"><title>20&#45;&gt;7</title>
<path fill="none" stroke="black" d="M6076.36,-179.064C6111.4,-170.666 6181.17,-151.576 6234.34,-122 6239.73,-119.006 6245.1,-115.278 6250.1,-111.417"/>
<polygon fill="black" stroke="black" points="6252.55,-113.935 6258.08,-104.898 6248.12,-108.514 6252.55,-113.935"/>
<text text-anchor="middle" x="6169.22" y="-174.8" font-family="Times,serif" font-size="14.00">&#39;\r&#39; / letters</text>
</g>
<!-- 20&#45;&gt;20 -->
<g id="edge99" class="edge"><title>20&#45;&gt;20</title>
<path fill="none" stroke="black" d="M6035.14,-199.323C6027.4,-212.124 6033.44,-225.5 6053.26,-225.5 6068.12,-225.5 6075.23,-217.976 6074.59,-208.814"/>
<polygon fill="black" stroke="black" points="6077.9,-207.667 6071.37,-199.323 6071.27,-209.918 6077.9,-207.667"/>
<text text-anchor="middle" x="6053.26" y="-228.3" font-family="Times,serif" font-size="14.00">&#39;A&#39;..&#39;z&#39;</text>
</g>
<!-- 9 -->
<g id="node20" class="node"><title>9</title>
<ellipse fill="none" stroke="black" cx="2360.63" cy="-550" rx="23.5" ry="23.5"/>
<text text-anchor="middle" x="2360.63" y="-545.8" font-family="Times,serif" font-size="14.00">9</text>
</g>
<!-- 8&#45;&gt;9 -->
<g id="edge31" class="edge"><title>8&#45;&gt;9</title>
<path fill="none" stroke="black" d="M1997.03,-627.188C2051.35,-633.951 2193.53,-645.755 2299.67,-602 2314.02,-596.084 2327.36,-585.305 2337.79,-575.088"/>
<polygon fill="black" stroke="black" points="2340.38,-577.437 2344.84,-567.826 2335.36,-572.559 2340.38,-577.437"/>
<text text-anchor="middle" x="2197" y="-636.8" font-family="Times,serif" font-size="14.00">&#45;128..&#39;\b&#39; / anchor</text>
</g>
<!-- 8&#45;&gt;9 -->
<g id="edge34" class="edge"><title>8&#45;&gt;9</title>
<path fill="none" stroke="black" d="M1995.86,-615.252C2019.47,-605.909 2058.96,-591.444 2094.33,-584 2184.02,-565.125 2209.32,-580.389 2299.67,-565 2308.97,-563.416 2318.96,-561.151 2328.06,-558.859"/>
<polygon fill="black" stroke="black" points="2329.08,-562.209 2337.88,-556.296 2327.32,-555.436 2329.08,-562.209"/>
<text text-anchor="middle" x="2197" y="-586.8" font-family="Times,serif" font-size="14.00">14..31 / anchor</text>
</g>
<!-- 8&#45;&gt;9 -->
<g id="edge35" class="edge"><title>8&#45;&gt;9</title>
<path fill="none" stroke="black" d="M1991.69,-608.44C2013.55,-589.623 2053.56,-558.983 2094.33,-547 2175.4,-523.171 2276.52,-535.035 2327.32,-543.672"/>
<polygon fill="black" stroke="black" points="2326.92,-547.155 2337.37,-545.453 2328.14,-540.262 2326.92,-547.155"/>
<text text-anchor="middle" x="2197" y="-549.8" font-family="Times,serif" font-size="14.00">&#39;!&#39;..127 / anchor</text>
</g>
<!-- 12 -->
<g id="node21" class="node"><title>12</title>
<ellipse fill="none" stroke="black" cx="2613.56" cy="-878" rx="23.5" ry="23.5"/>
<text text-anchor="middle" x="2613.56" y="-873.8" font-family="Times,serif" font-size="14.00">12</text>
</g>
<!-- 8&#45;&gt;12 -->
<g id="edge32" class="edge"><title>8&#45;&gt;12</title>
<path fill="none" stroke="black" d="M1979.72,-646.923C1991.16,-692.685 2023.72,-794.841 2094.33,-840 2251.91,-940.788 2494.2,-903.236 2580.6,-885.324"/>
<polygon fill="black" stroke="black" points="2581.53,-888.705 2590.58,-883.197 2580.07,-881.858 2581.53,-888.705"/>
<text text-anchor="middle" x="2360.63" y="-910.8" font-family="Times,serif" font-size="14.00">&#39;\n&#39; / count_line</text>
</g>
<!-- 23 -->
<g id="node22" class="node"><title>23</title>
<ellipse fill="none" stroke="black" cx="6633.11" cy="-705" rx="23.5" ry="23.5"/>
<text text-anchor="middle" x="6633.11" y="-700.8" font-family="Times,serif" font-size="14.00">23</text>
</g>
<!-- 8&#45;&gt;23 -->
<g id="edge33" class="edge"><title>8&#45;&gt;23</title>
<path fill="none" stroke="black" d="M1991.04,-640.189C2041.36,-688.123 2200,-826 2359.63,-826 2359.63,-826 2359.63,-826 4521.34,-826 4667.91,-826 4703.98,-841.125 4850.39,-848 5014.29,-855.696 5055.36,-855.778 5219.42,-858 5336.68,-859.588 5376.74,-907.003 5483.28,-858 5494.45,-852.863 5490.18,-842.27 5501.28,-837 5568.25,-805.221 6094.1,-821 6168.22,-821 6168.22,-821 6168.22,-821 6457.42,-821 6524.08,-821 6539.43,-795.479 6591.61,-754 6599.35,-747.847 6606.64,-740 6612.83,-732.397"/>
<polygon fill="black" stroke="black" points="6615.73,-734.378 6619.1,-724.335 6610.2,-730.08 6615.73,-734.378"/>
<text text-anchor="middle" x="4520.34" y="-828.8" font-family="Times,serif" font-size="14.00">&#39;\r&#39;</text>
</g>
<!-- 9&#45;&gt;9 -->
<g id="edge36" class="edge"><title>9&#45;&gt;9</title>
<path fill="none" stroke="black" d="M2352.3,-572.202C2351.39,-582.501 2354.17,-591.5 2360.63,-591.5 2364.77,-591.5 2367.4,-587.807 2368.52,-582.445"/>
<polygon fill="black" stroke="black" points="2372.02,-582.345 2368.97,-572.202 2365.03,-582.039 2372.02,-582.345"/>
<text text-anchor="middle" x="2360.63" y="-594.3" font-family="Times,serif" font-size="14.00">&#45;128..&#39;\b&#39;</text>
</g>
<!-- 9&#45;&gt;9 -->
<g id="edge41" class="edge"><title>9&#45;&gt;9</title>
<path fill="none" stroke="black" d="M2347.12,-569.502C2339.66,-588.56 2344.16,-609.5 2360.63,-609.5 2374.27,-609.5 2379.7,-595.14 2376.93,-579.38"/>
<polygon fill="black" stroke="black" points="2380.23,-578.175 2374.14,-569.502 2373.49,-580.077 2380.23,-578.175"/>
<text text-anchor="middle" x="2360.63" y="-612.3" font-family="Times,serif" font-size="14.00">14..31</text>
</g>
<!-- 9&#45;&gt;9 -->
<g id="edge43" class="edge"><title>9&#45;&gt;9</title>
<path fill="none" stroke="black" d="M2344.6,-567.516C2327.93,-594.045 2333.27,-627.5 2360.63,-627.5 2385,-627.5 2391.9,-600.963 2381.34,-576.416"/>
<polygon fill="black" stroke="black" points="2384.42,-574.738 2376.66,-567.516 2378.22,-577.996 2384.42,-574.738"/>
<text text-anchor="middle" x="2360.63" y="-630.3" font-family="Times,serif" font-size="14.00">&#39;!&#39;..127</text>
</g>
<!-- 9&#45;&gt;12 -->
<g id="edge38" class="edge"><title>9&#45;&gt;12</title>
<path fill="none" stroke="black" d="M2362.73,-573.68C2365.78,-615.496 2377.41,-703.343 2421.59,-760 2469.1,-820.914 2507.82,-804.101 2572.06,-847 2576.85,-850.196 2581.81,-853.768 2586.56,-857.318"/>
<polygon fill="black" stroke="black" points="2584.71,-860.31 2594.78,-863.6 2588.96,-854.748 2584.71,-860.31"/>
<text text-anchor="middle" x="2496.83" y="-849.8" font-family="Times,serif" font-size="14.00">&#39;\n&#39; / identifier2, count_line</text>
</g>
<!-- 9&#45;&gt;23 -->
<g id="edge40" class="edge"><title>9&#45;&gt;23</title>
<path fill="none" stroke="black" d="M2364.1,-526.35C2370.44,-470.271 2389.1,-331.568 2421.59,-300 2483.79,-239.576 2525.84,-260 2612.56,-260 2612.56,-260 2612.56,-260 3845.61,-260 4316.12,-260 4433.72,-268 4904.23,-268 4904.23,-268 4904.23,-268 6457.42,-268 6544.32,-268 6607.42,-569.735 6626.27,-671.755"/>
<polygon fill="black" stroke="black" points="6622.87,-672.604 6628.11,-681.814 6629.76,-671.348 6622.87,-672.604"/>
<text text-anchor="middle" x="4751.33" y="-270.8" font-family="Times,serif" font-size="14.00">&#39;\r&#39; / identifier2</text>
</g>
<!-- 10 -->
<g id="node23" class="node"><title>10</title>
<ellipse fill="none" stroke="black" cx="6275.84" cy="-501" rx="23.5" ry="23.5"/>
<text text-anchor="middle" x="6275.84" y="-496.8" font-family="Times,serif" font-size="14.00">10</text>
</g>
<!-- 9&#45;&gt;10 -->
<g id="edge37" class="edge"><title>9&#45;&gt;10</title>
<path fill="none" stroke="black" d="M2384.47,-550C2428.56,-550 2528.48,-550 2612.56,-550 2612.56,-550 2612.56,-550 3399.54,-550 3897.24,-550 4021.64,-558 4519.34,-558 4519.34,-558 4519.34,-558 6054.26,-558 6135.63,-558 6158.13,-553.52 6234.34,-525 6238.68,-523.377 6243.08,-521.297 6247.31,-519.041"/>
<polygon fill="black" stroke="black" points="6249.26,-521.956 6256.18,-513.933 6245.76,-515.89 6249.26,-521.956"/>
<text text-anchor="middle" x="4201.14" y="-560.8" font-family="Times,serif" font-size="14.00">&#39;\t&#39; / identifier2</text>
</g>
<!-- 9&#45;&gt;10 -->
<g id="edge39" class="edge"><title>9&#45;&gt;10</title>
<path fill="none" stroke="black" d="M2363.51,-526.621C2367.62,-491.68 2380.66,-426.286 2421.59,-392 2487.81,-336.544 2526.19,-356 2612.56,-356 2612.56,-356 2612.56,-356 6054.26,-356 6142.2,-356 6167.84,-380.45 6234.34,-438 6244.82,-447.064 6253.59,-459.493 6260.26,-470.917"/>
<polygon fill="black" stroke="black" points="6257.25,-472.716 6265.15,-479.78 6263.38,-469.334 6257.25,-472.716"/>
<text text-anchor="middle" x="4201.14" y="-358.8" font-family="Times,serif" font-size="14.00">&#39;\v&#39; / identifier2</text>
</g>
<!-- 9&#45;&gt;10 -->
<g id="edge42" class="edge"><title>9&#45;&gt;10</title>
<path fill="none" stroke="black" d="M2361.45,-526.225C2362.49,-484.068 2371.02,-396.222 2421.59,-349 2485.18,-289.623 2525.56,-306 2612.56,-306 2612.56,-306 2612.56,-306 3845.61,-306 4316.11,-306 4433.73,-310 4904.23,-310 4904.23,-310 4904.23,-310 6054.26,-310 6136.87,-310 6175.28,-298.242 6234.34,-356 6264.19,-385.187 6272.56,-434.394 6274.63,-467.281"/>
<polygon fill="black" stroke="black" points="6271.14,-467.513 6275.1,-477.338 6278.13,-467.185 6271.14,-467.513"/>
<text text-anchor="middle" x="4201.14" y="-310.8" font-family="Times,serif" font-size="14.00">SP / identifier2</text>
</g>
<!-- 12&#45;&gt;26 -->
<g id="edge55" class="edge"><title>12&#45;&gt;26</title>
<path fill="none" stroke="black" d="M2622.35,-900.054C2649.44,-976.779 2739.74,-1232.48 2773.02,-1326.73"/>
<polygon fill="black" stroke="black" points="2769.8,-1328.1 2776.43,-1336.37 2776.4,-1325.77 2769.8,-1328.1"/>
<text text-anchor="middle" x="2698.02" y="-1235.8" font-family="Times,serif" font-size="14.00">&#39;\n&#39; / count_line</text>
</g>
<!-- 12&#45;&gt;13 -->
<g id="edge56" class="edge"><title>12&#45;&gt;13</title>
<path fill="none" stroke="black" d="M2636.55,-883.09C2668.96,-890.135 2731.54,-902 2785.48,-902 2785.48,-902 2785.48,-902 3845.61,-902 4573.49,-902 4755.65,-895.254 5483.28,-914 5777.76,-921.587 6133.46,-940.972 6241.9,-947.108"/>
<polygon fill="black" stroke="black" points="6242,-950.619 6252.19,-947.692 6242.4,-943.63 6242,-950.619"/>
<text text-anchor="middle" x="4520.34" y="-904.8" font-family="Times,serif" font-size="14.00">&#39;\r&#39;</text>
</g>
<!-- 12&#45;&gt;14 -->
<g id="edge57" class="edge"><title>12&#45;&gt;14</title>
<path fill="none" stroke="black" d="M2629.58,-895.656C2636.63,-902.933 2645.57,-910.85 2655.06,-916 2707.52,-944.461 2725.8,-948 2785.48,-948 2785.48,-948 2785.48,-948 4906.23,-948 5097.84,-948 5577.83,-983.61 5765.14,-1024 5874.35,-1047.55 5930.39,-1021.59 6002.41,-1107 6035.42,-1146.14 6047.12,-1299.57 6050.78,-1368.79"/>
<polygon fill="black" stroke="black" points="6047.3,-1369.34 6051.3,-1379.15 6054.29,-1368.99 6047.3,-1369.34"/>
<text text-anchor="middle" x="4201.14" y="-950.8" font-family="Times,serif" font-size="14.00">&#39;!&#39;..&#39;~&#39;(qlen_lt) / anchor, inc_qual_count</text>
</g>
<!-- 23&#45;&gt;12 -->
<g id="edge107" class="edge"><title>23&#45;&gt;12</title>
<path fill="none" stroke="black" d="M6612.03,-715.54C6580.17,-731.255 6515.67,-759 6457.42,-759 6052.26,-759 6052.26,-759 6052.26,-759 5370.25,-759 5203.34,-864 4521.34,-864 2785.48,-864 2785.48,-864 2785.48,-864 2737.05,-864 2681.15,-869.653 2646.84,-873.775"/>
<polygon fill="black" stroke="black" points="2646.41,-870.301 2636.91,-874.997 2647.26,-877.248 2646.41,-870.301"/>
<text text-anchor="middle" x="4905.23" y="-857.8" font-family="Times,serif" font-size="14.00">&#39;\n&#39; / count_line</text>
</g>
<!-- 10&#45;&gt;10 -->
<g id="edge45" class="edge"><title>10&#45;&gt;10</title>
<path fill="none" stroke="black" d="M6270.29,-524.045C6269.83,-533.988 6271.68,-542.5 6275.84,-542.5 6278.44,-542.5 6280.14,-539.175 6280.94,-534.254"/>
<polygon fill="black" stroke="black" points="6284.45,-534.193 6281.4,-524.045 6277.45,-533.877 6284.45,-534.193"/>
<text text-anchor="middle" x="6275.84" y="-545.3" font-family="Times,serif" font-size="14.00">&#39;\t&#39;</text>
</g>
<!-- 10&#45;&gt;10 -->
<g id="edge46" class="edge"><title>10&#45;&gt;10</title>
<path fill="none" stroke="black" d="M6266.38,-522.66C6262.2,-541.107 6265.35,-560.5 6275.84,-560.5 6284.45,-560.5 6288.12,-547.45 6286.85,-532.578"/>
<polygon fill="black" stroke="black" points="6290.3,-532.004 6285.31,-522.66 6283.39,-533.079 6290.3,-532.004"/>
<text text-anchor="middle" x="6275.84" y="-563.3" font-family="Times,serif" font-size="14.00">&#39;\v&#39;</text>
</g>
<!-- 10&#45;&gt;10 -->
<g id="edge48" class="edge"><title>10&#45;&gt;10</title>
<path fill="none" stroke="black" d="M6264.02,-521.635C6254.5,-547.593 6258.44,-578.5 6275.84,-578.5 6291.14,-578.5 6296.04,-554.625 6290.54,-531.219"/>
<polygon fill="black" stroke="black" points="6293.89,-530.214 6287.67,-521.635 6287.18,-532.219 6293.89,-530.214"/>
<text text-anchor="middle" x="6275.84" y="-581.3" font-family="Times,serif" font-size="14.00">SP</text>
</g>
<!-- 11 -->
<g id="node24" class="node"><title>11</title>
<ellipse fill="none" stroke="black" cx="6456.42" cy="-575" rx="23.5" ry="23.5"/>
<text text-anchor="middle" x="6456.42" y="-570.8" font-family="Times,serif" font-size="14.00">11</text>
</g>
<!-- 10&#45;&gt;11 -->
<g id="edge44" class="edge"><title>10&#45;&gt;11</title>
<path fill="none" stroke="black" d="M6287.63,-521.413C6294.61,-532.551 6304.73,-545.551 6317.34,-553 6349.55,-572.022 6393,-576.116 6422.5,-576.36"/>
<polygon fill="black" stroke="black" points="6422.71,-579.859 6432.69,-576.297 6422.67,-572.859 6422.71,-579.859"/>
<text text-anchor="middle" x="6366.13" y="-579.8" font-family="Times,serif" font-size="14.00">&#45;128..&#39;\b&#39; / anchor</text>
</g>
<!-- 10&#45;&gt;11 -->
<g id="edge47" class="edge"><title>10&#45;&gt;11</title>
<path fill="none" stroke="black" d="M6298.07,-509.599C6304.22,-511.888 6310.99,-514.218 6317.34,-516 6359.88,-527.934 6375.85,-514.373 6414.92,-535 6421.77,-538.616 6428.22,-543.767 6433.88,-549.175"/>
<polygon fill="black" stroke="black" points="6431.58,-551.84 6441.06,-556.587 6436.61,-546.969 6431.58,-551.84"/>
<text text-anchor="middle" x="6366.13" y="-537.8" font-family="Times,serif" font-size="14.00">14..31 / anchor</text>
</g>
<!-- 10&#45;&gt;11 -->
<g id="edge49" class="edge"><title>10&#45;&gt;11</title>
<path fill="none" stroke="black" d="M6298.28,-493.913C6327.08,-485.783 6378.8,-476.184 6414.92,-498 6430.87,-507.635 6440.86,-525.87 6446.92,-542.177"/>
<polygon fill="black" stroke="black" points="6443.71,-543.617 6450.2,-551.987 6450.35,-541.393 6443.71,-543.617"/>
<text text-anchor="middle" x="6366.13" y="-500.8" font-family="Times,serif" font-size="14.00">&#39;!&#39;..127 / anchor</text>
</g>
<!-- 11&#45;&gt;12 -->
<g id="edge51" class="edge"><title>11&#45;&gt;12</title>
<path fill="none" stroke="black" d="M6435.1,-585.803C6428.73,-588.979 6421.62,-592.316 6414.92,-595 6272.77,-651.964 6236.86,-671.091 6086.1,-698 5989.22,-715.294 5299.75,-737.823 5201.42,-742 4401.05,-775.999 4200.64,-788 3399.54,-788 2785.48,-788 2785.48,-788 2785.48,-788 2727.91,-788 2670.7,-828.467 2639.25,-855.131"/>
<polygon fill="black" stroke="black" points="2636.7,-852.707 2631.45,-861.91 2641.29,-857.99 2636.7,-852.707"/>
<text text-anchor="middle" x="4751.33" y="-767.8" font-family="Times,serif" font-size="14.00">&#39;\n&#39; / description2, count_line</text>
</g>
<!-- 11&#45;&gt;23 -->
<g id="edge53" class="edge"><title>11&#45;&gt;23</title>
<path fill="none" stroke="black" d="M6475.78,-588.667C6506.85,-611.781 6569.86,-658.674 6605.67,-685.325"/>
<polygon fill="black" stroke="black" points="6603.62,-688.159 6613.73,-691.321 6607.8,-682.544 6603.62,-688.159"/>
<text text-anchor="middle" x="6544.77" y="-676.8" font-family="Times,serif" font-size="14.00">&#39;\r&#39; / description2</text>
</g>
<!-- 11&#45;&gt;11 -->
<g id="edge50" class="edge"><title>11&#45;&gt;11</title>
<path fill="none" stroke="black" d="M6450.99,-598.045C6450.54,-607.988 6452.35,-616.5 6456.42,-616.5 6458.96,-616.5 6460.62,-613.175 6461.4,-608.254"/>
<polygon fill="black" stroke="black" points="6464.91,-608.19 6461.85,-598.045 6457.92,-607.881 6464.91,-608.19"/>
<text text-anchor="middle" x="6456.42" y="-619.3" font-family="Times,serif" font-size="14.00">&#45;128..&#39;\t&#39;</text>
</g>
<!-- 11&#45;&gt;11 -->
<g id="edge52" class="edge"><title>11&#45;&gt;11</title>
<path fill="none" stroke="black" d="M6447.17,-596.66C6443.08,-615.107 6446.16,-634.5 6456.42,-634.5 6464.83,-634.5 6468.42,-621.45 6467.18,-606.578"/>
<polygon fill="black" stroke="black" points="6470.64,-606.02 6465.67,-596.66 6463.72,-607.073 6470.64,-606.02"/>
<text text-anchor="middle" x="6456.42" y="-637.3" font-family="Times,serif" font-size="14.00">&#39;\v&#39;..&#39;\f&#39;</text>
</g>
<!-- 11&#45;&gt;11 -->
<g id="edge54" class="edge"><title>11&#45;&gt;11</title>
<path fill="none" stroke="black" d="M6444.85,-595.635C6435.55,-621.593 6439.4,-652.5 6456.42,-652.5 6471.31,-652.5 6476.12,-628.837 6470.86,-605.531"/>
<polygon fill="black" stroke="black" points="6474.13,-604.263 6467.98,-595.635 6467.41,-606.215 6474.13,-604.263"/>
<text text-anchor="middle" x="6456.42" y="-655.3" font-family="Times,serif" font-size="14.00">14..127</text>
</g>
<!-- 13&#45;&gt;26 -->
<g id="edge58" class="edge"><title>13&#45;&gt;26</title>
<path fill="none" stroke="black" d="M6274.94,-972.602C6275.1,-1070.21 6273.11,-1442.32 6234.34,-1552 6089.45,-1961.94 6115.57,-1795 6054.26,-1795 3843.61,-1795 3843.61,-1795 3843.61,-1795 3614.32,-1795 2993.55,-1754.69 2831.98,-1592 2805.61,-1565.44 2794.16,-1458.2 2789.8,-1400"/>
<polygon fill="black" stroke="black" points="2793.27,-1399.46 2789.07,-1389.74 2786.29,-1399.96 2793.27,-1399.46"/>
<text text-anchor="middle" x="4751.33" y="-1797.8" font-family="Times,serif" font-size="14.00">&#39;\n&#39; / count_line</text>
</g>
<!-- 14&#45;&gt;26 -->
<g id="edge59" class="edge"><title>14&#45;&gt;26</title>
<path fill="none" stroke="black" d="M6032.02,-1414.08C6023.2,-1418.34 6012.56,-1422.72 6002.41,-1425 5899.48,-1448.07 5870.62,-1429.67 5765.14,-1431 5522.2,-1434.07 5459.05,-1439.11 5219.42,-1399 5211.34,-1397.65 5209.52,-1396.24 5201.42,-1395 4835.01,-1338.89 4740.58,-1343.43 4370.41,-1324 4212.14,-1315.69 4172.35,-1319.09 4013.88,-1317 3683.69,-1312.65 3601.12,-1313.11 3270.9,-1312 3075.83,-1311.34 3009.96,-1232.14 2831.98,-1312 2822.87,-1316.09 2814.86,-1323.06 2808.24,-1330.53"/>
<polygon fill="black" stroke="black" points="2805.19,-1328.73 2801.62,-1338.71 2810.63,-1333.14 2805.19,-1328.73"/>
<text text-anchor="middle" x="4520.34" y="-1340.8" font-family="Times,serif" font-size="14.00">&#39;\n&#39; / qletters, count_line</text>
</g>
<!-- 14&#45;&gt;13 -->
<g id="edge60" class="edge"><title>14&#45;&gt;13</title>
<path fill="none" stroke="black" d="M6064.46,-1382.01C6100.03,-1308.8 6218.72,-1064.52 6260.3,-978.934"/>
<polygon fill="black" stroke="black" points="6263.53,-980.288 6264.75,-969.764 6257.24,-977.229 6263.53,-980.288"/>
<text text-anchor="middle" x="6169.22" y="-1296.8" font-family="Times,serif" font-size="14.00">&#39;\r&#39; / qletters</text>
</g>
<!-- 14&#45;&gt;14 -->
<g id="edge61" class="edge"><title>14&#45;&gt;14</title>
<path fill="none" stroke="black" d="M6035.14,-1418.32C6027.4,-1431.12 6033.44,-1444.5 6053.26,-1444.5 6068.12,-1444.5 6075.23,-1436.98 6074.59,-1427.81"/>
<polygon fill="black" stroke="black" points="6077.9,-1426.67 6071.37,-1418.32 6071.27,-1428.92 6077.9,-1426.67"/>
<text text-anchor="middle" x="6053.26" y="-1447.3" font-family="Times,serif" font-size="14.00">&#39;!&#39;..&#39;~&#39;(qlen_lt) / inc_qual_count</text>
</g>
<!-- 15&#45;&gt;26 -->
<g id="edge63" class="edge"><title>15&#45;&gt;26</title>
<path fill="none" stroke="black" d="M3216.09,-1582.81C3205.54,-1568.23 3189.25,-1548.74 3170.51,-1537 3037.89,-1453.89 2955.08,-1536.66 2831.98,-1440 2817.97,-1429 2807.6,-1412.27 2800.41,-1397.13"/>
<polygon fill="black" stroke="black" points="2803.6,-1395.69 2796.34,-1387.97 2797.2,-1398.53 2803.6,-1395.69"/>
<text text-anchor="middle" x="3001.25" y="-1539.8" font-family="Times,serif" font-size="14.00">&#39;\n&#39; / qletters, count_line</text>
</g>
<!-- 15&#45;&gt;2 -->
<g id="edge62" class="edge"><title>15&#45;&gt;2</title>
<path fill="none" stroke="black" d="M3221.19,-1624.11C3212.61,-1645.48 3196.33,-1676.66 3170.51,-1691 3014.2,-1777.83 1740.46,-1727 1561.65,-1727 593.618,-1727 593.618,-1727 593.618,-1727 538.842,-1727 517.757,-1726.15 475.748,-1691 461.261,-1678.88 451.363,-1660.26 444.98,-1644.13"/>
<polygon fill="black" stroke="black" points="448.177,-1642.69 441.45,-1634.5 441.604,-1645.1 448.177,-1642.69"/>
<text text-anchor="middle" x="1687.2" y="-1733.8" font-family="Times,serif" font-size="14.00">&#45;128..&#39;\b&#39; / anchor</text>
</g>
<!-- 15&#45;&gt;2 -->
<g id="edge65" class="edge"><title>15&#45;&gt;2</title>
<path fill="none" stroke="black" d="M3211.37,-1616.99C3200.41,-1625.57 3185.52,-1635.66 3170.51,-1641 3009.43,-1698.35 2958.47,-1677 2787.48,-1677 593.618,-1677 593.618,-1677 593.618,-1677 538.842,-1677 524.856,-1665.26 475.748,-1641 470.929,-1638.62 466.063,-1635.68 461.456,-1632.61"/>
<polygon fill="black" stroke="black" points="463.182,-1629.54 452.998,-1626.62 459.136,-1635.25 463.182,-1629.54"/>
<text text-anchor="middle" x="1687.2" y="-1679.8" font-family="Times,serif" font-size="14.00">14..31 / anchor</text>
</g>
<!-- 15&#45;&gt;2 -->
<g id="edge66" class="edge"><title>15&#45;&gt;2</title>
<path fill="none" stroke="black" d="M3206.72,-1606.96C3195.87,-1609.21 3182.57,-1611.65 3170.51,-1613 3001.22,-1631.98 2957.83,-1627 2787.48,-1627 593.618,-1627 593.618,-1627 593.618,-1627 549.947,-1627 499.803,-1621.28 467.845,-1616.9"/>
<polygon fill="black" stroke="black" points="468.129,-1613.41 457.739,-1615.48 467.154,-1620.34 468.129,-1613.41"/>
<text text-anchor="middle" x="1687.2" y="-1629.8" font-family="Times,serif" font-size="14.00">&#39;!&#39;..&#39;~&#39;(!qlen_lt) / anchor</text>
</g>
<!-- 15&#45;&gt;2 -->
<g id="edge68" class="edge"><title>15&#45;&gt;2</title>
<path fill="none" stroke="black" d="M3206.05,-1601.58C3062.87,-1598.96 2268.9,-1585.27 1621.61,-1591 1163.88,-1595.05 606.923,-1607.89 467.873,-1611.21"/>
<polygon fill="black" stroke="black" points="467.779,-1607.71 457.866,-1611.45 467.947,-1614.71 467.779,-1607.71"/>
<text text-anchor="middle" x="1687.2" y="-1593.8" font-family="Times,serif" font-size="14.00">127 / anchor</text>
</g>
<!-- 15&#45;&gt;13 -->
<g id="edge64" class="edge"><title>15&#45;&gt;13</title>
<path fill="none" stroke="black" d="M3248.55,-1616.54C3259.58,-1624.84 3274.36,-1634.8 3288.9,-1641 3388.21,-1683.35 3419.14,-1678.93 3526.17,-1693 4066.16,-1764 4205.69,-1749 4750.33,-1749 4750.33,-1749 4750.33,-1749 6054.26,-1749 6215.88,-1749 6263.64,-1134.5 6272.97,-982.63"/>
<polygon fill="black" stroke="black" points="6276.48,-982.701 6273.58,-972.509 6269.49,-982.282 6276.48,-982.701"/>
<text text-anchor="middle" x="4905.23" y="-1751.8" font-family="Times,serif" font-size="14.00">&#39;\r&#39; / qletters</text>
</g>
<!-- 16 -->
<g id="node28" class="node"><title>16</title>
<ellipse fill="none" stroke="black" cx="3591.76" cy="-1629" rx="23.5" ry="23.5"/>
<text text-anchor="middle" x="3591.76" y="-1624.8" font-family="Times,serif" font-size="14.00">16</text>
</g>
<!-- 15&#45;&gt;16 -->
<g id="edge67" class="edge"><title>15&#45;&gt;16</title>
<path fill="none" stroke="black" d="M3253.23,-1603.69C3314.73,-1608.3 3485.75,-1621.13 3557.94,-1626.54"/>
<polygon fill="black" stroke="black" points="3558.01,-1630.05 3568.25,-1627.31 3558.54,-1623.07 3558.01,-1630.05"/>
<text text-anchor="middle" x="3398.54" y="-1625.8" font-family="Times,serif" font-size="14.00">&#39;!&#39;..&#39;~&#39;(qlen_lt) / anchor, inc_qual_count</text>
</g>
<!-- 16&#45;&gt;27 -->
<g id="edge71" class="edge"><title>16&#45;&gt;27</title>
<path fill="none" stroke="black" d="M3614.68,-1634.43C3631.23,-1638.25 3654.56,-1643 3675.35,-1645 3982.85,-1674.51 4061.6,-1650.42 4370.41,-1642 4495.76,-1638.58 4527.67,-1643.24 4652.27,-1629 4672.92,-1626.64 4695.78,-1622.53 4714.23,-1618.84"/>
<polygon fill="black" stroke="black" points="4715.16,-1622.22 4724.25,-1616.78 4713.75,-1615.36 4715.16,-1622.22"/>
<text text-anchor="middle" x="4201.14" y="-1660.8" font-family="Times,serif" font-size="14.00">&#39;\n&#39; / identifier, count_line, qletters</text>
</g>
<!-- 16&#45;&gt;2 -->
<g id="edge69" class="edge"><title>16&#45;&gt;2</title>
<path fill="none" stroke="black" d="M3577.29,-1647.75C3562.34,-1669.54 3538.65,-1707.12 3526.17,-1743 3509.04,-1792.28 3546.29,-1823.38 3508.17,-1859 3462.96,-1901.26 3292.6,-1883 3230.71,-1883 593.618,-1883 593.618,-1883 593.618,-1883 540.156,-1883 512.819,-1897.52 475.748,-1859 446.968,-1829.09 438.588,-1706.28 436.189,-1645.87"/>
<polygon fill="black" stroke="black" points="439.68,-1645.57 435.818,-1635.7 432.685,-1645.82 439.68,-1645.57"/>
<text text-anchor="middle" x="1811.89" y="-1885.8" font-family="Times,serif" font-size="14.00">&#45;128..&#39;\b&#39;</text>
</g>
<!-- 16&#45;&gt;2 -->
<g id="edge74" class="edge"><title>16&#45;&gt;2</title>
<path fill="none" stroke="black" d="M3577.76,-1647.92C3563.24,-1669.87 3539.95,-1707.6 3526.17,-1743 3513.27,-1776.16 3535.03,-1797.67 3508.17,-1821 3461.45,-1861.58 3292.6,-1845 3230.71,-1845 593.618,-1845 593.618,-1845 593.618,-1845 540.156,-1845 513.372,-1858.98 475.748,-1821 451.719,-1796.74 441.278,-1698.62 437.329,-1645.9"/>
<polygon fill="black" stroke="black" points="440.803,-1645.42 436.603,-1635.69 433.821,-1645.91 440.803,-1645.42"/>
<text text-anchor="middle" x="1811.89" y="-1847.8" font-family="Times,serif" font-size="14.00">14..31</text>
</g>
<!-- 16&#45;&gt;2 -->
<g id="edge76" class="edge"><title>16&#45;&gt;2</title>
<path fill="none" stroke="black" d="M3578.76,-1648.87C3565.33,-1671.38 3543.25,-1709.32 3526.17,-1743 3517.36,-1760.39 3524.07,-1771.72 3508.17,-1783 3457.7,-1818.81 3292.6,-1807 3230.71,-1807 593.618,-1807 593.618,-1807 593.618,-1807 540.156,-1807 514.145,-1820.2 475.748,-1783 456.376,-1764.23 444.443,-1689.81 438.915,-1645.57"/>
<polygon fill="black" stroke="black" points="442.379,-1645.06 437.708,-1635.55 435.43,-1645.9 442.379,-1645.06"/>
<text text-anchor="middle" x="1811.89" y="-1809.8" font-family="Times,serif" font-size="14.00">&#39;!&#39;..&#39;~&#39;(!qlen_lt)</text>
</g>
<!-- 16&#45;&gt;2 -->
<g id="edge78" class="edge"><title>16&#45;&gt;2</title>
<path fill="none" stroke="black" d="M3571.87,-1642.17C3519.99,-1677.02 3369.87,-1769 3230.71,-1769 593.618,-1769 593.618,-1769 593.618,-1769 537.383,-1769 515.068,-1763.2 475.748,-1723 455.166,-1701.95 444.933,-1669.63 439.914,-1645.28"/>
<polygon fill="black" stroke="black" points="443.343,-1644.57 438.067,-1635.38 436.462,-1645.86 443.343,-1644.57"/>
<text text-anchor="middle" x="1811.89" y="-1771.8" font-family="Times,serif" font-size="14.00">127</text>
</g>
<!-- 16&#45;&gt;3 -->
<g id="edge70" class="edge"><title>16&#45;&gt;3</title>
<path fill="none" stroke="black" d="M3583.67,-1606.69C3572.76,-1576.38 3548.75,-1523.12 3508.17,-1498 3379.93,-1418.61 3321.08,-1472.9 3170.51,-1464 2568.08,-1428.41 2416.37,-1440 1812.89,-1440 822.15,-1440 822.15,-1440 822.15,-1440 753.117,-1440 672.252,-1439.53 628.234,-1439.23"/>
<polygon fill="black" stroke="black" points="628.148,-1435.73 618.124,-1439.17 628.1,-1442.73 628.148,-1435.73"/>
<text text-anchor="middle" x="1973.66" y="-1442.8" font-family="Times,serif" font-size="14.00">&#39;\t&#39; / identifier</text>
</g>
<!-- 16&#45;&gt;3 -->
<g id="edge72" class="edge"><title>16&#45;&gt;3</title>
<path fill="none" stroke="black" d="M3569.29,-1621.19C3552.77,-1615.44 3529.28,-1607.82 3508.17,-1603 3194.72,-1531.41 3109.01,-1540 2787.48,-1540 2196,-1540 2196,-1540 2196,-1540 1914.04,-1540 1843.61,-1531 1561.65,-1531 822.15,-1531 822.15,-1531 822.15,-1531 738.603,-1531 706.054,-1549.71 636.118,-1504 623.789,-1495.94 614.548,-1482.69 608.029,-1470.24"/>
<polygon fill="black" stroke="black" points="611.062,-1468.48 603.569,-1460.99 604.755,-1471.51 611.062,-1468.48"/>
<text text-anchor="middle" x="1973.66" y="-1542.8" font-family="Times,serif" font-size="14.00">&#39;\v&#39; / identifier</text>
</g>
<!-- 16&#45;&gt;3 -->
<g id="edge75" class="edge"><title>16&#45;&gt;3</title>
<path fill="none" stroke="black" d="M3576.57,-1610.83C3561.66,-1593.28 3536.47,-1567.68 3508.17,-1556 3369.21,-1498.63 3320.68,-1542.99 3170.51,-1536 2567.43,-1507.93 2416.62,-1490 1812.89,-1490 822.15,-1490 822.15,-1490 822.15,-1490 737.935,-1490 717.215,-1476.7 636.118,-1454 632.941,-1453.11 629.659,-1452.08 626.403,-1450.99"/>
<polygon fill="black" stroke="black" points="627.436,-1447.65 616.841,-1447.6 625.097,-1454.24 627.436,-1447.65"/>
<text text-anchor="middle" x="1973.66" y="-1494.8" font-family="Times,serif" font-size="14.00">SP / identifier</text>
</g>
<!-- 16&#45;&gt;16 -->
<g id="edge77" class="edge"><title>16&#45;&gt;16</title>
<path fill="none" stroke="black" d="M3569.82,-1637.97C3545.45,-1652.24 3552.76,-1670.5 3591.76,-1670.5 3625.28,-1670.5 3635.39,-1657.01 3622.1,-1644.16"/>
<polygon fill="black" stroke="black" points="3623.82,-1641.08 3613.7,-1637.97 3619.67,-1646.72 3623.82,-1641.08"/>
<text text-anchor="middle" x="3591.76" y="-1673.3" font-family="Times,serif" font-size="14.00">&#39;!&#39;..&#39;~&#39;(qlen_lt) / inc_qual_count</text>
</g>
<!-- 22 -->
<g id="node29" class="node"><title>22</title>
<ellipse fill="none" stroke="black" cx="4201.14" cy="-1610" rx="23.5" ry="23.5"/>
<text text-anchor="middle" x="4201.14" y="-1605.8" font-family="Times,serif" font-size="14.00">22</text>
</g>
<!-- 16&#45;&gt;22 -->
<g id="edge73" class="edge"><title>16&#45;&gt;22</title>
<path fill="none" stroke="black" d="M3615.46,-1628.29C3708.21,-1625.39 4058.59,-1614.43 4167.58,-1611.02"/>
<polygon fill="black" stroke="black" points="4167.76,-1614.51 4177.65,-1610.7 4167.54,-1607.52 4167.76,-1614.51"/>
<text text-anchor="middle" x="3844.61" y="-1629.8" font-family="Times,serif" font-size="14.00">&#39;\r&#39; / identifier, qletters</text>
</g>
<!-- 22&#45;&gt;27 -->
<g id="edge106" class="edge"><title>22&#45;&gt;27</title>
<path fill="none" stroke="black" d="M4224.65,-1610.04C4309.19,-1610.2 4608.21,-1610.74 4713.4,-1610.93"/>
<polygon fill="black" stroke="black" points="4713.53,-1614.43 4723.54,-1610.95 4713.54,-1607.43 4713.53,-1614.43"/>
<text text-anchor="middle" x="4520.34" y="-1613.8" font-family="Times,serif" font-size="14.00">&#39;\n&#39; / count_line</text>
</g>
<!-- 17&#45;&gt;28 -->
<g id="edge79" class="edge"><title>17&#45;&gt;28</title>
<path fill="none" stroke="black" d="M6037.56,-1079.47C6028.51,-1070.05 6016.05,-1059.3 6002.41,-1054 5904.08,-1015.79 5870.63,-1048.56 5765.14,-1047 5522.43,-1043.42 5448.78,-989.533 5219.42,-1069 5181.1,-1082.28 5143.23,-1109.79 5118.61,-1130.14"/>
<polygon fill="black" stroke="black" points="5116.17,-1127.62 5110.78,-1136.74 5120.69,-1132.97 5116.17,-1127.62"/>
<text text-anchor="middle" x="5633.21" y="-1049.8" font-family="Times,serif" font-size="14.00">&#39;\n&#39; / count_line</text>
</g>
<!-- 18&#45;&gt;26 -->
<g id="edge81" class="edge"><title>18&#45;&gt;26</title>
<path fill="none" stroke="black" d="M5609.43,-655.61C5580.77,-655.123 5531.65,-658.644 5501.28,-685 5483.76,-700.206 5500.57,-718.526 5483.28,-734 5393.29,-814.555 5330.9,-752.519 5219.42,-799 5210.77,-802.608 5209.59,-805.407 5201.42,-810 5040.6,-900.38 5005.03,-934.99 4832.39,-1000 4755.17,-1029.08 4733.88,-1032.79 4652.27,-1045 4627.23,-1048.75 2851.14,-1123.45 2831.98,-1140 2804.68,-1163.59 2793.65,-1267.5 2789.6,-1324.41"/>
<polygon fill="black" stroke="black" points="2786.1,-1324.25 2788.92,-1334.46 2793.08,-1324.72 2786.1,-1324.25"/>
<text text-anchor="middle" x="4201.14" y="-1076.8" font-family="Times,serif" font-size="14.00">&#39;\n&#39; / count_line, qletters</text>
</g>
<!-- 18&#45;&gt;9 -->
<g id="edge80" class="edge"><title>18&#45;&gt;9</title>
<path fill="none" stroke="black" d="M5610.83,-664.281C5582.19,-673.643 5529.6,-689.471 5483.28,-696 5024.63,-760.659 3862.73,-746 3399.54,-746 2612.56,-746 2612.56,-746 2612.56,-746 2526.19,-746 2487.69,-765.593 2421.59,-710 2383.89,-678.284 2369.87,-620.366 2364.67,-583.6"/>
<polygon fill="black" stroke="black" points="2368.11,-582.857 2363.38,-573.376 2361.16,-583.737 2368.11,-582.857"/>
<text text-anchor="middle" x="3591.76" y="-749.8" font-family="Times,serif" font-size="14.00">&#45;128..&#39;\b&#39; / anchor</text>
</g>
<!-- 18&#45;&gt;9 -->
<g id="edge83" class="edge"><title>18&#45;&gt;9</title>
<path fill="none" stroke="black" d="M5609.78,-659.071C5580.65,-661.664 5528.22,-666.009 5483.28,-668 4643.78,-705.187 4433.08,-696 3592.76,-696 2612.56,-696 2612.56,-696 2612.56,-696 2526.19,-696 2491.43,-710.816 2421.59,-660 2395.67,-641.134 2379.71,-607.515 2370.85,-582.393"/>
<polygon fill="black" stroke="black" points="2374.17,-581.275 2367.69,-572.892 2367.52,-583.486 2374.17,-581.275"/>
<text text-anchor="middle" x="3591.76" y="-698.8" font-family="Times,serif" font-size="14.00">14..31 / anchor</text>
</g>
<!-- 18&#45;&gt;9 -->
<g id="edge84" class="edge"><title>18&#45;&gt;9</title>
<path fill="none" stroke="black" d="M5609.67,-656.804C5437.53,-655.329 4313.36,-646 3399.54,-646 2612.56,-646 2612.56,-646 2612.56,-646 2526.19,-646 2497.96,-650.344 2421.59,-610 2406.21,-601.874 2392.26,-588.472 2381.69,-576.394"/>
<polygon fill="black" stroke="black" points="2384.36,-574.131 2375.26,-568.716 2379,-578.628 2384.36,-574.131"/>
<text text-anchor="middle" x="3591.76" y="-649.8" font-family="Times,serif" font-size="14.00">&#39;!&#39;..&#39;~&#39;(!qlen_lt) / anchor</text>
</g>
<!-- 18&#45;&gt;9 -->
<g id="edge86" class="edge"><title>18&#45;&gt;9</title>
<path fill="none" stroke="black" d="M5609.51,-655.784C5580.31,-654.255 5528.03,-651.631 5483.28,-650 4557.48,-616.25 4325.96,-596 3399.54,-596 2612.56,-596 2612.56,-596 2612.56,-596 2532.31,-596 2439.94,-572.953 2392.82,-559.486"/>
<polygon fill="black" stroke="black" points="2393.79,-556.12 2383.21,-556.689 2391.83,-562.842 2393.79,-556.12"/>
<text text-anchor="middle" x="3591.76" y="-599.8" font-family="Times,serif" font-size="14.00">127 / anchor</text>
</g>
<!-- 18&#45;&gt;13 -->
<g id="edge82" class="edge"><title>18&#45;&gt;13</title>
<path fill="none" stroke="black" d="M5657.08,-658.61C5716.93,-663.602 5881.94,-682.397 6002.41,-744 6055.63,-771.212 6054.38,-798.839 6104.1,-832 6157.93,-867.891 6184.29,-856.021 6234.34,-897 6242.71,-903.85 6250.42,-912.728 6256.82,-921.204"/>
<polygon fill="black" stroke="black" points="6254.07,-923.381 6262.75,-929.456 6259.75,-919.294 6254.07,-923.381"/>
<text text-anchor="middle" x="6053.26" y="-820.8" font-family="Times,serif" font-size="14.00">&#39;\r&#39; / qletters</text>
</g>
<!-- 19 -->
<g id="node32" class="node"><title>19</title>
<ellipse fill="none" stroke="black" cx="6053.26" cy="-474" rx="23.5" ry="23.5"/>
<text text-anchor="middle" x="6053.26" y="-469.8" font-family="Times,serif" font-size="14.00">19</text>
</g>
<!-- 18&#45;&gt;19 -->
<g id="edge85" class="edge"><title>18&#45;&gt;19</title>
<path fill="none" stroke="black" d="M5656.63,-654.726C5736.37,-646.634 6001.56,-619.679 6002.41,-619 6035.98,-592.332 6047.04,-541.822 6050.63,-508.028"/>
<polygon fill="black" stroke="black" points="6054.15,-507.966 6051.55,-497.695 6047.18,-507.345 6054.15,-507.966"/>
<text text-anchor="middle" x="5892.78" y="-644.8" font-family="Times,serif" font-size="14.00">&#39;!&#39;..&#39;~&#39;(qlen_lt) / anchor, inc_qual_count</text>
</g>
<!-- 19&#45;&gt;26 -->
<g id="edge89" class="edge"><title>19&#45;&gt;26</title>
<path fill="none" stroke="black" d="M6038.9,-492.957C6029.89,-504.304 6017.01,-518.028 6002.41,-526 5803.23,-634.768 5720.16,-564.049 5501.28,-624 5263.25,-689.196 5158.76,-641.893 4978.06,-810 4963.49,-823.556 4975.39,-838.303 4960.06,-851 4851.96,-940.57 4790.11,-895.378 4652.27,-922 4527.78,-946.042 4496.12,-949.499 4370.41,-966 4212.41,-986.74 4172.45,-988.238 4013.88,-1004 3948.26,-1010.52 2880.54,-1068.39 2831.98,-1113 2801.64,-1140.87 2791.87,-1261.66 2788.81,-1324.18"/>
<polygon fill="black" stroke="black" points="2785.31,-1324.27 2788.35,-1334.42 2792.3,-1324.59 2785.31,-1324.27"/>
<text text-anchor="middle" x="4520.34" y="-966.8" font-family="Times,serif" font-size="14.00">&#39;\n&#39; / identifier2, count_line, qletters</text>
</g>
<!-- 19&#45;&gt;9 -->
<g id="edge87" class="edge"><title>19&#45;&gt;9</title>
<path fill="none" stroke="black" d="M6030.65,-481.132C6021.96,-483.717 6011.8,-486.393 6002.41,-488 5840.77,-515.655 5798.2,-512 5634.21,-512 2612.56,-512 2612.56,-512 2612.56,-512 2533.09,-512 2441.05,-530.862 2393.59,-542.008"/>
<polygon fill="black" stroke="black" points="2392.53,-538.664 2383.62,-544.393 2394.16,-545.472 2392.53,-538.664"/>
<text text-anchor="middle" x="3844.61" y="-514.8" font-family="Times,serif" font-size="14.00">&#45;128..&#39;\b&#39;</text>
</g>
<!-- 19&#45;&gt;9 -->
<g id="edge92" class="edge"><title>19&#45;&gt;9</title>
<path fill="none" stroke="black" d="M6029.6,-474C5966.8,-474 5785.17,-474 5634.21,-474 2612.56,-474 2612.56,-474 2612.56,-474 2526.19,-474 2501.57,-477.378 2421.59,-510 2409.68,-514.862 2397.65,-522.275 2387.54,-529.404"/>
<polygon fill="black" stroke="black" points="2385.18,-526.79 2379.19,-535.525 2389.32,-532.436 2385.18,-526.79"/>
<text text-anchor="middle" x="3844.61" y="-476.8" font-family="Times,serif" font-size="14.00">14..31</text>
</g>
<!-- 19&#45;&gt;9 -->
<g id="edge94" class="edge"><title>19&#45;&gt;9</title>
<path fill="none" stroke="black" d="M6029.67,-470.493C5967.03,-461.086 5785.8,-436 5634.21,-436 2612.56,-436 2612.56,-436 2612.56,-436 2526.27,-436 2495.09,-425.795 2421.59,-471 2402.54,-482.721 2387.38,-502.896 2377.07,-519.924"/>
<polygon fill="black" stroke="black" points="2373.81,-518.574 2371.85,-528.986 2379.87,-522.069 2373.81,-518.574"/>
<text text-anchor="middle" x="3844.61" y="-438.8" font-family="Times,serif" font-size="14.00">&#39;!&#39;..&#39;~&#39;(!qlen_lt)</text>
</g>
<!-- 19&#45;&gt;9 -->
<g id="edge96" class="edge"><title>19&#45;&gt;9</title>
<path fill="none" stroke="black" d="M6035.05,-458.662C6025.97,-451.459 6014.28,-443.488 6002.41,-439 5848.4,-380.76 5798.87,-398 5634.21,-398 2612.56,-398 2612.56,-398 2612.56,-398 2526.35,-398 2490.82,-380.626 2421.59,-432 2393.78,-452.643 2377.93,-489.889 2369.6,-517.028"/>
<polygon fill="black" stroke="black" points="2366.17,-516.301 2366.77,-526.879 2372.89,-518.236 2366.17,-516.301"/>
<text text-anchor="middle" x="3844.61" y="-400.8" font-family="Times,serif" font-size="14.00">127</text>
</g>
<!-- 19&#45;&gt;10 -->
<g id="edge88" class="edge"><title>19&#45;&gt;10</title>
<path fill="none" stroke="black" d="M6076.78,-472.816C6111.22,-471.549 6178.81,-471.205 6234.34,-484 6237.79,-484.794 6241.32,-485.86 6244.79,-487.071"/>
<polygon fill="black" stroke="black" points="6243.69,-490.399 6254.28,-490.77 6246.23,-483.877 6243.69,-490.399"/>
<text text-anchor="middle" x="6169.22" y="-486.8" font-family="Times,serif" font-size="14.00">&#39;\t&#39; / identifier2</text>
</g>
<!-- 19&#45;&gt;10 -->
<g id="edge90" class="edge"><title>19&#45;&gt;10</title>
<path fill="none" stroke="black" d="M6075.11,-464.108C6083.86,-460.476 6094.27,-456.811 6104.1,-455 6161.03,-444.518 6181.6,-431.162 6234.34,-455 6242.85,-458.842 6250.27,-465.449 6256.37,-472.477"/>
<polygon fill="black" stroke="black" points="6253.96,-475.079 6262.89,-480.778 6259.47,-470.753 6253.96,-475.079"/>
<text text-anchor="middle" x="6169.22" y="-457.8" font-family="Times,serif" font-size="14.00">&#39;\v&#39; / identifier2</text>
</g>
<!-- 19&#45;&gt;10 -->
<g id="edge93" class="edge"><title>19&#45;&gt;10</title>
<path fill="none" stroke="black" d="M6073.9,-485.879C6082.79,-490.61 6093.64,-495.515 6104.1,-498 6151.16,-509.173 6207.57,-507.325 6242.31,-504.514"/>
<polygon fill="black" stroke="black" points="6242.71,-507.992 6252.36,-503.624 6242.09,-501.02 6242.71,-507.992"/>
<text text-anchor="middle" x="6169.22" y="-509.8" font-family="Times,serif" font-size="14.00">SP / identifier2</text>
</g>
<!-- 19&#45;&gt;13 -->
<g id="edge91" class="edge"><title>19&#45;&gt;13</title>
<path fill="none" stroke="black" d="M6066.35,-493.926C6097.47,-545.804 6181.54,-689.929 6234.34,-818 6247.86,-850.785 6259.36,-889.773 6266.61,-916.644"/>
<polygon fill="black" stroke="black" points="6263.23,-917.544 6269.18,-926.31 6270,-915.747 6263.23,-917.544"/>
<text text-anchor="middle" x="6169.22" y="-820.8" font-family="Times,serif" font-size="14.00">&#39;\r&#39; / identifier2, qletters</text>
</g>
<!-- 19&#45;&gt;19 -->
<g id="edge95" class="edge"><title>19&#45;&gt;19</title>
<path fill="none" stroke="black" d="M6035.14,-489.323C6027.4,-502.124 6033.44,-515.5 6053.26,-515.5 6068.12,-515.5 6075.23,-507.976 6074.59,-498.814"/>
<polygon fill="black" stroke="black" points="6077.9,-497.667 6071.37,-489.323 6071.27,-499.918 6077.9,-497.667"/>
<text text-anchor="middle" x="6053.26" y="-518.3" font-family="Times,serif" font-size="14.00">&#39;!&#39;..&#39;~&#39;(qlen_lt) / inc_qual_count</text>
</g>
<!-- 21&#45;&gt;28 -->
<g id="edge100" class="edge"><title>21&#45;&gt;28</title>
<path fill="none" stroke="black" d="M5609.81,-1307.26C5580.72,-1302.51 5528.32,-1294.28 5483.28,-1289 5424.82,-1282.14 5273.65,-1288.89 5219.42,-1266 5176.81,-1248.01 5138.12,-1210.43 5114.54,-1183.99"/>
<polygon fill="black" stroke="black" points="5116.94,-1181.41 5107.72,-1176.18 5111.66,-1186.01 5116.94,-1181.41"/>
<text text-anchor="middle" x="5351.35" y="-1291.8" font-family="Times,serif" font-size="14.00">&#39;\n&#39; / letters, count_line, qletters</text>
</g>
<!-- 21&#45;&gt;20 -->
<g id="edge103" class="edge"><title>21&#45;&gt;20</title>
<path fill="none" stroke="black" d="M5656.81,-1311.6C5686.69,-1311.04 5738.63,-1305.13 5765.14,-1273 5792.98,-1239.27 5768.57,-1118.24 5783.14,-1077 5841.7,-911.322 5946.6,-914.622 6002.41,-748 6024.12,-683.199 6014.21,-509.057 6020.41,-441 6027.75,-360.494 6040.49,-266.294 6047.42,-217.352"/>
<polygon fill="black" stroke="black" points="6050.91,-217.727 6048.85,-207.333 6043.98,-216.739 6050.91,-217.727"/>
<text text-anchor="middle" x="5892.78" y="-1079.8" font-family="Times,serif" font-size="14.00">&#39;A&#39;..&#39;z&#39;(!qlen_lt)</text>
</g>
<!-- 21&#45;&gt;14 -->
<g id="edge102" class="edge"><title>21&#45;&gt;14</title>
<path fill="none" stroke="black" d="M5656.62,-1314.68C5733.97,-1327.41 5985.87,-1369.11 6002.41,-1375 6009.74,-1377.61 6017.25,-1381.24 6024.15,-1385.03"/>
<polygon fill="black" stroke="black" points="6022.69,-1388.23 6033.1,-1390.21 6026.2,-1382.18 6022.69,-1388.23"/>
<text text-anchor="middle" x="5892.78" y="-1377.8" font-family="Times,serif" font-size="14.00">&#39;!&#39;..&#39;@&#39;(qlen_lt) / inc_qual_count</text>
</g>
<!-- 21&#45;&gt;14 -->
<g id="edge105" class="edge"><title>21&#45;&gt;14</title>
<path fill="none" stroke="black" d="M5656.08,-1304.67C5716.27,-1288.57 5887.56,-1251.94 6002.41,-1319 6021.87,-1330.36 6034.55,-1352.55 6042.26,-1371.27"/>
<polygon fill="black" stroke="black" points="6039.01,-1372.57 6045.84,-1380.67 6045.55,-1370.08 6039.01,-1372.57"/>
<text text-anchor="middle" x="5892.78" y="-1321.8" font-family="Times,serif" font-size="14.00">&#39;{&#39;..&#39;~&#39;(qlen_lt) / inc_qual_count</text>
</g>
<!-- 21&#45;&gt;17 -->
<g id="edge101" class="edge"><title>21&#45;&gt;17</title>
<path fill="none" stroke="black" d="M5656.72,-1311.3C5686.25,-1310.38 5737.54,-1304.04 5765.14,-1273 5797.47,-1236.63 5750.18,-1200.8 5783.14,-1165 5844.94,-1097.89 5962.49,-1092.85 6019.56,-1094.78"/>
<polygon fill="black" stroke="black" points="6019.66,-1098.28 6029.8,-1095.22 6019.97,-1091.29 6019.66,-1098.28"/>
<text text-anchor="middle" x="5892.78" y="-1167.8" font-family="Times,serif" font-size="14.00">&#39;\r&#39; / letters, qletters</text>
</g>
<!-- 21&#45;&gt;21 -->
<g id="edge104" class="edge"><title>21&#45;&gt;21</title>
<path fill="none" stroke="black" d="M5610.37,-1317.34C5569.92,-1331.88 5577.53,-1352.5 5633.21,-1352.5 5684.11,-1352.5 5694.84,-1335.27 5665.42,-1321.21"/>
<polygon fill="black" stroke="black" points="5666.63,-1317.92 5656.05,-1317.34 5663.96,-1324.39 5666.63,-1317.92"/>
<text text-anchor="middle" x="5633.21" y="-1355.3" font-family="Times,serif" font-size="14.00">&#39;A&#39;..&#39;z&#39;(qlen_lt) / inc_qual_count</text>
</g>
</g>
</svg>
