<?xml version="1.0" encoding="UTF-8" standalone="no"?>
<!DOCTYPE svg PUBLIC "-//W3C//DTD SVG 1.1//EN"
 "http://www.w3.org/Graphics/SVG/1.1/DTD/svg11.dtd">
<!-- Generated by graphviz version 2.38.0 (20140413.2041)
 -->
<!-- Title: fastaparser Pages: 1 -->
<svg width="1697pt" height="379pt"
 viewBox="0.00 0.00 1696.57 379.17" xmlns="http://www.w3.org/2000/svg" xmlns:xlink="http://www.w3.org/1999/xlink">
<g id="graph0" class="graph" transform="scale(1 1) rotate(0) translate(4 375.174)">
<title>fastaparser</title>
<polygon fill="white" stroke="none" points="-4,4 -4,-375.174 1692.57,-375.174 1692.57,4 -4,4"/>
<!-- ENTRY -->
<g id="node1" class="node"><title>ENTRY</title>
<ellipse fill="black" stroke="black" cx="1.8" cy="-174.674" rx="1.8" ry="1.8"/>
</g>
<!-- 6 -->
<g id="node5" class="node"><title>6</title>
<ellipse fill="none" stroke="black" cx="95.0932" cy="-155.674" rx="23.5" ry="23.5"/>
<ellipse fill="none" stroke="black" cx="95.0932" cy="-155.674" rx="27.5" ry="27.5"/>
<text text-anchor="middle" x="95.0932" y="-151.474" font-family="Times,serif" font-size="14.00">6</text>
</g>
<!-- ENTRY&#45;&gt;6 -->
<g id="edge48" class="edge"><title>ENTRY&#45;&gt;6</title>
<path fill="none" stroke="black" d="M3.82527,-174.461C9.22734,-173.337 34.9965,-167.974 57.6261,-163.264"/>
<polygon fill="black" stroke="black" points="58.641,-166.628 67.718,-161.164 57.2146,-159.775 58.641,-166.628"/>
<text text-anchor="middle" x="35.5966" y="-173.474" font-family="Times,serif" font-size="14.00">IN</text>
</g>
<!-- en_6 -->
<g id="node2" class="node"><title>en_6</title>
<ellipse fill="black" stroke="black" cx="1.8" cy="-137.674" rx="1.8" ry="1.8"/>
</g>
<!-- en_6&#45;&gt;6 -->
<g id="edge49" class="edge"><title>en_6&#45;&gt;6</title>
<path fill="none" stroke="black" d="M3.97331,-137.554C9.30138,-137.035 31.7301,-135.181 49.5932,-138.674 53.0249,-139.346 56.537,-140.259 60.0092,-141.316"/>
<polygon fill="black" stroke="black" points="58.9948,-144.668 69.5894,-144.594 61.261,-138.045 58.9948,-144.668"/>
<text text-anchor="middle" x="35.5966" y="-141.474" font-family="Times,serif" font-size="14.00">main</text>
</g>
<!-- eof_7 -->
<g id="node3" class="node"><title>eof_7</title>
<ellipse fill="black" stroke="black" cx="1470.6" cy="-348.674" rx="1.8" ry="1.8"/>
</g>
<!-- eof_8 -->
<g id="node4" class="node"><title>eof_8</title>
<ellipse fill="black" stroke="black" cx="1686.77" cy="-163.674" rx="1.8" ry="1.8"/>
</g>
<!-- 6&#45;&gt;6 -->
<g id="edge25" class="edge"><title>6&#45;&gt;6</title>
<path fill="none" stroke="black" d="M92.7517,-183.218C92.7013,-193.11 93.4818,-201.174 95.0932,-201.174 96.1002,-201.174 96.7828,-198.024 97.1408,-193.246"/>
<polygon fill="black" stroke="black" points="100.64,-193.316 97.4346,-183.218 93.6431,-193.111 100.64,-193.316"/>
<text text-anchor="middle" x="95.0932" y="-203.974" font-family="Times,serif" font-size="14.00">&#39;\t&#39;</text>
</g>
<!-- 6&#45;&gt;6 -->
<g id="edge26" class="edge"><title>6&#45;&gt;6</title>
<path fill="none" stroke="black" d="M90.8188,-183.088C89.6156,-201.374 91.0404,-219.174 95.0932,-219.174 98.386,-219.174 99.944,-207.424 99.7671,-193.209"/>
<polygon fill="black" stroke="black" points="103.259,-192.942 99.3675,-183.088 96.2649,-193.218 103.259,-192.942"/>
<text text-anchor="middle" x="95.0932" y="-221.974" font-family="Times,serif" font-size="14.00">&#39;\n&#39; / count_line</text>
</g>
<!-- 6&#45;&gt;6 -->
<g id="edge27" class="edge"><title>6&#45;&gt;6</title>
<path fill="none" stroke="black" d="M89.4562,-182.808C86.4393,-208.8 88.3183,-237.174 95.0932,-237.174 100.995,-237.174 103.181,-215.644 101.653,-192.913"/>
<polygon fill="black" stroke="black" points="105.125,-192.448 100.73,-182.808 98.154,-193.085 105.125,-192.448"/>
<text text-anchor="middle" x="95.0932" y="-239.974" font-family="Times,serif" font-size="14.00">&#39;\v&#39;..&#39;\r&#39;</text>
</g>
<!-- 6&#45;&gt;6 -->
<g id="edge28" class="edge"><title>6&#45;&gt;6</title>
<path fill="none" stroke="black" d="M88.4821,-182.42C83.2459,-215.694 85.4496,-255.174 95.0932,-255.174 103.757,-255.174 106.416,-223.306 103.069,-192.702"/>
<polygon fill="black" stroke="black" points="106.49,-191.873 101.704,-182.42 99.5509,-192.794 106.49,-191.873"/>
<text text-anchor="middle" x="95.0932" y="-257.974" font-family="Times,serif" font-size="14.00">SP</text>
</g>
<!-- 1 -->
<g id="node8" class="node"><title>1</title>
<ellipse fill="none" stroke="black" cx="195.034" cy="-155.674" rx="23.5" ry="23.5"/>
<text text-anchor="middle" x="195.034" y="-151.474" font-family="Times,serif" font-size="14.00">1</text>
</g>
<!-- 6&#45;&gt;1 -->
<g id="edge29" class="edge"><title>6&#45;&gt;1</title>
<path fill="none" stroke="black" d="M122.597,-155.674C134.547,-155.674 148.776,-155.674 161.377,-155.674"/>
<polygon fill="black" stroke="black" points="161.494,-159.174 171.494,-155.674 161.494,-152.174 161.494,-159.174"/>
<text text-anchor="middle" x="147.063" y="-158.474" font-family="Times,serif" font-size="14.00">&#39;&gt;&#39;</text>
</g>
<!-- 7 -->
<g id="node6" class="node"><title>7</title>
<ellipse fill="none" stroke="black" cx="1252.47" cy="-215.674" rx="23.5" ry="23.5"/>
<ellipse fill="none" stroke="black" cx="1252.47" cy="-215.674" rx="27.5" ry="27.5"/>
<text text-anchor="middle" x="1252.47" y="-211.474" font-family="Times,serif" font-size="14.00">7</text>
</g>
<!-- 7&#45;&gt;eof_7 -->
<g id="edge50" class="edge"><title>7&#45;&gt;eof_7</title>
<path fill="none" stroke="black" d="M1256.63,-243.195C1261.16,-269.023 1272.03,-306.601 1297.97,-326.674 1346.97,-364.589 1428.42,-355.691 1458.22,-350.8"/>
<polygon fill="black" stroke="black" points="1459.13,-354.192 1468.34,-348.944 1457.87,-347.307 1459.13,-354.192"/>
<text text-anchor="middle" x="1361.53" y="-358.474" font-family="Times,serif" font-size="14.00">EOF / finish_match</text>
</g>
<!-- 7&#45;&gt;7 -->
<g id="edge31" class="edge"><title>7&#45;&gt;7</title>
<path fill="none" stroke="black" d="M1248.35,-243.218C1248.26,-253.11 1249.63,-261.174 1252.47,-261.174 1254.24,-261.174 1255.44,-258.024 1256.07,-253.246"/>
<polygon fill="black" stroke="black" points="1259.57,-253.385 1256.59,-243.218 1252.58,-253.024 1259.57,-253.385"/>
<text text-anchor="middle" x="1252.47" y="-263.974" font-family="Times,serif" font-size="14.00">&#39;\t&#39;</text>
</g>
<!-- 7&#45;&gt;7 -->
<g id="edge32" class="edge"><title>7&#45;&gt;7</title>
<path fill="none" stroke="black" d="M1245.03,-242.427C1242.77,-260.943 1245.25,-279.174 1252.47,-279.174 1258.34,-279.174 1261.07,-267.139 1260.68,-252.694"/>
<polygon fill="black" stroke="black" points="1264.15,-252.137 1259.91,-242.427 1257.17,-252.66 1264.15,-252.137"/>
<text text-anchor="middle" x="1252.47" y="-281.974" font-family="Times,serif" font-size="14.00">&#39;\n&#39; / count_line</text>
</g>
<!-- 7&#45;&gt;7 -->
<g id="edge33" class="edge"><title>7&#45;&gt;7</title>
<path fill="none" stroke="black" d="M1242.81,-241.546C1237.13,-267.872 1240.35,-297.174 1252.47,-297.174 1263.07,-297.174 1266.86,-274.74 1263.84,-251.495"/>
<polygon fill="black" stroke="black" points="1267.27,-250.807 1262.13,-241.546 1260.37,-251.995 1267.27,-250.807"/>
<text text-anchor="middle" x="1252.47" y="-299.974" font-family="Times,serif" font-size="14.00">&#39;\v&#39;..&#39;\r&#39;</text>
</g>
<!-- 7&#45;&gt;7 -->
<g id="edge35" class="edge"><title>7&#45;&gt;7</title>
<path fill="none" stroke="black" d="M1241.26,-240.908C1231.5,-274.485 1235.24,-315.174 1252.47,-315.174 1268.02,-315.174 1272.58,-282.044 1266.15,-250.904"/>
<polygon fill="black" stroke="black" points="1269.48,-249.775 1263.68,-240.908 1262.68,-251.456 1269.48,-249.775"/>
<text text-anchor="middle" x="1252.47" y="-317.974" font-family="Times,serif" font-size="14.00">SP</text>
</g>
<!-- 8 -->
<g id="node7" class="node"><title>8</title>
<ellipse fill="none" stroke="black" cx="1470.6" cy="-163.674" rx="23.5" ry="23.5"/>
<ellipse fill="none" stroke="black" cx="1470.6" cy="-163.674" rx="27.5" ry="27.5"/>
<text text-anchor="middle" x="1470.6" y="-159.474" font-family="Times,serif" font-size="14.00">8</text>
</g>
<!-- 7&#45;&gt;8 -->
<g id="edge30" class="edge"><title>7&#45;&gt;8</title>
<path fill="none" stroke="black" d="M1261.64,-241.856C1268.44,-258.782 1279.96,-279.49 1297.97,-289.674 1347.15,-317.488 1378.97,-322.303 1425.1,-289.674 1453.22,-269.781 1463.69,-230.572 1467.53,-201.149"/>
<polygon fill="black" stroke="black" points="1471.01,-201.521 1468.62,-191.198 1464.05,-200.754 1471.01,-201.521"/>
<text text-anchor="middle" x="1361.53" y="-315.474" font-family="Times,serif" font-size="14.00">&#45;128..&#39;\b&#39; / mark</text>
</g>
<!-- 7&#45;&gt;8 -->
<g id="edge34" class="edge"><title>7&#45;&gt;8</title>
<path fill="none" stroke="black" d="M1271.51,-235.56C1278.96,-242.35 1288.14,-249.123 1297.97,-252.674 1351.11,-271.879 1377.04,-282.379 1425.1,-252.674 1443.62,-241.228 1454.69,-219.481 1461.16,-200.35"/>
<polygon fill="black" stroke="black" points="1464.54,-201.24 1464.13,-190.653 1457.85,-199.185 1464.54,-201.24"/>
<text text-anchor="middle" x="1361.53" y="-274.474" font-family="Times,serif" font-size="14.00">14..31 / mark</text>
</g>
<!-- 7&#45;&gt;8 -->
<g id="edge36" class="edge"><title>7&#45;&gt;8</title>
<path fill="none" stroke="black" d="M1279.32,-222.1C1314.2,-229.382 1377.46,-237.606 1425.1,-215.674 1434.73,-211.239 1443.06,-203.576 1449.81,-195.475"/>
<polygon fill="black" stroke="black" points="1452.75,-197.401 1456.04,-187.331 1447.19,-193.15 1452.75,-197.401"/>
<text text-anchor="middle" x="1361.53" y="-233.474" font-family="Times,serif" font-size="14.00">&#39;!&#39;..&#39;=&#39; / mark</text>
</g>
<!-- 7&#45;&gt;8 -->
<g id="edge38" class="edge"><title>7&#45;&gt;8</title>
<path fill="none" stroke="black" d="M1278.06,-204.525C1284.44,-201.966 1291.38,-199.473 1297.97,-197.674 1353.08,-182.636 1369.56,-192.073 1425.1,-178.674 1428.27,-177.91 1431.53,-177.018 1434.79,-176.057"/>
<polygon fill="black" stroke="black" points="1435.92,-179.369 1444.41,-173.026 1433.82,-172.692 1435.92,-179.369"/>
<text text-anchor="middle" x="1361.53" y="-200.474" font-family="Times,serif" font-size="14.00">&#39;?&#39;..127 / mark</text>
</g>
<!-- 7&#45;&gt;1 -->
<g id="edge37" class="edge"><title>7&#45;&gt;1</title>
<path fill="none" stroke="black" d="M1235.23,-237.27C1227.53,-246.227 1217.67,-256.051 1206.97,-262.674 1135.67,-306.809 1110.34,-317.674 1026.49,-317.674 365.286,-317.674 365.286,-317.674 365.286,-317.674 289.94,-317.674 235.016,-232.855 210.409,-185.964"/>
<polygon fill="black" stroke="black" points="213.422,-184.168 205.758,-176.853 207.188,-187.351 213.422,-184.168"/>
<text text-anchor="middle" x="616.235" y="-320.474" font-family="Times,serif" font-size="14.00">&#39;&gt;&#39; / finish_match</text>
</g>
<!-- 8&#45;&gt;eof_8 -->
<g id="edge51" class="edge"><title>8&#45;&gt;eof_8</title>
<path fill="none" stroke="black" d="M1498.29,-163.674C1545.53,-163.674 1641.96,-163.674 1674.65,-163.674"/>
<polygon fill="black" stroke="black" points="1674.94,-167.174 1684.94,-163.674 1674.94,-160.174 1674.94,-167.174"/>
<text text-anchor="middle" x="1591.54" y="-166.474" font-family="Times,serif" font-size="14.00">EOF / letters, finish_match</text>
</g>
<!-- 8&#45;&gt;7 -->
<g id="edge40" class="edge"><title>8&#45;&gt;7</title>
<path fill="none" stroke="black" d="M1443.96,-156.432C1409.04,-148.03 1345.44,-138.02 1297.97,-160.674 1287.62,-165.616 1278.89,-174.273 1271.99,-183.277"/>
<polygon fill="black" stroke="black" points="1269.06,-181.356 1266.17,-191.547 1274.79,-185.386 1269.06,-181.356"/>
<text text-anchor="middle" x="1361.53" y="-163.474" font-family="Times,serif" font-size="14.00">&#39;\t&#39; / letters</text>
</g>
<!-- 8&#45;&gt;7 -->
<g id="edge41" class="edge"><title>8&#45;&gt;7</title>
<path fill="none" stroke="black" d="M1450.42,-144.656C1443.11,-138.66 1434.31,-132.79 1425.1,-129.674 1371.58,-111.568 1346.24,-100.304 1297.97,-129.674 1280.2,-140.489 1269.21,-160.946 1262.6,-179.195"/>
<polygon fill="black" stroke="black" points="1259.25,-178.159 1259.44,-188.752 1265.9,-180.352 1259.25,-178.159"/>
<text text-anchor="middle" x="1361.53" y="-132.474" font-family="Times,serif" font-size="14.00">&#39;\n&#39; / letters, count_line</text>
</g>
<!-- 8&#45;&gt;7 -->
<g id="edge42" class="edge"><title>8&#45;&gt;7</title>
<path fill="none" stroke="black" d="M1460.59,-137.815C1453.58,-121.988 1442.14,-103.033 1425.1,-93.6744 1375.57,-66.474 1344.26,-61.2826 1297.97,-93.6744 1270.91,-112.611 1260.24,-149.831 1256.08,-178.205"/>
<polygon fill="black" stroke="black" points="1252.59,-177.848 1254.81,-188.208 1259.54,-178.724 1252.59,-177.848"/>
<text text-anchor="middle" x="1361.53" y="-96.4744" font-family="Times,serif" font-size="14.00">&#39;\v&#39;..&#39;\r&#39; / letters</text>
</g>
<!-- 8&#45;&gt;7 -->
<g id="edge44" class="edge"><title>8&#45;&gt;7</title>
<path fill="none" stroke="black" d="M1466.97,-136.151C1462.85,-109.984 1452.26,-71.9848 1425.1,-53.6744 1378.25,-22.0897 1342.9,-19.4195 1297.97,-53.6744 1278.26,-68.7035 1265.1,-135.199 1258.49,-178.188"/>
<polygon fill="black" stroke="black" points="1254.99,-177.894 1256.99,-188.3 1261.92,-178.923 1254.99,-177.894"/>
<text text-anchor="middle" x="1361.53" y="-56.4744" font-family="Times,serif" font-size="14.00">SP / letters</text>
</g>
<!-- 8&#45;&gt;8 -->
<g id="edge39" class="edge"><title>8&#45;&gt;8</title>
<path fill="none" stroke="black" d="M1465.55,-190.767C1465.38,-200.863 1467.06,-209.174 1470.6,-209.174 1472.81,-209.174 1474.29,-205.928 1475.06,-201.028"/>
<polygon fill="black" stroke="black" points="1478.57,-200.953 1475.65,-190.767 1471.58,-200.548 1478.57,-200.953"/>
<text text-anchor="middle" x="1470.6" y="-211.974" font-family="Times,serif" font-size="14.00">&#45;128..&#39;\b&#39;</text>
</g>
<!-- 8&#45;&gt;8 -->
<g id="edge43" class="edge"><title>8&#45;&gt;8</title>
<path fill="none" stroke="black" d="M1461.56,-189.765C1458.62,-208.506 1461.63,-227.174 1470.6,-227.174 1477.95,-227.174 1481.3,-214.612 1480.64,-199.753"/>
<polygon fill="black" stroke="black" points="1484.12,-199.363 1479.63,-189.765 1477.16,-200.066 1484.12,-199.363"/>
<text text-anchor="middle" x="1470.6" y="-229.974" font-family="Times,serif" font-size="14.00">14..31</text>
</g>
<!-- 8&#45;&gt;8 -->
<g id="edge45" class="edge"><title>8&#45;&gt;8</title>
<path fill="none" stroke="black" d="M1458.97,-188.707C1451.69,-215.245 1455.57,-245.174 1470.6,-245.174 1483.75,-245.174 1488.36,-222.26 1484.43,-198.752"/>
<polygon fill="black" stroke="black" points="1487.79,-197.723 1482.22,-188.707 1480.95,-199.225 1487.79,-197.723"/>
<text text-anchor="middle" x="1470.6" y="-247.974" font-family="Times,serif" font-size="14.00">&#39;!&#39;..&#39;=&#39;</text>
</g>
<!-- 8&#45;&gt;8 -->
<g id="edge47" class="edge"><title>8&#45;&gt;8</title>
<path fill="none" stroke="black" d="M1457.21,-187.906C1444.78,-221.669 1449.24,-263.174 1470.6,-263.174 1489.95,-263.174 1495.43,-229.087 1487.04,-197.565"/>
<polygon fill="black" stroke="black" points="1490.34,-196.387 1483.99,-187.906 1483.66,-198.496 1490.34,-196.387"/>
<text text-anchor="middle" x="1470.6" y="-265.974" font-family="Times,serif" font-size="14.00">&#39;?&#39;..127</text>
</g>
<!-- 8&#45;&gt;1 -->
<g id="edge46" class="edge"><title>8&#45;&gt;1</title>
<path fill="none" stroke="black" d="M1469.24,-136.132C1467.21,-104.081 1458.54,-52.1751 1425.1,-25.6744 1365.12,21.8587 1330,-11.6744 1253.47,-11.6744 365.286,-11.6744 365.286,-11.6744 365.286,-11.6744 295.017,-11.6744 239.063,-84.5652 212.624,-126.628"/>
<polygon fill="black" stroke="black" points="209.522,-124.992 207.287,-135.348 215.492,-128.646 209.522,-124.992"/>
<text text-anchor="middle" x="753.772" y="-14.4744" font-family="Times,serif" font-size="14.00">&#39;&gt;&#39; / letters, finish_match</text>
</g>
<!-- 2 -->
<g id="node9" class="node"><title>2</title>
<ellipse fill="none" stroke="black" cx="366.286" cy="-155.674" rx="23.5" ry="23.5"/>
<text text-anchor="middle" x="366.286" y="-151.474" font-family="Times,serif" font-size="14.00">2</text>
</g>
<!-- 1&#45;&gt;2 -->
<g id="edge1" class="edge"><title>1&#45;&gt;2</title>
<path fill="none" stroke="black" d="M216.657,-164.914C222.914,-167.276 229.891,-169.484 236.534,-170.674 275.141,-177.594 286.178,-177.594 324.786,-170.674 328.211,-170.061 331.725,-169.176 335.183,-168.14"/>
<polygon fill="black" stroke="black" points="336.322,-171.449 344.662,-164.914 334.067,-164.823 336.322,-171.449"/>
<text text-anchor="middle" x="280.66" y="-179.474" font-family="Times,serif" font-size="14.00">&#45;128..&#39;\b&#39; / mark</text>
</g>
<!-- 1&#45;&gt;2 -->
<g id="edge2" class="edge"><title>1&#45;&gt;2</title>
<path fill="none" stroke="black" d="M218.723,-153.697C224.525,-153.273 230.756,-152.888 236.534,-152.674 275.73,-151.225 285.589,-151.225 324.786,-152.674 327.313,-152.768 329.928,-152.894 332.555,-153.042"/>
<polygon fill="black" stroke="black" points="332.39,-156.539 342.597,-153.697 332.846,-149.553 332.39,-156.539"/>
<text text-anchor="middle" x="280.66" y="-155.474" font-family="Times,serif" font-size="14.00">14..31 / mark</text>
</g>
<!-- 1&#45;&gt;2 -->
<g id="edge3" class="edge"><title>1&#45;&gt;2</title>
<path fill="none" stroke="black" d="M214.994,-142.852C221.532,-139.133 229.089,-135.566 236.534,-133.674 274.549,-124.016 286.77,-124.016 324.786,-133.674 328.973,-134.738 333.197,-136.332 337.254,-138.185"/>
<polygon fill="black" stroke="black" points="335.831,-141.39 346.325,-142.852 339.034,-135.165 335.831,-141.39"/>
<text text-anchor="middle" x="280.66" y="-136.474" font-family="Times,serif" font-size="14.00">&#39;!&#39;..127 / mark</text>
</g>
<!-- 2&#45;&gt;7 -->
<g id="edge6" class="edge"><title>2&#45;&gt;7</title>
<path fill="none" stroke="black" d="M379.987,-174.954C404.039,-208.876 459.767,-275.674 525.655,-275.674 525.655,-275.674 525.655,-275.674 1026.49,-275.674 1096.24,-275.674 1174.18,-248.413 1217.58,-230.642"/>
<polygon fill="black" stroke="black" points="1219.19,-233.762 1227.07,-226.679 1216.49,-227.302 1219.19,-233.762"/>
<text text-anchor="middle" x="753.772" y="-278.474" font-family="Times,serif" font-size="14.00">&#39;\n&#39; / identifier, count_line</text>
</g>
<!-- 2&#45;&gt;2 -->
<g id="edge4" class="edge"><title>2&#45;&gt;2</title>
<path fill="none" stroke="black" d="M361.345,-178.72C360.941,-188.662 362.588,-197.174 366.286,-197.174 368.597,-197.174 370.107,-193.849 370.815,-188.928"/>
<polygon fill="black" stroke="black" points="374.321,-188.852 371.226,-178.72 367.327,-188.571 374.321,-188.852"/>
<text text-anchor="middle" x="366.286" y="-199.974" font-family="Times,serif" font-size="14.00">&#45;128..&#39;\b&#39;</text>
</g>
<!-- 2&#45;&gt;2 -->
<g id="edge9" class="edge"><title>2&#45;&gt;2</title>
<path fill="none" stroke="black" d="M357.811,-177.644C354.19,-195.997 357.015,-215.174 366.286,-215.174 373.818,-215.174 377.095,-202.514 376.117,-187.923"/>
<polygon fill="black" stroke="black" points="379.539,-187.1 374.76,-177.644 372.599,-188.016 379.539,-187.1"/>
<text text-anchor="middle" x="366.286" y="-217.974" font-family="Times,serif" font-size="14.00">14..31</text>
</g>
<!-- 2&#45;&gt;2 -->
<g id="edge11" class="edge"><title>2&#45;&gt;2</title>
<path fill="none" stroke="black" d="M355.644,-176.703C347.348,-202.579 350.895,-233.174 366.286,-233.174 379.752,-233.174 384.151,-209.749 379.483,-186.559"/>
<polygon fill="black" stroke="black" points="382.825,-185.505 376.927,-176.703 376.049,-187.262 382.825,-185.505"/>
<text text-anchor="middle" x="366.286" y="-235.974" font-family="Times,serif" font-size="14.00">&#39;!&#39;..127</text>
</g>
<!-- 3 -->
<g id="node10" class="node"><title>3</title>
<ellipse fill="none" stroke="black" cx="526.655" cy="-81.6744" rx="23.5" ry="23.5"/>
<text text-anchor="middle" x="526.655" y="-77.4744" font-family="Times,serif" font-size="14.00">3</text>
</g>
<!-- 2&#45;&gt;3 -->
<g id="edge5" class="edge"><title>2&#45;&gt;3</title>
<path fill="none" stroke="black" d="M389.802,-156.091C414.84,-155.558 455.637,-151.642 485.155,-133.674 494.636,-127.903 502.747,-119.04 509.164,-110.256"/>
<polygon fill="black" stroke="black" points="512.073,-112.203 514.788,-101.963 506.279,-108.275 512.073,-112.203"/>
<text text-anchor="middle" x="446.47" y="-158.474" font-family="Times,serif" font-size="14.00">&#39;\t&#39; / identifier</text>
</g>
<!-- 2&#45;&gt;3 -->
<g id="edge7" class="edge"><title>2&#45;&gt;3</title>
<path fill="none" stroke="black" d="M381.769,-137.483C388.846,-129.708 397.953,-121.174 407.786,-115.674 438.688,-98.3891 451.305,-107.062 485.155,-96.6744 488.309,-95.7065 491.575,-94.6282 494.822,-93.5061"/>
<polygon fill="black" stroke="black" points="496.144,-96.75 504.371,-90.0746 493.777,-90.1624 496.144,-96.75"/>
<text text-anchor="middle" x="446.47" y="-118.474" font-family="Times,serif" font-size="14.00">&#39;\v&#39; / identifier</text>
</g>
<!-- 2&#45;&gt;3 -->
<g id="edge10" class="edge"><title>2&#45;&gt;3</title>
<path fill="none" stroke="black" d="M372.5,-132.662C377.961,-114.485 388.521,-90.3088 407.786,-78.6744 433.659,-63.0492 468.898,-66.4467 494.091,-72.1212"/>
<polygon fill="black" stroke="black" points="493.333,-75.5391 503.882,-74.5525 495.02,-68.7454 493.333,-75.5391"/>
<text text-anchor="middle" x="446.47" y="-81.4744" font-family="Times,serif" font-size="14.00">SP / identifier</text>
</g>
<!-- 5 -->
<g id="node11" class="node"><title>5</title>
<ellipse fill="none" stroke="black" cx="1025.49" cy="-215.674" rx="23.5" ry="23.5"/>
<text text-anchor="middle" x="1025.49" y="-211.474" font-family="Times,serif" font-size="14.00">5</text>
</g>
<!-- 2&#45;&gt;5 -->
<g id="edge8" class="edge"><title>2&#45;&gt;5</title>
<path fill="none" stroke="black" d="M387.263,-166.459C413.124,-179.742 460.001,-201.544 503.155,-209.674 685.301,-243.992 909.617,-227.248 992.096,-219.172"/>
<polygon fill="black" stroke="black" points="992.509,-222.648 1002.11,-218.165 991.809,-215.683 992.509,-222.648"/>
<text text-anchor="middle" x="616.235" y="-231.474" font-family="Times,serif" font-size="14.00">&#39;\r&#39; / identifier</text>
</g>
<!-- 3&#45;&gt;3 -->
<g id="edge13" class="edge"><title>3&#45;&gt;3</title>
<path fill="none" stroke="black" d="M521.715,-104.72C521.31,-114.662 522.957,-123.174 526.655,-123.174 528.966,-123.174 530.476,-119.849 531.185,-114.928"/>
<polygon fill="black" stroke="black" points="534.69,-114.852 531.595,-104.72 527.696,-114.571 534.69,-114.852"/>
<text text-anchor="middle" x="526.655" y="-125.974" font-family="Times,serif" font-size="14.00">&#39;\t&#39;</text>
</g>
<!-- 3&#45;&gt;3 -->
<g id="edge15" class="edge"><title>3&#45;&gt;3</title>
<path fill="none" stroke="black" d="M518.181,-103.644C514.559,-121.997 517.384,-141.174 526.655,-141.174 534.187,-141.174 537.464,-128.514 536.486,-113.923"/>
<polygon fill="black" stroke="black" points="539.908,-113.1 535.129,-103.644 532.968,-114.016 539.908,-113.1"/>
<text text-anchor="middle" x="526.655" y="-143.974" font-family="Times,serif" font-size="14.00">&#39;\v&#39;</text>
</g>
<!-- 3&#45;&gt;3 -->
<g id="edge17" class="edge"><title>3&#45;&gt;3</title>
<path fill="none" stroke="black" d="M516.014,-102.703C507.717,-128.579 511.264,-159.174 526.655,-159.174 540.121,-159.174 544.521,-135.749 539.852,-112.559"/>
<polygon fill="black" stroke="black" points="543.194,-111.505 537.296,-102.703 536.418,-113.262 543.194,-111.505"/>
<text text-anchor="middle" x="526.655" y="-161.974" font-family="Times,serif" font-size="14.00">SP</text>
</g>
<!-- 4 -->
<g id="node12" class="node"><title>4</title>
<ellipse fill="none" stroke="black" cx="753.772" cy="-81.6744" rx="23.5" ry="23.5"/>
<text text-anchor="middle" x="753.772" y="-77.4744" font-family="Times,serif" font-size="14.00">4</text>
</g>
<!-- 3&#45;&gt;4 -->
<g id="edge12" class="edge"><title>3&#45;&gt;4</title>
<path fill="none" stroke="black" d="M537.875,-102.585C544.712,-114.04 554.892,-127.193 568.155,-133.674 606.553,-152.439 623.078,-144.898 664.316,-133.674 687.004,-127.5 709.811,-113.869 726.583,-102.112"/>
<polygon fill="black" stroke="black" points="728.724,-104.883 734.771,-96.1839 724.619,-99.213 728.724,-104.883"/>
<text text-anchor="middle" x="616.235" y="-148.474" font-family="Times,serif" font-size="14.00">&#45;128..&#39;\b&#39; / mark</text>
</g>
<!-- 3&#45;&gt;4 -->
<g id="edge14" class="edge"><title>3&#45;&gt;4</title>
<path fill="none" stroke="black" d="M548.279,-90.9143C554.535,-93.2765 561.512,-95.4838 568.155,-96.6744 621.019,-106.15 683.484,-96.8773 720.522,-89.2862"/>
<polygon fill="black" stroke="black" points="721.666,-92.6208 730.713,-87.107 720.202,-85.7755 721.666,-92.6208"/>
<text text-anchor="middle" x="616.235" y="-104.474" font-family="Times,serif" font-size="14.00">&#39;\n&#39; / mark</text>
</g>
<!-- 3&#45;&gt;4 -->
<g id="edge16" class="edge"><title>3&#45;&gt;4</title>
<path fill="none" stroke="black" d="M550.344,-79.6968C556.146,-79.2727 562.377,-78.8881 568.155,-78.6744 621.218,-76.7118 682.909,-78.5451 719.844,-80.0837"/>
<polygon fill="black" stroke="black" points="719.884,-83.5886 730.026,-80.5268 720.188,-76.5952 719.884,-83.5886"/>
<text text-anchor="middle" x="616.235" y="-81.4744" font-family="Times,serif" font-size="14.00">&#39;\f&#39;..31 / mark</text>
</g>
<!-- 3&#45;&gt;4 -->
<g id="edge18" class="edge"><title>3&#45;&gt;4</title>
<path fill="none" stroke="black" d="M547.094,-69.2081C553.54,-65.738 560.922,-62.4381 568.155,-60.6744 621.008,-47.7865 684.344,-60.9923 721.415,-71.5055"/>
<polygon fill="black" stroke="black" points="720.562,-74.9029 731.144,-74.3754 722.543,-68.189 720.562,-74.9029"/>
<text text-anchor="middle" x="616.235" y="-63.4744" font-family="Times,serif" font-size="14.00">&#39;!&#39;..127 / mark</text>
</g>
<!-- 5&#45;&gt;7 -->
<g id="edge24" class="edge"><title>5&#45;&gt;7</title>
<path fill="none" stroke="black" d="M1049.3,-215.674C1088.24,-215.674 1167.89,-215.674 1214.75,-215.674"/>
<polygon fill="black" stroke="black" points="1214.79,-219.174 1224.79,-215.674 1214.79,-212.174 1214.79,-219.174"/>
<text text-anchor="middle" x="1164.01" y="-218.474" font-family="Times,serif" font-size="14.00">&#39;\n&#39; / count_line</text>
</g>
<!-- 4&#45;&gt;7 -->
<g id="edge20" class="edge"><title>4&#45;&gt;7</title>
<path fill="none" stroke="black" d="M776.901,-86.7004C832.191,-99.3667 980.713,-134.061 1103.05,-168.674 1142.19,-179.748 1186.6,-194.044 1216.56,-203.947"/>
<polygon fill="black" stroke="black" points="1215.55,-207.298 1226.14,-207.126 1217.75,-200.654 1215.55,-207.298"/>
<text text-anchor="middle" x="1025.49" y="-171.474" font-family="Times,serif" font-size="14.00">&#39;\n&#39; / description, count_line</text>
</g>
<!-- 4&#45;&gt;5 -->
<g id="edge22" class="edge"><title>4&#45;&gt;5</title>
<path fill="none" stroke="black" d="M772.11,-96.6261C789.288,-110.888 816.785,-132.272 843.228,-146.674 893.096,-173.835 955.922,-195.155 992.992,-206.542"/>
<polygon fill="black" stroke="black" points="992.148,-209.943 1002.73,-209.487 994.174,-203.243 992.148,-209.943"/>
<text text-anchor="middle" x="886.575" y="-188.474" font-family="Times,serif" font-size="14.00">&#39;\r&#39; / description</text>
</g>
<!-- 4&#45;&gt;4 -->
<g id="edge19" class="edge"><title>4&#45;&gt;4</title>
<path fill="none" stroke="black" d="M745.685,-103.876C744.803,-114.176 747.498,-123.174 753.772,-123.174 757.791,-123.174 760.341,-119.481 761.424,-114.119"/>
<polygon fill="black" stroke="black" points="764.931,-114.016 761.859,-103.876 757.937,-113.719 764.931,-114.016"/>
<text text-anchor="middle" x="753.772" y="-125.974" font-family="Times,serif" font-size="14.00">&#45;128..&#39;\t&#39;</text>
</g>
<!-- 4&#45;&gt;4 -->
<g id="edge21" class="edge"><title>4&#45;&gt;4</title>
<path fill="none" stroke="black" d="M740.544,-101.484C733.464,-120.459 737.873,-141.174 753.772,-141.174 766.938,-141.174 772.225,-126.968 769.632,-111.308"/>
<polygon fill="black" stroke="black" points="772.969,-110.237 767,-101.484 766.207,-112.049 772.969,-110.237"/>
<text text-anchor="middle" x="753.772" y="-143.974" font-family="Times,serif" font-size="14.00">&#39;\v&#39;..&#39;\f&#39;</text>
</g>
<!-- 4&#45;&gt;4 -->
<g id="edge23" class="edge"><title>4&#45;&gt;4</title>
<path fill="none" stroke="black" d="M737.978,-99.5769C722.082,-126.043 727.346,-159.174 753.772,-159.174 777.204,-159.174 783.998,-133.124 774.153,-108.77"/>
<polygon fill="black" stroke="black" points="777.162,-106.962 769.565,-99.5769 770.899,-110.087 777.162,-106.962"/>
<text text-anchor="middle" x="753.772" y="-161.974" font-family="Times,serif" font-size="14.00">14..127</text>
</g>
</g>
</svg>
