<svg xmlns="http://www.w3.org/2000/svg" width="48.951" height="48.951" viewBox="0 0 45.892 45.892"><g transform="translate(-481.728 -371.303)"><circle r="20.148" cy="394.249" cx="504.674" fill="#6b85dd" stroke="#4266d5" stroke-width="5.597"/><path d="M504.785 380.698c-8.073 0-15.283 5.434-15.283 12.866 0 2.636.94 5.225 2.606 7.233.07 2.354-1.302 5.73-2.538 8.188 3.314-.604 8.024-1.94 10.16-3.26 11.764 2.889 20.337-4.379 20.337-12.16 0-7.474-7.26-12.867-15.282-12.867zm-5.6 15.184a2.04 2.04 0 1 1 0-4.08 2.04 2.04 0 0 1 0 4.08zm6.084 0a2.04 2.04 0 1 1 0-4.08 2.04 2.04 0 0 1 0 4.08zm6.009 0a2.04 2.04 0 1 1 0-4.08 2.04 2.04 0 0 1 0 4.08z" fill="#252525"/></g></svg>