<svg xmlns="http://www.w3.org/2000/svg" width="48.951" height="48.951" viewBox="0 0 45.892 45.892"><g transform="translate(-504.911 -445.042)"><circle r="20.148" cy="467.988" cx="527.857" fill="#aa7dc0" stroke="#945bb0" stroke-width="5.597"/><path d="M527.967 454.437c-8.072 0-15.282 5.434-15.282 12.866 0 2.636.94 5.224 2.606 7.233.07 2.353-1.302 5.729-2.538 8.188 3.313-.604 8.024-1.94 10.16-3.26 11.764 2.888 20.337-4.38 20.337-12.161 0-7.473-7.26-12.866-15.283-12.866zm-5.599 15.184a2.04 2.04 0 1 1 0-4.08 2.04 2.04 0 0 1 0 4.08zm6.084 0a2.04 2.04 0 1 1 0-4.08 2.04 2.04 0 0 1 0 4.08zm6.009 0a2.04 2.04 0 1 1 0-4.08 2.04 2.04 0 0 1 0 4.08z" fill="#252525"/></g></svg>