<svg id="Gitter_Red" xmlns:rdf="http://www.w3.org/1999/02/22-rdf-syntax-ns#" xmlns="http://www.w3.org/2000/svg" height="12.952mm" width="12.952mm" version="1.1" xmlns:cc="http://creativecommons.org/ns#" xmlns:dc="http://purl.org/dc/elements/1.1/" viewBox="0 0 45.892 45.892">
 <g transform="translate(-334.2 -515.13)">
  <g id="Red_Dot_Gitter" transform="translate(-5.7143 30.089)">
   <circle stroke-width="5.5966" stroke="#c93d39" cy="507.99" cx="362.86" r="20.148" fill="#d66661"/>
   <path fill="#252525" d="m362.97 494.44c-8.0724 0-15.283 5.4341-15.283 12.866 0 2.636 0.941 5.2244 2.6066 7.2328 0.0703 2.3534-1.3022 5.729-2.5385 8.1881 3.3136-0.60441 8.0245-1.9398 10.161-3.2606 11.763 2.8888 20.336-4.3786 20.336-12.16 0-7.4731-7.2606-12.866-15.283-12.866zm-5.5992 15.184c-1.1268 0-2.0402-0.91339-2.0402-2.0402s0.91342-2.0402 2.0402-2.0402 2.0402 0.91342 2.0402 2.0402-0.91331 2.0402-2.0402 2.0402zm6.0834 0c-1.1268 0-2.0402-0.91339-2.0402-2.0402s0.91339-2.0402 2.0402-2.0402 2.0402 0.91342 2.0402 2.0402-0.91334 2.0402-2.0402 2.0402zm6.0092 0c-1.1268 0-2.0402-0.91339-2.0402-2.0402s0.9134-2.0402 2.0402-2.0402 2.0402 0.91342 2.0402 2.0402-0.91333 2.0402-2.0402 2.0402z"/>
  </g>
 </g>
</svg>
