<svg id="Bio_Phylo_Blue" xmlns:rdf="http://www.w3.org/1999/02/22-rdf-syntax-ns#" xmlns="http://www.w3.org/2000/svg" height="12.952mm" width="12.952mm" version="1.1" xmlns:cc="http://creativecommons.org/ns#" xmlns:dc="http://purl.org/dc/elements/1.1/" viewBox="0 0 45.892 45.892">
 <defs>
  <clipPath id="clipPath5168-9" clipPathUnits="userSpaceOnUse">
   <ellipse rx="14.698" ry="11.781" stroke="#4266d5" cy="1029" cx="318.19" stroke-width="3.6553" fill="#6b85dd"/>
  </clipPath>
 </defs>
 <g transform="translate(-294.2 -592.27)">
  <g id="Blue_Dot_Phylogeny" transform="translate(144.2 164.37)">
   <circle stroke-width="5.5966" stroke="#4266d5" cy="450.85" cx="172.95" r="20.148" fill="#6b85dd"/>
   <g clip-path="url(#clipPath5168-9)" transform="matrix(1.3708 0 0 1.7101 -263.23 -1309)" stroke="#252525" stroke-width="1px" fill="none">
    <path d="m318 1015.4v5h-5v3h-5v3h-2v12"/>
    <path d="m308 1026.4h2v14"/>
    <path d="m318 1020.4h7v3h-4v11"/>
    <path d="m325 1023.4h3v5h-3v4h-2v6"/>
    <path d="m325 1032.4h2v6"/>
    <path d="m328 1028.4h3v11"/>
    <path d="m313 1023.4h4v5h-2v4"/>
    <path d="m317 1028.4h2v8"/>
    <path d="m317 1040.4v-8h-2-2v6"/>
   </g>
  </g>
 </g>
</svg>
