<svg id="Bio_Intervals_Purple" xmlns:rdf="http://www.w3.org/1999/02/22-rdf-syntax-ns#" xmlns="http://www.w3.org/2000/svg" height="12.944mm" width="12.944mm" version="1.1" xmlns:cc="http://creativecommons.org/ns#" xmlns:dc="http://purl.org/dc/elements/1.1/" viewBox="0 0 45.862882 45.862881">
 <defs>
  <clipPath id="clipPath4731" clipPathUnits="userSpaceOnUse">
   <ellipse rx="33.481" ry="20.135" stroke="#3b972e" cy="498.87" cx="758.89" stroke-width="7.2123" fill="#6bab5b"/>
  </clipPath>
 </defs>
 <g transform="translate(-302.78 -583.72)">
  <g transform="translate(-696.07 177.96)">
   <circle r="20.135" stroke="#945bb0" cy="428.69" cx="1021.8" stroke-width="5.593" fill="#aa7dc0"/>
   <g clip-path="url(#clipPath4731)" transform="matrix(.60138 0 0 1 565.4 -70.179)">
    <g transform="translate(2.0785 .17857)">
     <path d="m718.67 499.66h75.708" stroke="#252525" stroke-width="6.4475" fill="none"/>
     <g fill="#252525">
      <path d="m743.87 495.78v-0.64026q0-1.2805-0.5067-1.6647-0.5067-0.39331-2.1918-0.39331h-2.9224q-1.8383 0-2.6749-0.41159-0.83665-0.4116-1.1548-1.4269-0.2946 1.0153-1.1312 1.4269-0.83664 0.41159-2.6867 0.41159h-2.9224q-1.6733 0-2.18 0.39331-0.51848 0.38415-0.51848 1.6647v0.64026h-1.6851v-0.57623q0-2.2775 0.87199-3.0367 0.86021-0.76832 3.4644-0.76832h2.8281q1.7558 0 2.4392-0.49391 0.67167-0.49391 0.67167-1.7927v-0.56708h1.6851v0.56708q0 1.2988 0.68345 1.7927 0.68346 0.49391 2.4628 0.49391h2.8163q2.6042 0 3.4762 0.76832 0.87199 0.75916 0.87199 3.0367v0.57623h-1.6968z"/>
      <path d="m785.3 495.61v-0.64026q0-1.2805-0.5067-1.6647-0.5067-0.39331-2.1918-0.39331h-2.9224q-1.8383 0-2.6749-0.41159-0.83665-0.4116-1.1548-1.4269-0.2946 1.0153-1.1312 1.4269-0.83664 0.41159-2.6867 0.41159h-2.9224q-1.6733 0-2.18 0.39331-0.51848 0.38415-0.51848 1.6647v0.64026h-1.6851v-0.57623q0-2.2775 0.87199-3.0367 0.86021-0.76832 3.4644-0.76832h2.8281q1.7558 0 2.4392-0.49391 0.67167-0.49391 0.67167-1.7927v-0.56708h1.6851v0.56708q0 1.2988 0.68345 1.7927 0.68346 0.49391 2.4628 0.49391h2.8163q2.6042 0 3.4762 0.76832 0.87199 0.75916 0.87199 3.0367v0.57623h-1.6968z"/>
      <path d="m749.28 503.37v0.64026q0 1.2805 0.5067 1.6647 0.5067 0.39331 2.1918 0.39331h2.9224q1.8383 0 2.6749 0.41159 0.83665 0.4116 1.1548 1.4269 0.2946-1.0153 1.1312-1.4269 0.83664-0.41159 2.6867-0.41159h2.9224q1.6733 0 2.18-0.39331 0.51848-0.38415 0.51848-1.6647v-0.64026h1.6851v0.57623q0 2.2775-0.87199 3.0367-0.86021 0.76832-3.4644 0.76832h-2.8281q-1.7558 0-2.4392 0.49391-0.67167 0.49391-0.67167 1.7927v0.56708h-1.6851v-0.56708q0-1.2988-0.68345-1.7927-0.68346-0.49391-2.4628-0.49391h-2.8163q-2.6042 0-3.4762-0.76832-0.87199-0.75916-0.87199-3.0367v-0.57623h1.6968z"/>
     </g>
    </g>
   </g>
  </g>
 </g>
</svg>
