<svg id="Bio_Var_Purple" xmlns:rdf="http://www.w3.org/1999/02/22-rdf-syntax-ns#" xmlns="http://www.w3.org/2000/svg" height="12.944mm" width="12.944mm" version="1.1" xmlns:cc="http://creativecommons.org/ns#" xmlns:dc="http://purl.org/dc/elements/1.1/" viewBox="0 0 45.862882 45.862881">
 <g transform="translate(-217.07 -432.29)">
  <g transform="matrix(.26689 0 0 .26689 66.222 344.62)">
   <circle stroke-width="5.593" transform="matrix(3.7469 0 0 3.7469 -3461.5 -1062)" stroke="#945bb0" cy="394.03" cx="1097.6" r="20.135" fill="#aa7dc0"/>
   <g fill="#252525">
    <path d="m611.53 377.45-5.3516 14.512h10.723l-5.3711-14.512zm-2.2266-3.8867h4.4727l11.113 29.16h-4.1016l-2.6562-7.4805h-13.145l-2.6562 7.4805h-4.1602l11.133-29.16z"/>
    <path d="m621.96 373.56h24.668v3.3203h-10.352v25.84h-3.9648v-25.84h-10.352v-3.3203z"/>
    <path d="m670.85 401.35q-2.6953 0.95703-5.1758 1.4453-2.4805 0.48829-4.707 0.48829-5.8789 0-9.3945-3.2227t-3.5156-8.5352q0-3.4961 1.1133-6.582 1.1133-3.1055 3.2812-5.6641 2.5586-3.0078 6.1523-4.6289 3.6133-1.6211 7.7734-1.6211 2.2656 0 4.5508 0.54687 2.2852 0.52735 4.6484 1.6211l-1.2109 6.0352q-1.875-1.4258-3.7695-2.0898-1.8945-0.66406-4.0625-0.66406-4.5117 0-7.5586 3.4766t-3.0469 8.6914q0 3.3594 1.875 5.2734 1.875 1.9141 5.1758 1.9141 1.9727 0 4.1797-0.70313 2.2266-0.72265 4.9805-2.2461l-1.2891 6.4648z"/>
    <path d="m699.79 398.56v-7.832h-6.4453v-3.2422h10.352v12.52q-2.2852 1.6211-5.0391 2.4609-2.7539 0.82032-5.8789 0.82032-6.8359 0-10.703-3.9844-3.8477-4.0039-3.8477-11.133 0-7.1484 3.8477-11.133 3.8672-4.0039 10.703-4.0039 2.8516 0 5.4102 0.70312 2.5781 0.70313 4.7461 2.0703v4.1992q-2.1875-1.8555-4.6484-2.793t-5.1758-0.9375q-5.3516 0-8.0469 2.9883-2.6758 2.9883-2.6758 8.9062 0 5.8984 2.6758 8.8867 2.6953 2.9883 8.0469 2.9883 2.0898 0 3.7305-0.35156 1.6406-0.3711 2.9492-1.1328z"/>
    <path d="m611.53 427.45-5.3516 14.512h10.723l-5.3711-14.512zm-2.2266-3.8867h4.4727l11.113 29.16h-4.1016l-2.6562-7.4805h-13.145l-2.6562 7.4805h-4.1602l11.133-29.16z"/>
    <path d="m621.96 423.56h24.668v3.3203h-10.352v25.84h-3.9648v-25.84h-10.352v-3.3203z"/>
    <path d="m698.38 448.56v-7.832h-6.4453v-3.2422h10.352v12.52q-2.2852 1.6211-5.0391 2.4609-2.7539 0.82032-5.8789 0.82032-6.8359 0-10.703-3.9844-3.8477-4.0039-3.8477-11.133 0-7.1484 3.8477-11.133 3.8672-4.0039 10.703-4.0039 2.8516 0 5.4102 0.70312 2.5781 0.70313 4.7461 2.0703v4.1992q-2.1875-1.8555-4.6484-2.793t-5.1758-0.9375q-5.3516 0-8.0469 2.9883-2.6758 2.9883-2.6758 8.9062 0 5.8984 2.6758 8.8867 2.6953 2.9883 8.0469 2.9883 2.0898 0 3.7305-0.35156 1.6406-0.3711 2.9492-1.1328z"/>
    <path d="m650.06 423.56h24.668v3.3203h-10.352v25.84h-3.9648v-25.84h-10.352v-3.3203z"/>
   </g>
  </g>
 </g>
</svg>
