<svg id="Biojl_Logo" xmlns:rdf="http://www.w3.org/1999/02/22-rdf-syntax-ns#" xmlns="http://www.w3.org/2000/svg" height="51.076mm" width="89.338mm" version="1.1" xmlns:cc="http://creativecommons.org/ns#" xmlns:dc="http://purl.org/dc/elements/1.1/" viewBox="0 0 316.55158 180.9772">
 <g transform="translate(-391.63 -845.68)">
  <g id="BioJl_NoHelix">
   <circle stroke-width="4.0972" stroke="#3a3a3a" cy="977.9" cx="621.8" stroke-miterlimit="10" r="14.75" fill="#4c4c4c"/>
   <circle stroke-width="4.0972" stroke="#4266d5" cy="894.45" cx="664.07" r="14.75" fill="#6b85dd"/>
   <path fill="#252525" d="m652.18 966.02v-42.611c0-0.6829 0.13656-1.0926 0.956-1.3658 7.1018-1.9119 14.067-3.824 21.169-5.8726 1.2292-0.2731 1.2292-0.2731 1.2292 0.956v69.379c0 4.9167 0.27314 9.9698-0.27315 14.886-0.54629 6.0092-1.912 11.745-5.736 16.662-3.4143 4.2338-7.9212 6.5555-13.248 7.5115-5.8726 1.0926-11.882 1.3657-17.891 0.8195-4.0972-0.4098-8.0578-1.3658-11.472-3.9607-2.5949-1.9119-3.9606-4.3703-3.4143-7.7846 0.68286-3.4143 3.0046-5.3264 6.1458-6.4189 2.0486-0.6829 4.0972-0.8195 6.2824-0.4098 1.6389 0.2732 3.0046 0.9561 4.2338 2.0486 1.2292 1.0926 2.3217 2.4584 3.4143 3.6875 0.81944 1.0926 1.6389 2.0486 2.7314 2.7315 1.912 1.2291 3.5509 0.8194 4.6435-1.0926 0.68286-1.3657 0.956-2.7315 1.0926-4.2338 0.27314-2.0486 0.27314-4.2337 0.27314-6.2823-0.13657-12.838-0.13657-25.676-0.13657-38.65z"/>
   <path fill="#252525" d="m708.04 937.88v55.585c0 0.956-0.27315 1.2292-1.2292 1.2292h-21.032c-0.81944 0-0.95603-0.1366-0.95603-0.9561v-105.3c0-0.6829 0.13659-1.0926 0.95603-1.2292 7.1018-1.912 14.067-3.8241 21.169-5.8727 0.95603-0.2731 1.2292-0.1365 1.2292 0.8195-0.13658 18.574-0.13658 37.148-0.13658 55.722z"/>
   <g stroke-width="4.0972">
    <circle stroke="#c93d39" cy="895.12" cx="487.46" r="14.75" fill="#d66661"/>
    <circle stroke="#3b972e" cy="862.48" cx="506.72" r="14.75" fill="#6bab5b"/>
    <circle stroke="#945bb0" cy="894.98" cx="526.11" r="14.75" fill="#aa7dc0"/>
   </g>
   <g fill="#252525">
    <path d="m499.09 955.78v38.128c0 0.95663-0.13662 1.23-1.2299 1.23h-21.182c-0.81995 0-0.95661-0.1367-0.95661-0.95664v-70.516c0-0.68332 0.13666-0.95663 0.81995-1.2299 7.1063-1.9133 14.349-3.9632 21.456-5.8764 0.95663-0.27331 0.95663 0 0.95663 0.81994 0.13662 12.846 0.13662 25.692 0.13662 38.401z"/>
    <path d="m391.63 888.49 23.012-6.3308v41.703q4.4215-2.9142 9.6469-4.7229 5.3259-1.8088 10.149-1.8088 7.0342 0 13.063 2.7132 6.0293 2.7132 10.35 7.3356 4.321 4.6224 6.7327 10.752 2.5122 6.1298 2.5122 12.963 0 9.0439-3.4166 17.183-3.4166 8.1395-9.3454 14.269-5.9288 6.0293-13.968 9.6469-7.9386 3.5171-16.982 3.5171-8.9434 0-17.083-2.4117-8.1395-2.4117-14.671-7.6371v-97.172zm23.012 92.148q2.4117 2.0098 5.1249 3.7181 2.7132 1.6078 6.5317 1.6078 3.8186 0 6.9337-2.3112 3.2156-2.4117 5.4264-6.4312 2.3112-4.12 3.5171-9.6468 1.2058-5.6273 1.2058-12.059 0-4.8234-1.3063-9.0439-1.2059-4.2205-3.4166-7.4361-2.1102-3.2156-5.1249-5.0244-2.9142-1.9093-6.2303-1.9093-3.2156 0-6.7327 1.9093-3.4166 1.8088-5.9288 4.7229v41.904z"/>
    <path d="m549.67 995.14q-9.0786 0-16.846-2.9253-7.6664-3.0262-13.315-8.1708-5.548-5.2454-8.6751-12.206-3.1271-7.0612-3.1271-15.232 0-8.776 3.1271-16.14 3.1271-7.3638 8.6751-12.71 5.6489-5.3463 13.315-8.2716 7.6664-3.0262 16.745-3.0262t16.745 2.9253 13.315 8.0699q5.6489 5.1446 8.776 12.105 3.228 6.8594 3.228 14.828 0 8.3725-3.228 15.837-3.1271 7.3638-8.776 12.912-5.5481 5.548-13.214 8.776-7.6664 3.228-16.745 3.228zm2.6227-9.2804q3.1271 0 5.7498-2.0175 2.7236-2.1184 4.6402-5.5481t3.0262-7.8682q1.1096-4.5393 1.1096-9.4821 0-7.2629-1.1096-13.719-1.1096-6.4559-3.5306-11.197-2.421-4.8419-6.355-7.6664-3.8332-2.8245-9.4821-2.8245-2.7236 0-5.2454 2.0175t-4.4384 5.4472q-1.9166 3.3288-3.1271 7.7673-1.1096 4.4384-1.1096 9.2804 0 7.3638 1.3114 13.921 1.4122 6.4559 3.9341 11.399 2.6227 4.8419 6.2542 7.6664 3.7323 2.8245 8.3725 2.8245z"/>
   </g>
  </g>
 </g>
</svg>
