<svg xmlns="http://www.w3.org/2000/svg" width="344.637" height="140.8" viewBox="0 0 323.0972 131.99999"><defs><clipPath id="a"><path fill-opacity=".345" stroke-width="2.573" stroke-linecap="square" stroke-linejoin="round" d="M568.849 658.072h111.776v25H568.849z"/></clipPath></defs><g transform="translate(-18.451 -23.505)"><circle r="10.8" cy="58.705" cx="174.949" fill="#6b85dd" stroke="#4266d5" stroke-width="3"/><path d="M166.249 111.105v-31.2c0-.5.1-.8.7-1 5.2-1.4 10.3-2.8 15.5-4.3.9-.2.9-.2.9.7v50.8c0 3.6.2 7.3-.2 10.9-.4 4.4-1.4 8.6-4.2 12.2-2.5 3.1-5.8 4.8-9.7 5.5-4.3.8-8.7 1-13.1.6-3-.3-5.9-1-8.4-2.9-1.9-1.4-2.9-3.2-2.5-5.7.5-2.5 2.2-3.9 4.5-4.7 1.5-.5 3-.6 4.6-.3 1.2.2 2.2.7 3.1 1.5.9.8 1.7 1.8 2.5 2.7.6.8 1.2 1.5 2 2 1.4.9 2.6.6 3.4-.8.5-1 .7-2 .8-3.1.2-1.5.2-3.1.2-4.6-.1-9.4-.1-18.8-.1-28.3zM224.249 126.905c-1.9 1.6-3.8 2.8-5.8 3.9-6.8 3.5-13.5 3-19.9-.8-4.4-2.6-7.2-6.5-8.2-11.6-.2-.8-.2-1.6-.2-2.4v-39c0-.7.2-.9.9-.9h15.4c.6 0 .8.2.8.8v38.2c0 4.2 2.4 7.2 6.4 8.2 1.4.3 2.8.3 4.1-.4 2.8-1.4 4.9-3.6 6.7-6.1.2-.3.1-.7.1-1v-38.7c0-.7.2-.9.9-.9h15.5c.6 0 .7.2.7.7v54.6c0 .6-.2.7-.7.7h-15.6c-.5 0-.7-.1-.7-.7-.3-1.5-.4-3-.4-4.6zM264.949 90.505v40.7c0 .7-.2.9-.9.9h-15.4c-.6 0-.7-.1-.7-.7v-77.1c0-.5.1-.8.7-.9 5.2-1.4 10.3-2.8 15.5-4.3.7-.2.9-.1.9.6-.1 13.6-.1 27.2-.1 40.8z" fill="#252525"/><circle r="10.8" cy="35.805" cx="295.449" fill="#6bab5b" stroke="#3b972e" stroke-width="3"/><circle r="10.8" cy="59.605" cx="309.749" fill="#aa7dc0" stroke="#945bb0" stroke-width="3"/><circle r="10.8" cy="59.705" cx="281.449" fill="#d66661" stroke="#c93d39" stroke-width="3"/><path d="M288.649 103.305v27.9c0 .7-.1.9-.9.9h-15.5c-.6 0-.7-.1-.7-.7v-51.6c0-.5.1-.7.6-.9 5.2-1.4 10.5-2.9 15.7-4.3.7-.2.7 0 .7.6.1 9.4.1 18.7.1 28.1zM324.349 127.705c-.5.4-.9.7-1.3 1.1-2.9 2.5-6.2 3.9-10 4.2-3.8.3-7.5.2-11.1-1.3-7.9-3.3-10.2-11.3-7.8-18 1.2-3.4 3.6-5.8 6.5-7.8 3.7-2.6 7.9-4.4 12.2-6 3.7-1.3 7.4-2.6 11.1-3.5.3-.1.5-.2.5-.6-.1-2.9.2-5.8-.3-8.7-.8-4.7-4.3-6.6-8.5-6.1-.3 0-.7.1-1 .2-3.2.7-4.8 2.9-4.8 6.7 0 1.1-.2 2.2-.5 3.3-.6 2.1-2 3.5-4.1 4.1-2.2.6-4.5.7-6.7-.2-4.3-1.7-5.8-6.7-3.4-10.9 1.5-2.5 3.7-4.2 6.2-5.5 4.1-2.1 8.5-3.3 13.1-3.6 5-.4 9.9-.2 14.8 1 2.8.7 5.5 1.8 7.7 3.7 2.9 2.5 4.5 5.7 4.5 9.4.1 14.1.1 28.2.1 42.4 0 .5-.2.6-.7.6h-15.9c-.5 0-.6-.1-.6-.6v-3.9zm0-24.5c-3.2 1.4-6.1 2.9-8.7 4.9-1.4 1.1-2.7 2.3-3.8 3.7-2.8 3.4-1.3 8.8 1.1 10.9 1 .9 2.2 1.3 3.6 1 1.1-.2 2.1-.6 3-1.1 1-.6 1.9-1.4 3-1.9 1.5-.8 2-1.9 1.9-3.6-.2-4.6-.1-9.2-.1-13.9zM95.666 88.835v24.011c0 .603-.086.775-.774.775h-13.34c-.517 0-.603-.086-.603-.603V68.61c0-.43.086-.603.517-.775 4.475-1.205 9.036-2.496 13.512-3.7.602-.173.602 0 .602.516.086 8.09.086 16.18.086 24.184z" fill="#252525"/><circle stroke-miterlimit="10" cx="88.345" cy="50.629" r="9.289" fill="#4c4c4c" stroke="#3a3a3a" stroke-width="2.58"/><path style="line-height:125%;-inkscape-font-specification:'Sinhala MN, Bold';text-align:start" d="M27.994 46.456l14.492-3.987v26.263q2.784-1.835 6.075-2.974 3.354-1.14 6.392-1.14 4.43 0 8.227 1.71 3.797 1.708 6.518 4.619 2.721 2.911 4.24 6.771 1.582 3.86 1.582 8.164 0 5.695-2.152 10.821-2.151 5.126-5.885 8.987-3.734 3.797-8.797 6.075-4.999 2.215-10.695 2.215-5.632 0-10.758-1.519-5.126-1.519-9.24-4.81V46.457zm14.492 58.031q1.519 1.266 3.227 2.342 1.709 1.012 4.114 1.012t4.366-1.455q2.025-1.519 3.418-4.05 1.455-2.595 2.215-6.076.759-3.543.759-7.594 0-3.037-.823-5.695-.76-2.658-2.151-4.683-1.33-2.025-3.228-3.164-1.835-1.203-3.923-1.203-2.026 0-4.24 1.203-2.152 1.139-3.734 2.974v26.39z" font-weight="700" font-size="129.605" font-family="Sinhala MN" letter-spacing="0" word-spacing="0" fill="#252525"/><path style="line-height:125%;-inkscape-font-specification:'Sinhala MN, Bold';text-align:start" d="M127.52 113.62q-5.718 0-10.61-1.841-4.827-1.906-8.385-5.146-3.494-3.304-5.463-7.687-1.97-4.447-1.97-9.592 0-5.527 1.97-10.165 1.97-4.637 5.463-8.004 3.558-3.367 8.386-5.21 4.828-1.905 10.545-1.905 5.718 0 10.546 1.842 4.828 1.842 8.385 5.082 3.558 3.24 5.527 7.624 2.033 4.32 2.033 9.338 0 5.273-2.033 9.974-1.97 4.637-5.527 8.131-3.494 3.494-8.322 5.527-4.828 2.033-10.545 2.033zm1.651-5.844q1.97 0 3.621-1.27 1.716-1.334 2.923-3.494t1.905-4.955q.7-2.859.7-5.972 0-4.574-.7-8.64-.698-4.065-2.223-7.05-1.525-3.05-4.002-4.829-2.414-1.779-5.972-1.779-1.715 0-3.303 1.27-1.588 1.271-2.795 3.431-1.207 2.097-1.97 4.892-.698 2.795-.698 5.844 0 4.638.825 8.767.89 4.066 2.478 7.179 1.652 3.049 3.939 4.828 2.35 1.778 5.272 1.778z" font-weight="700" font-size="130.103" font-family="Sinhala MN" letter-spacing="0" word-spacing="0" fill="#252525"/><g clip-path="url(#a)" transform="matrix(1.3041 0 0 -1.3041 -723.386 1004.394)" fill="none"><path d="M640.607 678.451v-18.513" stroke="#4266d5" stroke-width="2" stroke-linejoin="round"/><path d="M632.563 672.982v-11.56" stroke="#c93d39" stroke-width="2" stroke-linecap="round" stroke-linejoin="round"/><path d="M616.563 662.781v9.578" stroke="#3b972e" stroke-width="2" stroke-linecap="square" stroke-linejoin="round"/><path d="M672.563 667.812v11.56" stroke="#c93d39" stroke-width="2" stroke-linecap="round" stroke-linejoin="round"/><path d="M656.563 678.013v-9.578" stroke="#3b972e" stroke-width="2" stroke-linecap="square" stroke-linejoin="round"/><path d="M648.563 680.448V663.26" stroke="#945bb0" stroke-width="2" stroke-linecap="round" stroke-linejoin="round"/><path d="M599.662 680.397c20 0 20-20 40-20M609.662 660.397c20 0 20 20 40 20" stroke="#000" stroke-width="2.573" stroke-linecap="square"/><path d="M639.662 660.397c20 0 20 20 40 20M649.662 680.397c20 0 20-20 40-20" stroke="#252525" stroke-width="2.573" stroke-linecap="square"/><path d="M600.606 662.343v18.514" stroke="#4266d5" stroke-width="2" stroke-linejoin="round"/><path d="M592.563 667.812v11.56" stroke="#c93d39" stroke-width="2" stroke-linecap="round" stroke-linejoin="round"/><path d="M576.562 678.013v-9.578" stroke="#3b972e" stroke-width="2" stroke-linecap="square" stroke-linejoin="round"/><path d="M632.563 672.982v-11.56" stroke="#c93d39" stroke-width="2" stroke-linecap="round" stroke-linejoin="round"/><path d="M616.563 662.78v9.579" stroke="#3b972e" stroke-width="2" stroke-linecap="square" stroke-linejoin="round"/><path d="M608.563 660.346v17.188" stroke="#945bb0" stroke-width="2" stroke-linecap="round" stroke-linejoin="round"/><path d="M559.662 660.397c20 0 20 20 40 20M569.662 680.397c20 0 20-20 40-20M599.662 680.397c20 0 20-20 40-20M609.662 660.397c20 0 20 20 40 20" stroke="#252525" stroke-width="2.573" stroke-linecap="square"/></g></g></svg>