<svg id="BioJulia_Logo" xmlns:rdf="http://www.w3.org/1999/02/22-rdf-syntax-ns#" xmlns="http://www.w3.org/2000/svg" height="37.253mm" width="91.185mm" version="1.1" xmlns:cc="http://creativecommons.org/ns#" xmlns:dc="http://purl.org/dc/elements/1.1/" viewBox="0 0 323.0972 131.99999">
 <defs>
  <clipPath id="clipPath6648" clipPathUnits="userSpaceOnUse">
   <rect fill-opacity=".34518" height="25" width="111.78" y="658.07" x="568.85" fill="#252525"/>
  </clipPath>
 </defs>
 <g transform="translate(-18.451 -23.505)">
  <g id="BioJulia_Text_Logo">
   <circle stroke-width="3" stroke="#4266d5" cy="58.705" cx="174.95" r="10.8" fill="#6b85dd"/>
   <g fill="#252525">
    <path d="m166.25 111.11v-31.2c0-0.5 0.1-0.8 0.7-1 5.2-1.4 10.3-2.8 15.5-4.3 0.9-0.2 0.9-0.2 0.9 0.7v50.8c0 3.6 0.2 7.3-0.2 10.9-0.4 4.4-1.4 8.6-4.2 12.2-2.5 3.1-5.8 4.8-9.7 5.5-4.3 0.8-8.7 1-13.1 0.6-3-0.3-5.9-1-8.4-2.9-1.9-1.4-2.9-3.2-2.5-5.7 0.5-2.5 2.2-3.9 4.5-4.7 1.5-0.5 3-0.6 4.6-0.3 1.2 0.2 2.2 0.7 3.1 1.5s1.7 1.8 2.5 2.7c0.6 0.8 1.2 1.5 2 2 1.4 0.9 2.6 0.6 3.4-0.8 0.5-1 0.7-2 0.8-3.1 0.2-1.5 0.2-3.1 0.2-4.6-0.1-9.4-0.1-18.8-0.1-28.3z"/>
    <path d="m224.25 126.91c-1.9 1.6-3.8 2.8-5.8 3.9-6.8 3.5-13.5 3-19.9-0.8-4.4-2.6-7.2-6.5-8.2-11.6-0.2-0.8-0.2-1.6-0.2-2.4v-39c0-0.7 0.2-0.9 0.9-0.9h15.4c0.6 0 0.8 0.2 0.8 0.8v38.2c0 4.2 2.4 7.2 6.4 8.2 1.4 0.3 2.8 0.3 4.1-0.4 2.8-1.4 4.9-3.6 6.7-6.1 0.2-0.3 0.1-0.7 0.1-1v-38.7c0-0.7 0.2-0.9 0.9-0.9h15.5c0.6 0 0.7 0.2 0.7 0.7v54.6c0 0.6-0.2 0.7-0.7 0.7h-15.6c-0.5 0-0.7-0.1-0.7-0.7-0.3-1.5-0.4-3-0.4-4.6z"/>
    <path d="m264.95 90.505v40.7c0 0.7-0.2 0.9-0.9 0.9h-15.4c-0.6 0-0.7-0.1-0.7-0.7v-77.1c0-0.5 0.1-0.8 0.7-0.9 5.2-1.4 10.3-2.8 15.5-4.3 0.7-0.2 0.9-0.1 0.9 0.6-0.1 13.6-0.1 27.2-0.1 40.8z"/>
   </g>
   <g stroke-width="3">
    <circle stroke="#3b972e" cy="35.805" cx="295.45" r="10.8" fill="#6bab5b"/>
    <circle stroke="#945bb0" cy="59.605" cx="309.75" r="10.8" fill="#aa7dc0"/>
    <circle stroke="#c93d39" cy="59.705" cx="281.45" r="10.8" fill="#d66661"/>
   </g>
   <g fill="#252525">
    <path d="m288.65 103.31v27.9c0 0.7-0.1 0.9-0.9 0.9h-15.5c-0.6 0-0.7-0.1-0.7-0.7v-51.6c0-0.5 0.1-0.7 0.6-0.9 5.2-1.4 10.5-2.9 15.7-4.3 0.7-0.2 0.7 0 0.7 0.6 0.1 9.4 0.1 18.7 0.1 28.1z"/>
    <path d="m324.35 127.71c-0.5 0.4-0.9 0.7-1.3 1.1-2.9 2.5-6.2 3.9-10 4.2s-7.5 0.2-11.1-1.3c-7.9-3.3-10.2-11.3-7.8-18 1.2-3.4 3.6-5.8 6.5-7.8 3.7-2.6 7.9-4.4 12.2-6 3.7-1.3 7.4-2.6 11.1-3.5 0.3-0.1 0.5-0.2 0.5-0.6-0.1-2.9 0.2-5.8-0.3-8.7-0.8-4.7-4.3-6.6-8.5-6.1-0.3 0-0.7 0.1-1 0.2-3.2 0.7-4.8 2.9-4.8 6.7 0 1.1-0.2 2.2-0.5 3.3-0.6 2.1-2 3.5-4.1 4.1-2.2 0.6-4.5 0.7-6.7-0.2-4.3-1.7-5.8-6.7-3.4-10.9 1.5-2.5 3.7-4.2 6.2-5.5 4.1-2.1 8.5-3.3 13.1-3.6 5-0.4 9.9-0.2 14.8 1 2.8 0.7 5.5 1.8 7.7 3.7 2.9 2.5 4.5 5.7 4.5 9.4 0.1 14.1 0.1 28.2 0.1 42.4 0 0.5-0.2 0.6-0.7 0.6h-15.9c-0.5 0-0.6-0.1-0.6-0.6v-3.9zm0-24.5c-3.2 1.4-6.1 2.9-8.7 4.9-1.4 1.1-2.7 2.3-3.8 3.7-2.8 3.4-1.3 8.8 1.1 10.9 1 0.9 2.2 1.3 3.6 1 1.1-0.2 2.1-0.6 3-1.1 1-0.6 1.9-1.4 3-1.9 1.5-0.8 2-1.9 1.9-3.6-0.2-4.6-0.1-9.2-0.1-13.9z"/>
    <path d="m95.666 88.835v24.012c0 0.6024-0.08606 0.77457-0.77457 0.77457h-13.34c-0.51638 0-0.60244-0.0861-0.60244-0.60245v-44.409c0-0.43028 0.08606-0.60245 0.51638-0.77458 4.4753-1.2049 9.0366-2.4958 13.512-3.7007 0.60244-0.17212 0.60244 0 0.60244 0.51642 0.08606 8.0899 0.08606 16.18 0.08606 24.184z"/>
   </g>
   <circle cx="88.345" stroke="#3a3a3a" cy="50.629" r="9.289" stroke-miterlimit="10" stroke-width="2.5803" fill="#4c4c4c"/>
   <path d="m27.994 46.456 14.492-3.9869v26.263q2.7845-1.8352 6.0753-2.9743 3.354-1.1391 6.3917-1.1391 4.4299 0 8.2269 1.7087t6.5182 4.6197q2.7212 2.9111 4.24 6.7714 1.5821 3.8603 1.5821 8.1636 0 5.6956-2.1517 10.822-2.1517 5.126-5.8854 8.9863-3.7338 3.797-8.7965 6.0752-4.9994 2.2149-10.695 2.2149-5.6323 0-10.758-1.5188-5.126-1.5188-9.2394-4.8096v-61.196zm14.492 58.031q1.5188 1.2657 3.2275 2.3415 1.7087 1.0125 4.1135 1.0125t4.3666-1.4555q2.0251-1.5188 3.4173-4.0502 1.4555-2.5946 2.2149-6.0753 0.75941-3.5439 0.75941-7.5941 0-3.0376-0.82269-5.6956-0.75941-2.6579-2.1517-4.683-1.329-2.0251-3.2275-3.1642-1.8352-1.2024-3.9236-1.2024-2.0251 0-4.24 1.2024-2.1517 1.1391-3.7337 2.9743v26.389z" fill="#252525"/>
   <path d="m127.52 113.62q-5.7174 0-10.609-1.8423-4.828-1.9058-8.3855-5.1457-3.494-3.3034-5.4633-7.6867-1.9693-4.4469-1.9693-9.5925 0-5.5268 1.9693-10.164 1.9693-4.6375 5.4633-8.0044 3.5575-3.3669 8.3855-5.2092 4.828-1.9058 10.545-1.9058 5.7174 0 10.545 1.8423 4.828 1.8423 8.3855 5.0821 3.5575 3.2399 5.5268 7.6232 2.0329 4.3198 2.0329 9.3384 0 5.2727-2.0329 9.9737-1.9693 4.6375-5.5268 8.1314-3.494 3.494-8.322 5.5268-4.828 2.0329-10.545 2.0329zm1.6517-5.8445q1.9693 0 3.621-1.2705 1.7152-1.3341 2.9222-3.494t1.9058-4.9551q0.6988-2.8587 0.6988-5.9715 0-4.5739-0.6988-8.6396-0.69879-4.0657-2.2234-7.0515-1.5246-3.0493-4.0022-4.828-2.414-1.7788-5.9715-1.7788-1.7152 0-3.3034 1.2705t-2.7952 3.4304q-1.207 2.0964-1.9693 4.8916-0.6988 2.7952-0.6988 5.8445 0 4.6375 0.82585 8.7667 0.88938 4.0657 2.4776 7.1785 1.6517 3.0493 3.9387 4.828 2.3505 1.7788 5.2727 1.7788z" fill="#252525"/>
   <g clip-path="url(#clipPath6648)" transform="matrix(1.3041 0 0 -1.3041 -723.39 1004.4)" fill="none">
    <g stroke-linejoin="round" stroke-width="2">
     <path d="m640.61 678.45v-18.514" stroke="#4266d5"/>
     <path d="m632.56 672.98v-11.56" stroke="#c93d39" stroke-linecap="round"/>
     <path d="m616.56 662.78v9.578" stroke="#3b972e" stroke-linecap="square"/>
     <path d="m672.56 667.81v11.56" stroke="#c93d39" stroke-linecap="round"/>
     <path d="m656.56 678.01v-9.578" stroke="#3b972e" stroke-linecap="square"/>
     <path d="m648.56 680.45v-17.188" stroke="#945bb0" stroke-linecap="round"/>
    </g>
    <g stroke="#252525" stroke-linecap="square" stroke-width="2.573">
     <path d="m599.66 680.4c20 0 20-20 40-20"/>
     <path d="m609.66 660.4c20 0 20 20 40 20"/>
     <path d="m639.66 660.4c20 0 20 20 40 20"/>
     <path d="m649.66 680.4c20 0 20-20 40-20"/>
    </g>
    <g stroke-linejoin="round" stroke-width="2">
     <path d="m600.61 662.34v18.514" stroke="#4266d5"/>
     <path d="m592.56 667.81v11.56" stroke="#c93d39" stroke-linecap="round"/>
     <path d="m576.56 678.01v-9.578" stroke="#3b972e" stroke-linecap="square"/>
     <path d="m632.56 672.98v-11.56" stroke="#c93d39" stroke-linecap="round"/>
     <path d="m616.56 662.78v9.578" stroke="#3b972e" stroke-linecap="square"/>
     <path d="m608.56 660.35v17.188" stroke="#945bb0" stroke-linecap="round"/>
    </g>
    <g stroke="#252525" stroke-linecap="square" stroke-width="2.573">
     <path d="m559.66 660.4c20 0 20 20 40 20"/>
     <path d="m569.66 680.4c20 0 20-20 40-20"/>
     <path d="m599.66 680.4c20 0 20-20 40-20"/>
     <path d="m609.66 660.4c20 0 20 20 40 20"/>
    </g>
   </g>
  </g>
 </g>
</svg>
